<?xml version="1.0" encoding="utf-8"?><svg xmlns="http://www.w3.org/2000/svg" xmlns:xlink="http://www.w3.org/1999/xlink"><symbol viewBox="0 0 20 20" id="circle" xmlns="http://www.w3.org/2000/svg"><path d="M10 1c5 0 9 4 9 9s-4 9-9 9-9-4-9-9 4-9 9-9z"/></symbol><symbol viewBox="0 0 30 30" id="cross" xmlns="http://www.w3.org/2000/svg"><path d="M30 18H18v12h-6V18H0v-6h12V0h6v12h12v6z"/></symbol><symbol viewBox="0 0 50 90" id="facebook" xmlns="http://www.w3.org/2000/svg"><path d="M50 15.6H35.7c-1.7 0-3.6 2.2-3.6 5.2v10.3H50v14.7H32.1V90H15.3V45.9H0V31.2h15.3v-8.7C15.3 10.1 23.9 0 35.7 0H50v15.6z"/></symbol><symbol viewBox="0 0 86 86" id="instagram" xmlns="http://www.w3.org/2000/svg"><path d="M69 43c0 14.4-11.6 26-26 26S17 57.4 17 43c0-1.7.2-3.4.5-5H0v34.6C0 80 6 86 13.4 86h59.1C80 86 86 80 86 72.6V38H68.5c.3 1.6.5 3.3.5 5zm3.6-43H13.4C6 0 0 6 0 13.4V28h21.8c4.7-6.7 12.5-11 21.2-11 8.8 0 16.5 4.3 21.2 11H86V13.4C86 6 80 0 72.6 0zm6.5 16.6c0 1.3-1.1 2.4-2.4 2.4h-7.2c-1.3 0-2.4-1.1-2.4-2.4V9.4c0-1.3 1.1-2.4 2.4-2.4h7.2c1.3 0 2.4 1.1 2.4 2.4v7.2zM59 43c0-8.8-7.2-16-16-16s-16 7.2-16 16 7.2 16 16 16 16-7.2 16-16z"/></symbol><symbol viewBox="0 0 90 58" id="mail" xmlns="http://www.w3.org/2000/svg"><path d="M3 5.4c2.4 1.3 36.2 19.5 37.5 20.1 1.3.7 2.9 1 4.5 1s3.3-.3 4.5-1C50.8 24.9 84.6 6.7 87 5.4c2.5-1.3 4.8-5.4.3-5.4H2.7C-1.8 0 .5 4.1 3 5.4zm85.1 10c-2.8 1.4-36.8 19.3-38.5 20.1-1.7.9-2.9 1-4.5 1s-2.8-.1-4.5-1c-1.8-.8-35.9-18.6-38.7-20.1-2-1-1.9.2-1.9 1.1v36.7C0 55.3 2.8 58 5 58h80c2.2 0 5-2.7 5-4.8V16.5c0-.9 0-2.1-1.9-1.1z"/></symbol><symbol viewBox="0 0 71.906 71.906" id="next" xmlns="http://www.w3.org/2000/svg"><path d="M32.969 46.85a.999.999 0 0 1-.707-1.707l9.896-9.896a.999.999 0 1 1 1.414 1.414l-9.896 9.896a.999.999 0 0 1-.707.293z"/><path d="M42.864 36.953a.997.997 0 0 1-.707-.293l-9.99-9.99a.999.999 0 1 1 1.414-1.414l9.99 9.99a.999.999 0 0 1-.707 1.707z"/><path d="M35.953 71.906C16.128 71.906 0 55.777 0 35.953S16.128 0 35.953 0s35.953 16.129 35.953 35.953-16.128 35.953-35.953 35.953zm0-69.906C17.231 2 2 17.231 2 35.953s15.231 33.953 33.953 33.953 33.953-15.231 33.953-33.953S54.675 2 35.953 2z"/></symbol><symbol viewBox="0 0 80 80" id="phone" xmlns="http://www.w3.org/2000/svg"><path d="M46.1 46.1c-7.9 8-17 15.5-20.7 11.9-5.2-5.2-8.4-9.7-19.8-.5S3 72.8 8 77.8c5.8 5.8 27.4.3 48.8-21.1C78.1 35.4 83.6 13.8 77.8 8c-5-5-11.2-13.8-20.3-2.4-9.2 11.4-4.7 14.6.5 19.8 3.6 3.7-3.9 12.8-11.9 20.7z"/></symbol><symbol viewBox="0 0 30 19.6" id="triangle" xmlns="http://www.w3.org/2000/svg"><path d="M15 1.6l13 17H2l13-17z"/></symbol><symbol viewBox="0 0 53.9 53.9" id="triangle2" xmlns="http://www.w3.org/2000/svg"><path d="M4 4l44 10-34 34L4 4z"/></symbol><symbol viewBox="0 0 92 74.8" id="twitter" xmlns="http://www.w3.org/2000/svg"><path d="M92 8.8c-3.4 1.5-7 2.5-10.8 3 3.9-2.3 6.9-6 8.3-10.4-3.6 2.2-7.7 3.7-12 4.6-3.5-3.7-8.4-6-13.8-6-10.4 0-18.9 8.5-18.9 18.9 0 1.5.2 2.9.5 4.3-15.7-.8-29.6-8.3-38.9-19.7-1.6 2.8-2.6 6-2.6 9.5 0 6.5 3.3 12.3 8.4 15.7-3.1-.1-6-.9-8.5-2.4v.2c0 9.1 6.5 16.8 15.1 18.5-1.6.4-3.3.7-5 .7-1.2 0-2.4-.1-3.6-.3 2.4 7.5 9.4 13 17.6 13.1-6.5 5.1-14.6 8.1-23.4 8.1-1.5 0-3-.1-4.5-.3 8.4 5.4 18.3 8.5 28.9 8.5 34.7 0 53.7-28.8 53.7-53.7 0-.8 0-1.6-.1-2.4 3.9-2.7 7.1-6.1 9.6-9.9z"/></symbol></svg>