<?xml version="1.0" encoding="utf-8"?><svg xmlns="http://www.w3.org/2000/svg" xmlns:xlink="http://www.w3.org/1999/xlink"><symbol viewBox="0 0 22.9 22" id="btn-burger" xmlns="http://www.w3.org/2000/svg"><path d="M0 0h22.9v4H0zm0 9h22.9v4H0zm0 9h22.9v4H0z"/></symbol><symbol viewBox="0 0 22.2 22.2" id="btn-cross" xmlns="http://www.w3.org/2000/svg"><path d="M22.2 2.8L19.4 0l-8.3 8.3L2.8 0 0 2.8l8.3 8.3L0 19.4l2.8 2.8 8.3-8.3 8.3 8.3 2.8-2.8-8.3-8.3z"/></symbol><symbol id="fullscreen" viewBox="0 0 20 20" xml:space="preserve" xmlns="http://www.w3.org/2000/svg"><style>.cst0{fill:#454545}</style><path class="cst0" d="M0 0v6h3V3h3V0H3zm3 14H0v6h6v-3H3zM17 0h-3v3h3v3h3V0zm0 17h-3v3h6v-6h-3z"/></symbol><symbol viewBox="0 0 154.4 195.3" id="htmlacademy" xmlns="http://www.w3.org/2000/svg"><path d="M78 .6l-.8-.1-76.7 8v140.6l76.7 45.6 76.7-45.6V8.5L78 .6zm65.9 142.8l-66.7 39.7-66.7-39.7V85.8l66.4 39.5.1 7.2-45.5-27.1-.1 7 45.7 27.5.1 7.3L31.5 120l-.1 7 45.7 27.5 46.2-27.6v-7h-.1V97.1l20.6-12.3v58.6zm-.1-66.1L125.6 88l-8.4 5L77 69.2l-.1 7 34.3 20.4-.3.2-.7.4-4.9 2.9L77 83.2l-.1 7 22.4 13.3L94 107l-.1.1-16.9-10-.1 7 11.1 6.5-11.3 6.8-66-39.3 66.1-39.8v0l67 39zm.1-6.9l-67-39.5v0h0v0L10.5 70.3V17.6l66.7-7 66.7 7v52.8z" stroke="#231f20" stroke-miterlimit="10"/></symbol><symbol viewBox="0 0 76.2 69" id="icon-burger" xmlns="http://www.w3.org/2000/svg"><path d="M71.9 46H4.3C1.9 46 0 48 0 50.3v3.5C0 56.1 1.9 58 4.3 58h1v1c0 5.5 4.5 9.9 9.9 9.9H61c5.5 0 9.9-4.5 9.9-9.9v-1h1c2.3 0 4.3-1.9 4.3-4.3v-3.5c0-2.2-1.9-4.2-4.3-4.2zM68 59c0 3.8-3.1 6.9-6.9 6.9h-46c-3.8 0-6.9-3.1-6.9-6.9v-1H68v1zm5.2-5.3c0 .7-.6 1.3-1.3 1.3H4.3c-.7 0-1.3-.6-1.3-1.3v-3.5c0-.6.6-1.2 1.3-1.2H72c.7 0 1.3.6 1.3 1.3v3.4zm-57-15.8l5.4 4 5.5-4 5.5 4 5.5-4 5.4 4 5.5-4 5.5 4 5.5-4 5.5 4 6.3-4.7-1.7-2.4-4.6 3.3-5.5-4-5.5 4-5.5-4-5.5 4-5.4-4-5.5 4-5.5-4-5.5 4-5.4-4-5.5 4-4.6-3.3-1.8 2.4 6.4 4.7zm54.7-6.8c0-.6.1-2.6 0-3C70.2 12.5 55.8 0 38.1 0 20.4 0 5.9 12.5 5.2 28.1v3h65.7zM38.1 3c16 0 29.2 11.2 29.8 25.1H8.2C8.9 14.2 22.1 3 38.1 3z"/><circle cx="38.1" cy="15" r="2"/><circle cx="30.1" cy="10.1" r="2"/><circle cx="46.1" cy="10.1" r="2"/></symbol><symbol viewBox="0 0 8.7 18.9" id="icon-facebook" xmlns="http://www.w3.org/2000/svg"><path d="M6.3 3.4h2.4V0H5.8C2.7.2 1.5 2.4 1.9 6.1H0v3.5h2v9.3h3.8V9.6h2.9V6.1H5.8c0-1 0-2.4.5-2.7z"/></symbol><symbol viewBox="0 0 63 75.1" id="icon-gift" xmlns="http://www.w3.org/2000/svg"><path d="M60.2 22.2H35.8C49.4 15.4 50.5 11.1 50 8.7c-1.1-3.9-5.6-6.9-9.8-5.3-5.5 2.1-7 10.3-8.5 16.2-1.9-6-3.7-13.6-8-17.5-1.2-1.1-3-2.2-5.7-2-4 .4-9.7 5.3-7.3 10.8 2.2 5.3 9.5 8.7 14.4 11.4H2.8c-1.6 0-2.8 1.3-2.8 2.8v11.2c0 1.6 1.3 2.8 2.8 2.8h.3v36h57v-36h.1c1.6 0 2.8-1.3 2.8-2.8V25.1c0-1.6-1.3-2.9-2.8-2.9zM41.8 5.9c2.1-.3 4.9 1.3 5.2 3.2.4 2.7-3.3 5.2-5 6.3-2.5 1.7-4.9 2.6-7.2 4 .8-3.7 2.5-12.9 7-13.5zm-22.6 9.8c-2.2-1.5-6.4-4.4-6.3-7.7.1-3.6 5.7-6.5 8.7-3.8 3.8 3.3 5.6 11 7 16.4-3.2-1.6-6.2-2.8-9.4-4.9zm5.9 56.4H6v-33h19.1v33zm0-36H3V25.2h22.1v10.9zm10 36H28V25.2h7.1v46.9zm22 0h-19v-33h19.1v33zm2.9-36H38.1V25.2H60v10.9z"/></symbol><symbol viewBox="0 0 74.7 72.3" id="icon-house" xmlns="http://www.w3.org/2000/svg"><path d="M29.5 65.3h16V41.4h-16v23.9zm13.1-2.9H32.4V44.3h10.1v18.1z"/><path d="M72.6 39.4l2.1-2.1-9.9-9.9V.4H51v13.2L37.3 0 0 37.4l2.1 2.1 7.8-7.8v37.8H6v2.9h63.9v-2.9h-5.1V31.6l7.8 7.8zm-18.7-36h7.9v21.1l-7.9-7.9V3.4zm8 66h-49V28.7L37.3 4.2l24.5 24.5v40.7z"/><path d="M29.8 27.2c0 4.3 3.5 7.8 7.7 7.8 4.3 0 7.8-3.5 7.8-7.8s-3.5-7.7-7.8-7.7-7.7 3.4-7.7 7.7zm7.7-5c2.7 0 5 2.2 5 5 0 2.7-2.2 5-5 5-2.7 0-5-2.2-5-5 0-2.7 2.3-5 5-5zM16.9 41.4h3v3.9h-3zm5.9 0h3v3.9h-3zm-5.9 6h3v3.9h-3zm5.9 0h3v3.9h-3zm26-6h3v3.9h-3zm6 0h3v3.9h-3zm-6 6h3v3.9h-3zm6 0h3v3.9h-3z"/></symbol><symbol viewBox="0 0 17.5 14.7" id="icon-twitter" xmlns="http://www.w3.org/2000/svg"><path d="M11.3.2C13-.3 14.4.4 15 1.3c.7-.2 1.4-.5 2.1-.7 0 .8-.5 1.5-.9 1.7.7.2 1.3-.5 1.3-.5-.2 1-1 1.7-1.6 2-.2 6.6-3.3 11-10.4 10.8H5c-.4 0-4.3-.4-5-1.8 2.3.2 4-.4 4.8-1.1-1-.3-2.8-.5-3.1-2.9.4.1.6.2 1.3.1C1.8 8.1.4 7.4.5 5.2c.3.3 1.1.5 1.4.5-.7-.2-2-3.3-.9-4.8 1.9 1.8 3.8 3.5 7.4 3.7C8.5 2.3 9.5.8 11.3.2z"/></symbol><symbol viewBox="0 0 20 14" id="icon-youtube" xmlns="http://www.w3.org/2000/svg"><path d="M17.1 0H2.8C1.3 0 0 1.3 0 2.8v8.3C0 12.7 1.3 14 2.8 14h14.3c1.6 0 2.8-1.3 2.8-2.8V2.8C20 1.3 18.7 0 17.1 0zM7 10.4V3.6L13.8 7 7 10.4z"/></symbol><symbol viewBox="0 0 16 20" id="replay" xmlns="http://www.w3.org/2000/svg"><path d="M8 4V0L3 5l5 5V6c3.3 0 6 2.7 6 6s-2.7 6-6 6-6-2.7-6-6H0c0 4.4 3.6 8 8 8s8-3.6 8-8-3.6-8-8-8z"/></symbol><symbol viewBox="0 0 32 20" id="subtitles" xmlns="http://www.w3.org/2000/svg"><path d="M29 0H3C1.3 0 0 1.3 0 3v14c0 1.7 1.3 3 3 3h26c1.7 0 3-1.3 3-3V3c0-1.7-1.3-3-3-3zM14.4 15.9c-.5.1-1.1.1-1.7.1-.7 0-1.4-.1-2-.3-.6-.2-1.2-.6-1.6-1s-.8-1.1-1.1-1.9c-.3-.8-.4-1.7-.4-2.8 0-1.1.2-2.1.5-2.9.3-.8.7-1.4 1.2-1.9s1.1-.8 1.7-1c.5-.1 1.2-.2 1.8-.2.7 0 1.2 0 1.7.1s.8.2 1.1.3l-.4 1.9-.9-.3H13c-.9 0-1.6.3-2.2 1-.6.7-.8 1.7-.8 3 0 .6.1 1.1.2 1.6s.3.9.6 1.3c.3.3.6.6 1 .8.4.2.9.3 1.4.3.5 0 .9 0 1.3-.1.3-.1.6-.2.9-.4l.5 1.8c-.5.3-1 .4-1.5.6zm8.7 0c-.5.1-1.1.1-1.7.1-.7 0-1.4-.1-2-.3-.6-.2-1.2-.6-1.6-1-.5-.5-.9-1.1-1.1-1.9-.3-.8-.4-1.7-.4-2.8 0-1.1.2-2.1.5-2.9.3-.8.7-1.4 1.2-1.9s1.1-.8 1.7-1c.5-.1 1.2-.2 1.8-.2.7 0 1.2 0 1.7.1s.8.2 1.1.3l-.4 1.9L23 6h-1.3c-.9 0-1.6.3-2.2 1-.6.7-.8 1.7-.8 3 0 .6.1 1.1.2 1.6s.3.9.6 1.3c.3.3.6.6 1 .8.4.2.9.3 1.4.3.5 0 .9 0 1.3-.1.3-.1.6-.2.9-.4l.5 1.8c-.5.3-1 .4-1.5.6z" /></symbol></svg>