<?xml version="1.0" encoding="utf-8"?><svg xmlns="http://www.w3.org/2000/svg" xmlns:xlink="http://www.w3.org/1999/xlink"><symbol viewBox="0 0 45.414 45.414" id="Group_1490" xmlns="http://www.w3.org/2000/svg"><defs><filter id="aaa" x="0" y="0" width="45.414" height="45.414" filterUnits="userSpaceOnUse"><feOffset dy="3"/><feGaussianBlur stdDeviation="3" result="blur"/><feFlood flood-opacity=".161"/><feComposite operator="in" in2="blur"/><feComposite in="SourceGraphic"/></filter></defs><g transform="translate(-.005)" filter="url(#aaa)" data-name="Group 1490"><path data-name="Significon-Stop" d="M32.5 33.414H17.812a.98.98 0 0 1 0-1.959H32.5a1.958 1.958 0 0 0 1.957-1.955V9.916A1.958 1.958 0 0 0 32.5 7.958H12.917a1.958 1.958 0 0 0-1.958 1.958v18.6a.979.979 0 0 1-1.958 0v-18.6A3.917 3.917 0 0 1 12.917 6H32.5a3.915 3.915 0 0 1 3.915 3.916V29.5a3.916 3.916 0 0 1-3.915 3.914zm-18.6-1.959a.979.979 0 1 1-.979.98.98.98 0 0 1 .979-.98z" fill-rule="evenodd"/></g></symbol><symbol viewBox="0 0 59.601 59.601" id="Significon-Cart" xmlns="http://www.w3.org/2000/svg"><path d="M59.279 16.575L54.46 35.5c-1.065 3.972-4.1 5.479-8.83 5.479H17.256a1.86 1.86 0 0 0-1.862 1.862 1.907 1.907 0 0 0 .044.41v.016l.46 2.374a3.726 3.726 0 0 0 3.6 2.787h4.715a5.587 5.587 0 1 1-3.953 9.537 1.86 1.86 0 1 1 2.632-2.628 1.862 1.862 0 1 0 1.317-3.178h-4.655a7.44 7.44 0 0 1-7.276-5.908l-.667-3.45a4.638 4.638 0 0 1 4.567-5.543H46.56c2.279 0 3.769-.732 4.3-2.718l4.82-18.929a3.988 3.988 0 0 0 .195-1.058c-.022-1.7-1.151-3.377-2.795-3.377H13.065A4.658 4.658 0 0 1 8.5 7.426h-.009l-.177-.914a3.728 3.728 0 0 0-3.6-2.787H1.861a1.863 1.863 0 0 1 0-3.725h2.794a7.44 7.44 0 0 1 7.276 5.908l.007.036a1.867 1.867 0 0 0 1.825 1.506h40.248c3 0 5.592 3.761 5.589 7.336a7 7 0 0 1-.322 1.79zM13.037 29.8a1.863 1.863 0 1 1-1.864 1.862 1.861 1.861 0 0 1 1.864-1.862zM12.1 14.889a1.975 1.975 0 0 1 2.166 1.72l.63 7.467a1.919 1.919 0 0 1-1.849 2.013 1.97 1.97 0 0 1-2.164-1.72l-.636-7.469a1.922 1.922 0 0 1 1.85-2.014zm23.285 33.539h7.45a5.587 5.587 0 1 1-3.951 9.537 1.859 1.859 0 1 1 2.629-2.628v-.005a1.861 1.861 0 1 0 1.314-3.176h-7.45a1.863 1.863 0 0 1 0-3.725z" fill-rule="evenodd"/></symbol><symbol viewBox="0 0 73.711 64.497" id="Significon-Chat" xmlns="http://www.w3.org/2000/svg"><path d="M66.8 36.857a2.3 2.3 0 0 0-2.3 2.3v1.153a5.758 5.758 0 0 1-9.126 4.671l-5.48-4.109-.179-.137a9.189 9.189 0 0 1-3.646-7.335v-4.6a5.76 5.76 0 0 0-5.759-5.761H10.366A5.762 5.762 0 0 0 4.605 28.8v16.119A5.742 5.742 0 0 0 8.5 50.34c.091.213.313.337.716.337 1.706 0 4.608 2.577 4.608 5.758v2.3a1.151 1.151 0 0 0 1.807.945l9.687-7.265a8.591 8.591 0 0 1 5.206-1.744h8.637a2.3 2.3 0 1 1 0 4.6H31.1a5.707 5.707 0 0 0-3.5 1.19l-9.252 6.938a5.761 5.761 0 0 1-9.135-4.659v-1.154a2.3 2.3 0 0 0-2.3-2.3c-.254 0-.308-.148-.242-.367A9.207 9.207 0 0 1 0 46.069V27.642a9.211 9.211 0 0 1 9.213-9.213h32.249a9.214 9.214 0 0 1 9.215 9.213V33.4a4.6 4.6 0 0 0 1.847 3.691l5.557 4.168a1.153 1.153 0 0 0 1.809-.946v-2.3c0-3.181 2.9-5.759 4.607-5.759 2.221 0 4.606-2.577 4.606-5.758V10.367a5.756 5.756 0 0 0-5.758-5.759H33.4a5.757 5.757 0 0 0-5.758 5.759v1.151a2.304 2.304 0 0 1-4.608 0v-2.3A9.214 9.214 0 0 1 32.249 0H64.5a9.213 9.213 0 0 1 9.214 9.213v18.429c0 5.088-3.645 9.215-6.909 9.215zm-18.427 9.212a2.3 2.3 0 1 1-2.3 2.3 2.305 2.305 0 0 1 2.3-2.3z" fill-rule="evenodd"/></symbol><symbol viewBox="0 0 68.218 68.218" id="Significon-Cloud-Upload" xmlns="http://www.w3.org/2000/svg"><path d="M53.295 51.163h-1.931a8.5 8.5 0 0 1-6.064-2.531c.111.114.208.221.294.325l-9.947-9.947a2.152 2.152 0 0 0-3.043 0l-5.325 5.324a2.34 2.34 0 1 1-3.309-3.309l-.007-.007 4.557-4.557a7.851 7.851 0 0 1 5.041-2.269 1.91 1.91 0 0 1 1.085 0 7.865 7.865 0 0 1 5.088 2.272l9.113 9.114a7.53 7.53 0 0 1 .785.942.331.331 0 0 0-.107-.239 2.116 2.116 0 0 0 1.507.625h2.265a10.659 10.659 0 0 0 10.657-10.665 10.8 10.8 0 0 0-.111-1.466l-.051-.334a10.8 10.8 0 0 0-.327-1.4L63.451 33a10.688 10.688 0 0 0-.538-1.338 6.485 6.485 0 0 0-.082-.167 10.692 10.692 0 0 0-5.414-5.09 3.2 3.2 0 0 1-1.989-2.96 6.377 6.377 0 0 0-5.943-6.35 2.055 2.055 0 0 0-.453-.046 4.409 4.409 0 0 1-3.643-2.776.151.151 0 0 1 .007.089 17.04 17.04 0 0 0-32.6 6.95 6.61 6.61 0 0 1-3.178 5.662.409.409 0 0 0-.131.114c-.042.025-.085.044-.124.068v.005A10.706 10.706 0 0 0 6.441 29.8c-.024.032-.048.061-.07.093a10.653 10.653 0 0 0-.657.991c-.022.039-.044.073-.066.111a10.461 10.461 0 0 0-.574 1.163c-.01.022-.015.048-.025.07a10.336 10.336 0 0 0-.371 1.086c-.033.119-.062.235-.092.354-.075.3-.138.62-.186.935-.018.117-.036.228-.051.345A10.59 10.59 0 0 0 14.923 46.9h2.132a4.264 4.264 0 0 1 4.264 4.264c0 .039.022.056.027.09a2.184 2.184 0 0 0 .135.722c0 .007.005.015.007.022a2.208 2.208 0 0 0 .416.627 2.12 2.12 0 0 0 1.546.671h1.066a5.329 5.329 0 0 1 5.329 5.329v3.2a2.132 2.132 0 0 0 2.132 2.132h4.264a2.132 2.132 0 0 0 2.132-2.132 2.132 2.132 0 1 1 4.264 0v1.066a5.329 5.329 0 0 1-5.329 5.329h-6.4a5.329 5.329 0 0 1-5.329-5.329v-3.2a2.132 2.132 0 0 0-2.132-2.132 6.391 6.391 0 0 1-6.238-5.019c-.011-.075-.007-.153-.017-.228 0-.007-.007-.007-.007-.015a1.3 1.3 0 0 0-1.2-1.134h-1.062a14.909 14.909 0 0 1-7.469-27.82s-.005-.005 0-.007a2.416 2.416 0 0 0 1.073-2.018 4.568 4.568 0 0 1 .024-.482 21.3 21.3 0 0 1 40.834-8.029 10.644 10.644 0 0 1 10.269 9.947 14.914 14.914 0 0 1-6.359 28.409zm-8.527 2.132a2.132 2.132 0 1 1-2.132 2.132 2.132 2.132 0 0 1 2.132-2.132z" fill-rule="evenodd"/></symbol><symbol viewBox="0 0 68.64 55.77" id="Significon-Friends" xmlns="http://www.w3.org/2000/svg"><path d="M60.06 45.044h-2.146a2.145 2.145 0 0 1 0-4.29h2.146a4.29 4.29 0 0 0 4.29-4.29v-6.432a1.8 1.8 0 0 0-.083-.509 1.929 1.929 0 0 0-.072-.188 2.288 2.288 0 0 0-.1-.22 4.505 4.505 0 0 0-3.183-2.222 21.527 21.527 0 0 0-7.292-1.152 21.245 21.245 0 0 0-7.12 1.136 4.88 4.88 0 0 0-2.434 1.107l-.01-.014a1.972 1.972 0 1 1-2.193-3.235 15.319 15.319 0 0 1 4.215-2.121 10.694 10.694 0 0 1-3.134-6.722 8.709 8.709 0 0 1-.044-.878V8.58a8.58 8.58 0 0 1 8.58-8.581h4.29a8.581 8.581 0 0 1 8.58 8.58v6.434a2.145 2.145 0 1 1-4.29 0V8.58a4.291 4.291 0 0 0-4.29-4.29h-4.29a4.29 4.29 0 0 0-4.291 4.29v6.434a6.436 6.436 0 0 0 6.434 6.436c7.926 0 14.4 3.509 14.961 7.959a3.777 3.777 0 0 1 .055.622v6.433a8.58 8.58 0 0 1-8.58 8.58zM37.51 26.605a1.7 1.7 0 0 1-.088.224s0 .008-.005.01a2.14 2.14 0 0 1-3.883-1.8h-.006a8.525 8.525 0 0 0 .8-3.591 8.748 8.748 0 0 0-.125-1.4 5.883 5.883 0 0 0 .125-1.2v-8.735a5.773 5.773 0 0 0-5.72-5.823h-5.727a5.773 5.773 0 0 0-5.721 5.823v8.732a5.959 5.959 0 0 0 .125 1.2 8.746 8.746 0 0 0-.125 1.4 8.582 8.582 0 0 0 8.581 8.582c13.676 0 24.834 4.891 25.659 11.062a3.782 3.782 0 0 1 .081.733v5.365a8.579 8.579 0 0 1-8.581 8.578H8.58A8.579 8.579 0 0 1 0 47.192v-5.365a4.556 4.556 0 0 1 .061-.716c.279-2.162 1.834-4.154 4.3-5.836a1.978 1.978 0 1 1 2.356 3.165l.014.021c-1.549 1.035-2.436 2.183-2.436 3.366v5.365a4.291 4.291 0 0 0 4.29 4.288H42.9a4.289 4.289 0 0 0 4.29-4.288v-5.365c0-4.148-9.6-7.505-21.449-7.505a12.9 12.9 0 0 1-11.759-7.656c-.015-.027-.025-.052-.039-.08a12.885 12.885 0 0 1-.381-1c-.025-.076-.059-.149-.083-.226-.1-.3-.172-.613-.246-.925-.028-.116-.064-.229-.089-.349a14.41 14.41 0 0 1-.171-1.085c-.008-.069-.025-.136-.03-.205a12.7 12.7 0 0 1-.072-1.348c0-.238.022-.466.037-.7-.017-.243-.037-.483-.037-.729V10.011A9.837 9.837 0 0 1 22.522-.001h6.436A9.835 9.835 0 0 1 38.61 10.01v10.009c0 .246-.019.486-.036.729.014.236.036.464.036.7a12.741 12.741 0 0 1-1.1 5.155zm-23.566 6.642a2.145 2.145 0 1 1-2.144-2.148 2.147 2.147 0 0 1 2.146 2.145z" fill-rule="evenodd"/></symbol><symbol viewBox="0 0 65.093 65.093" id="Significon-Key" xmlns="http://www.w3.org/2000/svg"><path d="M52.888 14.238a2.034 2.034 0 1 1-2.034-2.038 2.035 2.035 0 0 1 2.034 2.034zm-7.763 26.425a2.48 2.48 0 0 1-.318.018 7.482 7.482 0 0 0-5.364 2.256l-.064.058-2.2 2.2a2.022 2.022 0 0 0-.564 1.4V47.8a5.086 5.086 0 0 1-5.086 5.086H30a1.526 1.526 0 0 0-1.526 1.526v1.526a5.083 5.083 0 0 1-5.083 5.083h-1.206a2.035 2.035 0 0 0-1.387.554l-1.132 1.131a8.076 8.076 0 0 1-3.244 1.953 5.941 5.941 0 0 1-2.184.431h-.311a.171.171 0 0 1-.046 0H8.138a8.142 8.142 0 0 1-2.247-.317c-.02-.007-.041-.012-.064-.019-.044-.014-.084-.034-.128-.048a5.6 5.6 0 0 1-2.023-9.225c.03-.03.034-.053.059-.08l25.342-25.34a2.029 2.029 0 0 1 2.869 2.868L6.533 58.346a1.589 1.589 0 0 0 .045 2.191 1.609 1.609 0 0 0 .518.331 3.907 3.907 0 0 0 1.042.155h6.1a2.592 2.592 0 0 0 1.283-.333l-.046-.021a4.037 4.037 0 0 0 1.3-.868l1.68-1.682a4.05 4.05 0 0 1 2.824-1.147c.107 0 .183-.011.276-.016h.821a2.036 2.036 0 0 0 2.034-2.034v-1.017a5.022 5.022 0 0 1 .59-2.329l2.169-2.168a5.033 5.033 0 0 1 2.327-.589h1.017a2.034 2.034 0 0 0 2.035-2.034V45.7a4.057 4.057 0 0 1 1.152-2.82l2.92-2.922a11.58 11.58 0 0 1 8.153-3.343 7.355 7.355 0 0 0 .777-.041 16.263 16.263 0 1 0-17.027-17.119 7.078 7.078 0 0 0-.046.808 11.573 11.573 0 0 1-3.343 8.148L7.344 46.2a2.033 2.033 0 1 1-2.673-3.063L22.119 25.69c.014-.014.021-.025.037-.041a7.487 7.487 0 0 0 2.256-5.364 2.461 2.461 0 0 1 .018-.317 20.334 20.334 0 1 1 20.7 20.695zM2.034 52.888a2.035 2.035 0 1 1 2.036-2.035 2.035 2.035 0 0 1-2.036 2.035z" fill-rule="evenodd"/></symbol><symbol viewBox="0 0 25.975 25.975" id="Significon-Key-1" xmlns="http://www.w3.org/2000/svg"><path d="M18.007 16.226a.989.989 0 0 1-.127.007 2.986 2.986 0 0 0-2.141.9l-.025.023-.878.878a.807.807 0 0 0-.225.558v.482a2.03 2.03 0 0 1-2.029 2.03h-.609a.609.609 0 0 0-.609.609v.609a2.028 2.028 0 0 1-2.028 2.028h-.483a.812.812 0 0 0-.553.221l-.452.451a3.223 3.223 0 0 1-1.294.779 2.371 2.371 0 0 1-.872.172H3.247a3.249 3.249 0 0 1-.9-.126l-.025-.008-.051-.019a2.236 2.236 0 0 1-.807-3.681c.012-.012.013-.021.023-.032L11.6 12a.81.81 0 1 1 1.145 1.145L2.607 23.282a.634.634 0 0 0 .018.874.642.642 0 0 0 .207.132 1.559 1.559 0 0 0 .416.062h2.434a1.034 1.034 0 0 0 .512-.133l-.018-.008a1.611 1.611 0 0 0 .518-.346l.671-.671a1.616 1.616 0 0 1 1.127-.458c.043 0 .073 0 .11-.006h.328a.812.812 0 0 0 .812-.812v-.406a2 2 0 0 1 .235-.929l.866-.865a2.008 2.008 0 0 1 .928-.235h.406a.812.812 0 0 0 .812-.812v-.432a1.619 1.619 0 0 1 .459-1.126l1.165-1.166a4.621 4.621 0 0 1 3.253-1.334 2.935 2.935 0 0 0 .31-.016 6.49 6.49 0 1 0-6.793-6.831 2.824 2.824 0 0 0-.018.322 4.618 4.618 0 0 1-1.334 3.252l-7.1 7.1a.811.811 0 1 1-1.067-1.222l6.962-6.962.015-.016a2.987 2.987 0 0 0 .9-2.141.982.982 0 0 1 .007-.126 8.114 8.114 0 1 1 8.259 8.258zM.812 21.1a.812.812 0 1 1 .812-.812.812.812 0 0 1-.812.812z" fill-rule="evenodd"/></symbol><symbol viewBox="0 0 25.975 25.975" id="Significon-Key2" xmlns="http://www.w3.org/2000/svg"><path d="M21.099 5.682a.812.812 0 1 1-.812-.812.812.812 0 0 1 .812.812zm-3.1 10.545a.989.989 0 0 1-.127.007 2.986 2.986 0 0 0-2.141.9l-.025.023-.878.878a.807.807 0 0 0-.225.558v.482a2.03 2.03 0 0 1-2.029 2.03h-.609a.609.609 0 0 0-.609.609v.609a2.028 2.028 0 0 1-2.028 2.028h-.476a.812.812 0 0 0-.553.221l-.452.451a3.223 3.223 0 0 1-1.294.779 2.371 2.371 0 0 1-.872.172H3.246a3.249 3.249 0 0 1-.9-.126l-.025-.008-.051-.019a2.236 2.236 0 0 1-.807-3.681c.012-.012.013-.021.023-.032L11.599 12a.81.81 0 1 1 1.145 1.145L2.606 23.282a.634.634 0 0 0 .018.874.642.642 0 0 0 .207.132 1.559 1.559 0 0 0 .416.062h2.434a1.034 1.034 0 0 0 .512-.133l-.018-.008a1.611 1.611 0 0 0 .518-.346l.671-.671a1.616 1.616 0 0 1 1.127-.458c.043 0 .073 0 .11-.006h.328a.812.812 0 0 0 .812-.812v-.406a2 2 0 0 1 .235-.929l.866-.865a2.008 2.008 0 0 1 .928-.235h.406a.812.812 0 0 0 .812-.812v-.432a1.619 1.619 0 0 1 .459-1.126l1.165-1.166a4.621 4.621 0 0 1 3.253-1.334 2.935 2.935 0 0 0 .31-.016 6.49 6.49 0 1 0-6.793-6.831 2.824 2.824 0 0 0-.018.322 4.618 4.618 0 0 1-1.334 3.252l-7.1 7.1a.811.811 0 1 1-1.067-1.222l6.962-6.962.015-.016a2.987 2.987 0 0 0 .9-2.141.982.982 0 0 1 .007-.126 8.114 8.114 0 1 1 8.259 8.258zM.811 21.1a.812.812 0 1 1 .812-.812.812.812 0 0 1-.812.812z" fill-rule="evenodd"/></symbol><symbol viewBox="0 0 26.793 21.77" id="Significon-Mail" xmlns="http://www.w3.org/2000/svg"><path d="M4.288 17.481a.837.837 0 0 1 0-1.184l2.368-2.368a.837.837 0 0 1 1.184 1.18l-2.368 2.372a.837.837 0 0 1-1.184 0zm17.033 0l-2.368-2.372a.837.837 0 1 1 1.184-1.184l2.363 2.373a.837.837 0 0 1-1.184 1.184zm4.508-12.6l-10.064 9.228a3.349 3.349 0 0 1-4.736 0L5.123 8.203l-.378-.377-1.612-1.617h-.006a.833.833 0 0 0-.615-.354.837.837 0 0 0-.837.837V18.42a1.674 1.674 0 0 0 1.675 1.675h20.094a1.674 1.674 0 0 0 1.674-1.675V8.373a.838.838 0 0 1 1.675 0V18.42a3.35 3.35 0 0 1-3.349 3.35H3.349A3.35 3.35 0 0 1 0 18.42V6.698a2.512 2.512 0 0 1 2.512-2.511 2.432 2.432 0 0 1 1.675.725v-.014l8.026 8.026a1.673 1.673 0 0 0 2.368 0l10.064-9.228a1.649 1.649 0 0 0 .483-1.184h-.01c0-.925-.749-.837-1.674-.837H5.861a.838.838 0 0 1 0-1.675h17.583c1.536 0 2.828.46 3.222 1.675a3.324 3.324 0 0 1-.836 3.206zM2.512 1.675a.837.837 0 1 1 .837-.838.837.837 0 0 1-.837.838z" fill-rule="evenodd"/></symbol><symbol viewBox="0 0 25.078 20.376" id="Significon-Maps" xmlns="http://www.w3.org/2000/svg"><path d="M23.642 17.839l-5.791 2.413a1.547 1.547 0 0 1-.611.124 1.568 1.568 0 0 1-1.568-1.567v-14a.775.775 0 0 0-.416-.683l-3.769-1.649a.804.804 0 1 1 .61-1.487l3.695 1.539A2.35 2.35 0 0 1 17.241 4.7v13.509a.392.392 0 0 0 .553.357l5.306-2.321a.778.778 0 0 0 .411-.682v-13.4a.392.392 0 0 0-.392-.392.387.387 0 0 0-.16.034l-.646.283a.807.807 0 0 1-.086.038L22 2.175h-.046a.793.793 0 0 1-.53-1.385l1.473-.67a1.568 1.568 0 0 1 2.18 1.443v14.11a2.351 2.351 0 0 1-1.436 2.166zm-4.05-14.7a.784.784 0 1 1 .784-.784.784.784 0 0 1-.784.784zm-5.486 15.507a.8.8 0 0 1-1.127.739l-3.7-1.542a2.354 2.354 0 0 1-1.445-2.17V2.167a.392.392 0 0 0-.391-.392.387.387 0 0 0-.161.034l-5.3 2.32a.777.777 0 0 0-.416.683v13.4a.392.392 0 0 0 .553.357l2.963-1.3a.808.808 0 0 1 .366-.09.821.821 0 0 1 .317 1.577l-3.587 1.496a1.548 1.548 0 0 1-.612.124A1.567 1.567 0 0 1 0 18.809V4.7a2.349 2.349 0 0 1 1.446-2.169L7.226.123A1.567 1.567 0 0 1 9.4 1.567v14a.78.78 0 0 0 .411.682l3.781 1.651a.8.8 0 0 1 .515.748z" fill-rule="evenodd"/></symbol><symbol viewBox="0 0 56.958 68.991" id="Significon-Medal" xmlns="http://www.w3.org/2000/svg"><path d="M51.63 61.435h-4.129c-.028 0-.051.009-.082.009a2.149 2.149 0 0 0-1.772.939l-2.8 4.246c-.026.037-.048.062-.077.105a4.992 4.992 0 0 1-8.473-.191c-.043-.073-.077-.119-.115-.174l-3.452-5.981.014-.008a2.148 2.148 0 1 1 3.718-2.153l3.029 5.247a1.6 1.6 0 0 0 2.683-.194l1.94-3.5a5.384 5.384 0 0 1 4.635-2.647h.07l5.1-.005a1.072 1.072 0 0 0 .9-1.594c0-.008.014 0 .013-.005l-3.529-6.113.017-.011a2.024 2.024 0 0 1-.274-1.006 2.046 2.046 0 0 1 3.732-1.16l.008.015a.245.245 0 0 1 .013.023l3.433 6.053c.012.023.011.036.025.062a5.389 5.389 0 0 1-4.622 8.054zm-17.692-43.2a2.157 2.157 0 0 1 3.682-1.525l.009-.01a12.942 12.942 0 1 1-9.151-3.79 2.157 2.157 0 0 1 0 4.314 8.636 8.636 0 1 0 6.162 2.594 2.141 2.141 0 0 1-.702-1.584zM4.752 30.165a2.157 2.157 0 1 1-2.157 2.157 2.157 2.157 0 0 1 2.157-2.157zm48.827-1.43a9.816 9.816 0 0 1-5.312 12.825l-1.4.58a5.3 5.3 0 0 1-.548.262 2.446 2.446 0 0 0-1.328 1.328c0 .011-.015.009-.02.019l-.783 1.889a9.816 9.816 0 0 1-12.826 5.313l-1.352-.56a5.108 5.108 0 0 1-.611-.211 2.442 2.442 0 0 0-1.878 0c-.025.01-.039 0-.061 0l-1.865.773A9.816 9.816 0 0 1 12.77 45.64l-.378-.913a1.079 1.079 0 0 0-1.958-.094c0 .007-.006-.007-.011-.007l-6.29 10.895c0 .006.017 0 .013.005a1.072 1.072 0 0 0 .9 1.594l5.1.005h.07a5.385 5.385 0 0 1 4.635 2.647l1.94 3.5a1.605 1.605 0 0 0 2.683.194l4.875-8.445.017.009a2.15 2.15 0 0 1 4.05 1.015 2.126 2.126 0 0 1-.265 1.016l-.039.066c-.027.046-.049.1-.08.14l-5.25 9.094c-.038.055-.072.1-.115.174a4.992 4.992 0 0 1-8.473.191c-.028-.044-.051-.068-.078-.105l-2.8-4.246a2.15 2.15 0 0 0-1.773-.939c-.032 0-.054-.007-.082-.009H5.332A5.389 5.389 0 0 1 .71 53.372c.015-.025.014-.039.025-.062L6.85 42.528c0-.005.011-.006.015-.012a5.385 5.385 0 0 1 9.559.46l.546 1.318a5.057 5.057 0 0 0 6.607 2.737l2.268-.939a.947.947 0 0 0 .211-.053 6.3 6.3 0 0 1 4.838 0 1.646 1.646 0 0 0 .358.105l2.139.886a5.057 5.057 0 0 0 6.601-2.729l.972-2.347a.911.911 0 0 0 .063-.106 6.3 6.3 0 0 1 3.425-3.42 1.741 1.741 0 0 0 .28-.153l2.2-.912a5.056 5.056 0 0 0 2.736-6.607l-1.016-2.439a.29.29 0 0 0-.007-.029 6.305 6.305 0 0 1 0-4.837 1.5 1.5 0 0 0 .054-.18l.964-2.328a5.056 5.056 0 0 0-2.736-6.607l-2.488-1.035a6.3 6.3 0 0 1-3.408-3.414c-.008-.019-.018-.03-.026-.048l-1.013-2.438a5.057 5.057 0 0 0-6.607-2.736l-2.464 1.017c-.009 0-.02 0-.03.007a6.3 6.3 0 0 1-4.837 0l-2.483-1.027a5.057 5.057 0 0 0-6.607 2.739l-.987 2.384a.859.859 0 0 0-.064.106 6.3 6.3 0 0 1-3.421 3.421c-.019.008-.03.018-.047.026l-2.419 1a5.056 5.056 0 0 0-2.736 6.607l.737 1.781-.017.007a2.186 2.186 0 1 1-4.012 1.732l-.62-1.5A9.816 9.816 0 0 1 8.69 10.141l1.8-.745c.047-.021.082-.041.134-.062a2.45 2.45 0 0 0 1.328-1.328c0-.012.015-.009.02-.02l.8-1.924A9.816 9.816 0 0 1 25.595.75l1.948.807a2.442 2.442 0 0 0 1.852.008L31.362.75a9.816 9.816 0 0 1 12.825 5.312l.756 1.826c.021.047.04.082.061.133a2.442 2.442 0 0 0 1.253 1.288l2.009.832a9.816 9.816 0 0 1 5.312 12.825l-.623 1.5c-.044.139-.1.294-.173.469a2.443 2.443 0 0 0-.008 1.852z" fill-rule="evenodd"/></symbol><symbol viewBox="0 0 44.546 71.274" id="Significon-Mobile" xmlns="http://www.w3.org/2000/svg"><path d="M24.499 62.365a2.227 2.227 0 1 1-2.227-2.227 2.227 2.227 0 0 1 2.227 2.227zm11.137 8.909H8.908a8.909 8.909 0 0 1-8.909-8.909V33.41a2.228 2.228 0 1 1 4.455 0v28.955a4.455 4.455 0 0 0 4.455 4.455h26.728a4.455 4.455 0 0 0 4.455-4.455v-2.227a2.227 2.227 0 0 0-2.227-2.227H11.136a2.228 2.228 0 1 1 0-4.455h27.841a5.57 5.57 0 0 1 5.456 4.455h.112v4.455a8.91 8.91 0 0 1-8.909 8.908zM4.454 24.5a2.227 2.227 0 1 1-2.227-2.227A2.227 2.227 0 0 1 4.454 24.5zM42.318 49a2.227 2.227 0 0 1-2.227-2.227V8.909a4.455 4.455 0 0 0-4.455-4.455H8.908a4.455 4.455 0 0 0-4.455 4.455v2.227a2.227 2.227 0 0 0 2.227 2.227h26.729a2.228 2.228 0 1 1 0 4.455H5.567A5.568 5.568 0 0 1-.001 12.25V8.909A8.909 8.909 0 0 1 8.908 0h26.728a8.91 8.91 0 0 1 8.909 8.909v37.865A2.227 2.227 0 0 1 42.318 49z" fill-rule="evenodd"/></symbol><symbol viewBox="0 0 63.917 63.917" id="Significon-Music" xmlns="http://www.w3.org/2000/svg"><path d="M51.933 59.923a11.984 11.984 0 0 1 0-23.967 2 2 0 1 1 0 3.995 7.989 7.989 0 1 0 7.991 7.99V25.966a2 2 0 0 1 3.995 0V47.94a11.983 11.983 0 0 1-11.986 11.983zm6.494-38.69l-32.47 6.537a2.493 2.493 0 0 0-1.986 2.441v21.724a11.985 11.985 0 1 1-20.459-8.474l.008.008a1.994 1.994 0 1 1 2.768 2.87 7.988 7.988 0 1 0 13.688 5.6v-21.51a6.49 6.49 0 0 1 5.211-6.364l.666-.141c.039 0 .072 0 .111-.013l31.959-6.866a2.625 2.625 0 0 0 2-2.436V5.618a1.558 1.558 0 0 0-2-1.561l-31.956 6.868a2.619 2.619 0 0 0-2 2.433v4.62a2 2 0 0 1-3.995 0v-4.843a6.931 6.931 0 0 1 5.496-6.385L58.426.116c3.032-.61 5.492 1.258 5.492 4.175v10.557a6.928 6.928 0 0 1-5.492 6.385zM11.985 43.945a2 2 0 1 1 2-2 2 2 0 0 1-2 2z" fill-rule="evenodd"/></symbol><symbol viewBox="0 0 29.3 25.6" id="Significon-News" xmlns="http://www.w3.org/2000/svg"><path d="M24.7 9.2H21c-.5 0-.9-.4-.9-.9s.4-.9.9-.9h3.7c.5 0 .9.4.9.9s-.4.9-.9.9zm0 3.6H21c-.5 0-.9-.4-.9-.9s.4-.9.9-.9h3.7c.5 0 .9.4.9.9s-.4.9-.9.9zm-9.1 5.5h9.2c.5 0 .9.4.9.9s-.4.9-.9.9h-9.2c-.5 0-.9-.4-.9-.9s.4-.9.9-.9zm0-3.6h9.2c.5 0 .9.4.9.9s-.4.9-.9.9h-9.2c-.5 0-.9-.4-.9-.9s.4-.9.9-.9zM7.3 7.8c0-1.3 1-2.3 2.3-2.3H16c1.3 0 2.3 1 2.3 2.3v4.1c0 .5-.4.9-.9.9s-.9-.4-.9-.9V8.2c0-.5-.4-.9-.9-.9h-5.5c-.5 0-.9.4-.9.9V10c0 .5.4.9.9.9h3.7c.5 0 .9.4.9.9s-.4.9-.9.9H9.6c-1.3 0-2.3-1-2.3-2.3V7.8zm.9 10.5h3.7c.5 0 .9.4.9.9s-.4.9-.9.9H8.2c-.5 0-.9-.4-.9-.9s.4-.9.9-.9zm0-3.6h3.7c.5 0 .9.4.9.9s-.4.9-.9.9H8.2c-.5 0-.9-.4-.9-.9s.4-.9.9-.9zm17.4 10.9H5.5c-3 0-5.5-2.5-5.5-5.5v-6.4c0-.5.4-.9.9-.9s.9.4.9.9v6.4c0 2 1.6 3.7 3.7 3.7h19.7c1.3 0 2.3-1 2.3-2.3V4.1c0-1.3-1-2.3-2.3-2.3H7.8c-1.3 0-2.3 1-2.3 2.3v15.1c0 .5-.4.9-.9.9s-.9-.4-.9-.9V3.7c0-2 1.6-3.7 3.7-3.7h18.3c2 0 3.7 1.6 3.7 3.7V22c-.1 2-1.7 3.6-3.8 3.6zM.9 11c-.5 0-.9-.4-.9-.9s.4-.9.9-.9.9.4.9.9-.4.9-.9.9z"/></symbol><symbol viewBox="0 0 66.975 66.975" id="Significon-Playlist" xmlns="http://www.w3.org/2000/svg"><path d="M61.216 39.172L48.8 33.609a2.06 2.06 0 0 0-.662-.12 2.1 2.1 0 0 0-2.1 2.093v18.837a12.556 12.556 0 1 1-21.436-8.881l.009.01a2.089 2.089 0 1 1 2.889 3.018 8.37 8.37 0 1 0 14.354 5.854V35.27a5.97 5.97 0 0 1 5.97-5.968 5.9 5.9 0 0 1 2.252.451L60.7 34.894c1.155.536 2.091.033 2.091-1.124v-7.323a3.763 3.763 0 0 0-2.091-3.065L48.137 17.3c-1.155-.536-2.1-.033-2.1 1.124v4.6a2.093 2.093 0 1 1-4.186 0v-7.017c0-3.056 2.579-4.381 5.758-2.964l13.6 6.1c3.18 1.417 5.758 5.043 5.758 8.1v8.97c0 3.056-2.578 4.382-5.758 2.964zM56.509 4.187H10.464a2.094 2.094 0 0 1 0-4.187h46.045a2.094 2.094 0 0 1 0 4.187zm-54.416 0a2.093 2.093 0 1 1 2.091-2.094 2.093 2.093 0 0 1-2.091 2.094zm0 8.373h29.3a2.093 2.093 0 1 1 0 4.186h-29.3a2.093 2.093 0 0 1 0-4.186zM35.58 43.953a2.093 2.093 0 1 1-2.093-2.093 2.093 2.093 0 0 1 2.093 2.093zM2.093 25.116h29.3a2.093 2.093 0 0 1 0 4.186h-29.3a2.093 2.093 0 0 1 0-4.186zm0 12.557H14.65a2.093 2.093 0 0 1 0 4.186H2.093a2.093 2.093 0 0 1 0-4.186z" fill-rule="evenodd"/></symbol><symbol viewBox="0 0 64.496 64.497" id="Significon-Star" xmlns="http://www.w3.org/2000/svg"><path d="M62.269 30.382l-10.775 8.245a3.945 3.945 0 0 0-1.316 4.093s4.164 14.5 4.247 14.767a5.405 5.405 0 0 1-8.273 6.024l-1.869-1.317a2.224 2.224 0 1 1 2.622-3.585l.008-.01.571.407a1.509 1.509 0 0 0 2.256-1.664.3.3 0 0 1-.013-.078L45.74 43.45a8.05 8.05 0 0 1 2.873-8.565c.016-.014.021-.021.034-.031l10.294-7.934a1.511 1.511 0 0 0-.9-2.725c-.1 0-.14-.006-.122-.014h-12.7a8.06 8.06 0 0 1-7.46-5.422l-.233-.666c-.044-.125-.092-.26-.13-.374l-3.9-11.141a1.287 1.287 0 0 0-.282-.466 1.338 1.338 0 0 0-1.892 0 1.322 1.322 0 0 0-.327.534c-.008.026-.011.011-.016.018l-3.867 11.023a17.67 17.67 0 0 0-.2.592l-.168.474a8.056 8.056 0 0 1-7.461 5.427H6.578c.018.008-.019.014-.122.014a1.511 1.511 0 0 0-.9 2.725l10.3 7.934c.013.011.018.018.034.031a8.049 8.049 0 0 1 2.874 8.565L14.77 57.263a.32.32 0 0 1-.014.078 1.633 1.633 0 0 0-.049.39 1.5 1.5 0 0 0 2.3 1.276L27.538 51.5l.016-.008a8.032 8.032 0 0 1 4.618-1.5h.078a2.091 2.091 0 0 1 0 4.181 2.007 2.007 0 0 0-1.129.35l-12.785 8.993a5.4 5.4 0 0 1-8.265-6.029c.083-.271 4.247-14.767 4.247-14.767A3.954 3.954 0 0 0 13 38.624L2.216 30.371A5.7 5.7 0 0 1 5.7 20.163h.021l13.21-.013a4.024 4.024 0 0 0 3.616-2.619s4.934-13.572 5.2-14.341a4.777 4.777 0 0 1 7.879-1.79 4.717 4.717 0 0 1 1.117 1.755c.249.7 5.207 14.382 5.207 14.382a4.03 4.03 0 0 0 3.616 2.616l13.209.013h.025a5.7 5.7 0 0 1 3.473 10.219zM39.3 54.423a2.016 2.016 0 1 1-2.014 2.017 2.018 2.018 0 0 1 2.014-2.017z" fill-rule="evenodd"/></symbol><symbol viewBox="0 0 27.4 27.4" id="Significon-Stop" xmlns="http://www.w3.org/2000/svg"><path d="M23.5 27.4H8.8c-.5 0-1-.4-1-1s.4-1 1-1h14.7c1.1 0 2-.9 2-2V3.9c0-1.1-.9-2-2-2H3.9c-1.1 0-2 .9-2 2v18.6c0 .5-.4 1-1 1s-1-.4-1-1V3.9C0 1.8 1.8 0 3.9 0h19.6c2.2 0 3.9 1.8 3.9 3.9v19.6c0 2.2-1.7 3.9-3.9 3.9zM4.9 25.5c.5 0 1 .4 1 1s-.4 1-1 1c-.5 0-1-.4-1-1s.5-1 1-1z"/></symbol><symbol viewBox="0 0 26.7 26.5" id="Significon-Thumbnail" xmlns="http://www.w3.org/2000/svg"><path d="M23.3 26.5h-5.8c-.5 0-.8-.4-.8-.8 0-.5.4-.8.8-.8h5.4c1.1 0 2.1-.9 2.1-2.1v-5.4c0-.5.4-.8.9-.8.4 0 .8.4.8.8v5.8c0 1.8-1.5 3.3-3.4 3.3zM.8 8.3c.5 0 .8.4.8.8 0 .5-.4.8-.8.8S0 9.6 0 9.1c0-.4.4-.8.8-.8zM26.6 12v.4c0 .1 0 .1-.1.2v.1c0 .1-.1.2-.1.2v.1c0 .1-.1.2-.1.2-.1.1-.1.2-.2.2-.1.1-.1.2-.2.2l-.2.2c-.6.5-1.4.8-2.2.8h-6.2c-1.1 0-2.1.9-2.1 2.1v6.2c0 .9-.4 1.8-1.1 2.4-.1.1-.2.1-.2.2-.1.1-.2.1-.2.2-.1 0-.2.1-.2.1h-.1c-.1 0-.2.1-.2.1h-.1c-.1 0-.1 0-.2.1H3.3C1.5 26 0 24.5 0 22.7v-8.3c0-1.8 1.5-3.3 3.3-3.3h6.3c1.1 0 2.1-.9 2.1-2.1V3.7c0-1.1-.9-2.1-2.1-2.1H3.8c-1.1 0-2.1.9-2.1 2.1v2.1c0 .5-.4.8-.9.8-.4 0-.8-.4-.8-.8V3.3C0 1.5 1.5 0 3.3 0h7.6c.1 0 .1 0 .2.1h.1c.1 0 .2.1.2.1h.1c.1 0 .2.1.2.1h.1c.1.1.2.1.2.2.1.1.2.1.2.2.7.6 1.1 1.5 1.1 2.4v6.6c0 1.8-1.5 3.3-3.3 3.3H3.8c-1.1 0-2.1.9-2.1 2.1v7.5c0 1.1.9 2.1 2.1 2.1h7.5c1.1 0 2.1-.9 2.1-2.1v-6.2c0-1.8 1.5-3.3 3.3-3.3H23c1.1 0 2.1-.9 2.1-2.1V3.7c0-1.1-.9-2.1-2.1-2.1h-7.1c-.5 0-.8-.4-.8-.8s.3-.8.7-.8h7.5c1.8 0 3.3 1.5 3.3 3.3v8.3c.1.1.1.2 0 .4.1 0 0 0 0 0z"/></symbol><symbol viewBox="0 0 58.476 36.547" id="Significon-Ticket" xmlns="http://www.w3.org/2000/svg"><path d="M54.819 21.928a3.655 3.655 0 0 1 3.656 3.656v3.653a7.309 7.309 0 0 1-7.309 7.31h-1.828a1.827 1.827 0 0 1 0-3.655h1.828a3.652 3.652 0 0 0 3.653-3.656v-2.8a.909.909 0 0 0-.741-.893 7.312 7.312 0 0 1 0-14.547.91.91 0 0 0 .741-.894v-2.8a3.654 3.654 0 0 0-3.653-3.655h-5.94a1.37 1.37 0 0 0-1.37 1.371v.457a1.827 1.827 0 1 1-3.654 0v-.914A4.568 4.568 0 0 1 44.77 0h6.4a7.309 7.309 0 0 1 7.309 7.31v3.653a3.654 3.654 0 0 1-3.656 3.655 3.655 3.655 0 0 0 0 7.31zm-12.79-7.31a1.828 1.828 0 1 1 1.827-1.827 1.827 1.827 0 0 1-1.827 1.827zm1.827 9.138a1.827 1.827 0 1 1-3.654 0V20.1a1.827 1.827 0 1 1 3.654 0v3.656zM40.2 31.065a1.827 1.827 0 1 1 3.654 0v.914a4.568 4.568 0 0 1-4.57 4.568H7.309A7.309 7.309 0 0 1 0 29.237v-3.653a3.653 3.653 0 0 1 3.653-3.656 3.655 3.655 0 1 0 0-7.31A3.653 3.653 0 0 1 0 10.963V7.31A7.308 7.308 0 0 1 7.309 0h27.41a1.828 1.828 0 0 1 0 3.655H7.309A3.656 3.656 0 0 0 3.653 7.31v2.8A.912.912 0 0 0 4.4 11a7.312 7.312 0 0 1 0 14.547.911.911 0 0 0-.744.893v2.8a3.655 3.655 0 0 0 3.656 3.656H38.83a1.371 1.371 0 0 0 1.372-1.371v-.457zm-8.224-1.828h-8.221a1.827 1.827 0 1 1 0-3.653h7.31a1.829 1.829 0 0 0 1.827-1.827V12.791a1.829 1.829 0 0 0-1.827-1.828H20.1a1.827 1.827 0 0 0-1.826 1.828v10.966a1.827 1.827 0 0 1-3.655 0v-11.88a4.566 4.566 0 0 1 4.567-4.567h12.793a4.567 4.567 0 0 1 4.566 4.567V24.67a4.567 4.567 0 0 1-4.566 4.567z" fill-rule="evenodd"/></symbol><symbol viewBox="0 0 60.201 60.202" id="Significon-User" xmlns="http://www.w3.org/2000/svg"><path d="M52.677 60.2H7.527a7.525 7.525 0 0 1-7.526-7.522v-5.644c0-3.012 2.3-5.761 6.132-7.969a1.75 1.75 0 0 1 1.047-.349 1.765 1.765 0 0 1 .877 3.3v.007c-2.708 1.485-4.3 3.22-4.3 5.011v5.645A3.762 3.762 0 0 0 7.52 56.44h45.157a3.762 3.762 0 0 0 3.763-3.761v-5.645c0-5.195-11.793-9.406-26.337-9.406a14.976 14.976 0 0 1-9.18-3.143 15.182 15.182 0 0 1-4.211-5.062c-.053-.1-.1-.206-.15-.311a14.597 14.597 0 0 1-.658-1.585 13.805 13.805 0 0 1-.342-1.131c-.041-.158-.087-.315-.124-.478-.09-.392-.158-.79-.216-1.194-.022-.155-.053-.306-.07-.461a14.842 14.842 0 0 1-.1-1.688V11.289A11.289 11.289 0 0 1 26.34 0h7.523a11.289 11.289 0 0 1 11.288 11.289v11.288a14.856 14.856 0 0 1-1.858 7.145 1.874 1.874 0 1 1-3.443-1.434l-.022-.012a11.239 11.239 0 0 0 1.522-4.928 7.388 7.388 0 0 0 .039-.771V11.289a7.525 7.525 0 0 0-7.525-7.526H26.34a7.525 7.525 0 0 0-7.525 7.526v11.287a7.42 7.42 0 0 0 .039.771A11.275 11.275 0 0 0 29.601 33.84a4.328 4.328 0 0 0 .5.024 66.379 66.379 0 0 1 9.176.626c.746.1 1.475.22 2.2.349.018 0 .039.007.055.009.691.124 1.367.262 2.03.407l.231.051c1.318.3 2.582.632 3.78 1 .058.02.119.034.174.053.583.185 1.153.381 1.7.584l.174.065q.781.291 1.518.606a28.73 28.73 0 0 1 1.606.741c.061.028.119.061.176.089.47.238.929.485 1.359.739.01 0 .02.015.031.019a19.795 19.795 0 0 1 1.369.887c.373.265.727.531 1.056.8l.107.09c.324.276.632.555.913.84l.043.041a11.229 11.229 0 0 1 .747.86c.051.068.107.13.155.2a9.445 9.445 0 0 1 .584.877c.018.037.04.073.061.111a7.4 7.4 0 0 1 .409.87c.017.044.04.087.053.131a6.293 6.293 0 0 1 .267.943l.031.186a5.856 5.856 0 0 1 .092.984v5.645a7.523 7.523 0 0 1-7.521 7.533zM16.932 37.628a1.882 1.882 0 1 1-1.88-1.883 1.879 1.879 0 0 1 1.88 1.883z" fill-rule="evenodd"/></symbol><symbol viewBox="0 0 26.195 18.009" id="Significon-Video" xmlns="http://www.w3.org/2000/svg"><path d="M5.73 6.549a.819.819 0 1 1 .819-.819.819.819 0 0 1-.819.819zm4.912 0H9a.819.819 0 0 1 0-1.637h2.047a2.046 2.046 0 0 1 2.047 2.047v4.093a2.046 2.046 0 0 1-2.047 2.047H6.958a2.046 2.046 0 0 1-2.047-2.047V9a.819.819 0 1 1 1.637 0v1.637a.819.819 0 0 0 .819.819h3.274a.819.819 0 0 0 .819-.819V7.363a.819.819 0 0 0-.819-.819zm13.1 9.823a2.467 2.467 0 0 1-.5-.05 3.264 3.264 0 0 1-1.7-.8.819.819 0 1 1 1.034-1.259 1.628 1.628 0 0 0 .987.457.828.828 0 0 0 .174.02.819.819 0 0 0 .819-.819V4.098a.819.819 0 0 0-.819-.819V3.27a1.644 1.644 0 0 0-1.173.483l-4.083 4.083a1.641 1.641 0 0 0-.474 1.272v5.632a3.275 3.275 0 0 1-3.274 3.274H3.274A3.275 3.275 0 0 1 0 14.735V3.274A3.275 3.275 0 0 1 3.274 0h11.461a3.275 3.275 0 0 1 3.274 3.274v.819a.819.819 0 1 1-1.637 0v-.819a1.637 1.637 0 0 0-1.637-1.637H3.274a1.637 1.637 0 0 0-1.637 1.637v11.461a1.637 1.637 0 0 0 1.637 1.637h11.461a1.637 1.637 0 0 0 1.637-1.637V9a3.284 3.284 0 0 1 .964-2.328L21.412 2.6a3.272 3.272 0 0 1 1.832-.916 2.457 2.457 0 0 1 2.951 2.405v9.823a2.456 2.456 0 0 1-2.456 2.456zm-3.684-4.5a.819.819 0 1 1-.819.819.819.819 0 0 1 .819-.819z" fill-rule="evenodd"/></symbol><symbol viewBox="0 0 16.141 8.64" id="arrow-bottom" xmlns="http://www.w3.org/2000/svg"><path data-name="Path 11195" d="M.167.974A.557.557 0 0 1 0 .574a.557.557 0 0 1 .167-.4.571.571 0 0 1 .807 0l7.1 7.1L15.167.167a.571.571 0 0 1 .807.807l-7.5 7.5a.571.571 0 0 1-.807 0z"/></symbol><symbol viewBox="0 0 31.992 17.127" id="arrow-to-bottom" xmlns="http://www.w3.org/2000/svg"><path d="M.332 1.931a1.1 1.1 0 0 1-.331-.8 1.1 1.1 0 0 1 .331-.8 1.132 1.132 0 0 1 1.6 0L15.993 14.4 30.062.331a1.131 1.131 0 0 1 1.6 1.6L16.793 16.8a1.132 1.132 0 0 1-1.6 0z"/></symbol><symbol viewBox="0 0 16.141 8.64" id="arrow-top" xmlns="http://www.w3.org/2000/svg"><path data-name="Path 11195" d="M15.974 7.666a.557.557 0 0 1 .167.4.557.557 0 0 1-.167.4.571.571 0 0 1-.807 0l-7.1-7.1L.974 8.473a.571.571 0 0 1-.807-.807l7.5-7.5a.571.571 0 0 1 .807 0z"/></symbol><symbol viewBox="0 0 33.414 31.584" id="chat-arrow" xmlns="http://www.w3.org/2000/svg"><defs><clipPath id="aya"><path data-name="Clip 2" d="M0 0h33.414v31.584H0z"/></clipPath></defs><g data-name="Group 3" clip-path="url(#aya)"><path data-name="Fill 1" d="M32.722 14.688L1.7.11A1.186 1.186 0 0 0 .268.45a1.225 1.225 0 0 0-.029 1.492l10.2 13.85-10.2 13.849a1.229 1.229 0 0 0 .026 1.492 1.182 1.182 0 0 0 .928.452 1.166 1.166 0 0 0 .5-.112l31.026-14.579a1.224 1.224 0 0 0 0-2.206"/></g></symbol><symbol viewBox="0 0 26.556 26.299" id="comment" xmlns="http://www.w3.org/2000/svg"><path d="M23.9 0H2.656A2.806 2.806 0 0 0 0 2.869v15.779a2.806 2.806 0 0 0 2.656 2.869H9.1l3.851 4.623a.421.421 0 0 0 .658 0l3.851-4.623h6.44a2.806 2.806 0 0 0 2.656-2.869V2.869A2.806 2.806 0 0 0 23.9 0z"/></symbol><symbol viewBox="0 0 12.834 24.769" id="dollar-symbol" xmlns="http://www.w3.org/2000/svg"><path data-name="Path 8505" d="M9.862 11.251A29.818 29.818 0 0 0 6.834 9.88a6.8 6.8 0 0 1-1.663-.931 1.446 1.446 0 0 1 .358-2.573 2.919 2.919 0 0 1 1.018-.21 7.727 7.727 0 0 1 3.826.757c.6.292.8.2 1.008-.43.215-.665.394-1.34.593-2.01a.7.7 0 0 0-.455-.936 9.727 9.727 0 0 0-2.415-.721c-1.095-.169-1.095-.174-1.1-1.274C8 0 8 0 6.448 0c-.225 0-.45-.005-.675 0-.726.02-.849.148-.87.88-.01.327 0 .655-.005.987-.005.972-.01.957-.941 1.294A5.19 5.19 0 0 0 .166 7.97a4.928 4.928 0 0 0 2.788 4.711 30.821 30.821 0 0 0 3.484 1.565 5.175 5.175 0 0 1 1.269.747 1.739 1.739 0 0 1-.414 3.049 4.172 4.172 0 0 1-2.236.292 9.978 9.978 0 0 1-3.407-1.018c-.629-.327-.813-.24-1.028.44-.184.588-.348 1.182-.512 1.775-.22.8-.138.987.624 1.361a10.879 10.879 0 0 0 3.069.88c.829.133.854.169.865 1.028.005.389.005.783.01 1.171a.7.7 0 0 0 .747.788c.573.01 1.151.01 1.724-.005a.656.656 0 0 0 .711-.742c0-.532.026-1.069.005-1.6a.846.846 0 0 1 .732-.962 5.781 5.781 0 0 0 3.013-1.934 5.437 5.437 0 0 0-1.748-8.265z"/></symbol><symbol viewBox="0 0 73.6 73.6" id="email" xmlns="http://www.w3.org/2000/svg"><path d="M36.8 0C16.5 0 0 16.5 0 36.8s16.5 36.8 36.8 36.8c20.3 0 36.8-16.5 36.8-36.8C73.6 16.5 57.1 0 36.8 0zm0 12.9l21.8 13.6H15l21.8-13.6zm22.1 35.3c0 2.2-1.8 3.9-3.9 3.9H18.7c-2.2 0-3.9-1.8-3.9-3.9V27.4c0-.2 0-.5.1-.7l20.8 13h.2c.1.1.3.1.5.2.2 0 .3.1.5.1s.3 0 .5-.1c.2 0 .3-.1.5-.2h.2l20.8-13c0 .2.1.4.1.7l-.1 20.8z"/></symbol><symbol viewBox="0 0 54.243 54.243" id="facebook" xmlns="http://www.w3.org/2000/svg"><path data-name="Path 11245" d="M47.462 0H6.78A6.787 6.787 0 0 0 0 6.78v40.682a6.787 6.787 0 0 0 6.78 6.78h20.341V35.6h-6.78v-8.479h6.78v-6.78a10.17 10.17 0 0 1 10.171-10.17h6.78v8.475h-3.39c-1.871 0-3.39-.176-3.39 1.7v6.78h8.475l-3.39 8.474h-5.085v18.643h10.17a6.787 6.787 0 0 0 6.78-6.78V6.78A6.787 6.787 0 0 0 47.462 0z"/></symbol><symbol viewBox="0 0 27.841 26.515" id="heart" xmlns="http://www.w3.org/2000/svg"><path d="M13.92 26.515L11.971 24.5C4.733 17.869 0 13.4 0 7.926A7.684 7.684 0 0 1 7.656 0a8.253 8.253 0 0 1 6.264 3.026A8.253 8.253 0 0 1 20.184 0a7.684 7.684 0 0 1 7.656 7.926c0 5.476-4.733 9.943-11.971 16.572z"/></symbol><symbol id="instagram" viewBox="0 0 71.7 71.7" xml:space="preserve" xmlns="http://www.w3.org/2000/svg"><style>.best0{fill:#fff}</style><path id="bePath_10972" class="best0" d="M42.2 31.2c-2.5-3.5-7.4-4.4-10.9-1.9-.7.5-1.4 1.1-1.9 1.9-1 1.3-1.5 3-1.5 4.6 0 4.3 3.5 7.9 7.9 7.9 4.3 0 7.8-3.5 7.8-7.9.1-1.6-.4-3.2-1.4-4.6z"/><path id="bePath_10973" class="best0" d="M47.1 31.3c.6 1.4.9 3 .9 4.6 0 6.8-5.5 12.2-12.2 12.2-6.7 0-12.2-5.5-12.2-12.2 0-1.6.3-3.1.9-4.6h-6.9v18.3c.1 2.5 2 4.4 4.5 4.5h27.4C52 54 54 52 54 49.5V31.3h-6.9z"/><path id="bePath_10974" class="best0" d="M52 18.7h-6.6v7.6h7.5v-7.6H52z"/><path id="bePath_10975-2" class="best0" d="M53.7 0H18C8.1 0 0 8.1 0 18v35.8c0 9.9 8.1 17.9 18 17.9h35.8c9.9 0 18-8.1 18-18V18c-.2-9.9-8.2-18-18.1-18zM58 31.2v18.3c.1 4.6-3.6 8.4-8.2 8.5H22.1c-4.6.1-8.4-3.6-8.5-8.2V22.1c-.1-4.6 3.6-8.4 8.2-8.5h27.6c4.6-.1 8.4 3.6 8.5 8.2v.2c.1.1.1 9.2.1 9.2z"/></symbol><symbol id="instagram-2" viewBox="0 0 71.7 71.7" xml:space="preserve" xmlns="http://www.w3.org/2000/svg"><style>.bfst0{fill:#fff}</style><path id="bfPath_10972" class="bfst0" d="M42.2 31.2c-2.5-3.5-7.4-4.4-10.9-1.9-.7.5-1.4 1.1-1.9 1.9-1 1.3-1.5 3-1.5 4.6 0 4.3 3.5 7.9 7.9 7.9 4.3 0 7.8-3.5 7.8-7.9.1-1.6-.4-3.2-1.4-4.6z"/><path id="bfPath_10973" class="bfst0" d="M47.1 31.3c.6 1.4.9 3 .9 4.6 0 6.8-5.5 12.2-12.2 12.2-6.7 0-12.2-5.5-12.2-12.2 0-1.6.3-3.1.9-4.6h-6.9v18.3c.1 2.5 2 4.4 4.5 4.5h27.4C52 54 54 52 54 49.5V31.3h-6.9z"/><path id="bfPath_10974" class="bfst0" d="M52 18.7h-6.6v7.6h7.5v-7.6H52z"/><path id="bfPath_10975-2" class="bfst0" d="M53.7 0H18C8.1 0 0 8.1 0 18v35.8c0 9.9 8.1 17.9 18 17.9h35.8c9.9 0 18-8.1 18-18V18c-.2-9.9-8.2-18-18.1-18zM58 31.2v18.3c.1 4.6-3.6 8.4-8.2 8.5H22.1c-4.6.1-8.4-3.6-8.5-8.2V22.1c-.1-4.6 3.6-8.4 8.2-8.5h27.6c4.6-.1 8.4 3.6 8.5 8.2v.2c.1.1.1 9.2.1 9.2z"/></symbol><symbol viewBox="0 0 21 39.226" id="left-arrow" xmlns="http://www.w3.org/2000/svg"><path data-name="Path 11195" d="M18.633.406A1.354 1.354 0 0 1 19.614 0a1.354 1.354 0 0 1 .981.406 1.388 1.388 0 0 1 0 1.961L3.348 19.613l17.246 17.246a1.387 1.387 0 0 1-1.961 1.961L.406 20.594a1.388 1.388 0 0 1 0-1.961z"/></symbol><symbol viewBox="0 0 104.456 67.695" id="mastercard" xmlns="http://www.w3.org/2000/svg"><g data-name="Group 1174"><g data-name="Group 1173"><path data-name="Path 11207" d="M27.835 29.356a9.857 9.857 0 0 0-3.457.629l-.414 2.46a9.005 9.005 0 0 1 3.111-.5c1.063 0 1.84.118 1.84.982a1.849 1.849 0 0 1-.094.719s-.838-.068-1.226-.068c-2.469 0-5.062 1.05-5.062 4.23 0 2.5 1.7 3.076 2.756 3.076a3.709 3.709 0 0 0 2.928-1.309l-.094 1.091h2.513l1.121-7.86c-.003-3.343-2.908-3.45-3.922-3.45zm-1.409 9.132a1.039 1.039 0 0 1-1.117-1.078c0-.78.424-1.72 2.515-1.72a1.791 1.791 0 0 1 .621.067c.056.481-.296 2.731-2.019 2.731z"/></g></g><g data-name="Group 1176"><g data-name="Group 1175"><path data-name="Path 11208" d="M36.913 31.991c.4 0 1.949.128 1.949.128l.361-2.519a13.314 13.314 0 0 0-2.634-.224c-2.112 0-4.254.843-4.254 3.727 0 3.27 3.573 2.937 3.573 4.317 0 .917-1 .993-1.768.993a9.133 9.133 0 0 1-2.536-.436l-.381 2.5a9.218 9.218 0 0 0 3.2.348c.642 0 4.317.166 4.317-3.627.001-3.545-3.399-2.845-3.399-4.275 0-.71.555-.932 1.572-.932z"/></g></g><g data-name="Group 1178"><g data-name="Group 1177"><path data-name="Path 11209" d="M42.918 32.313h1.511l.364-2.685h-1.425l.29-1.664h-2.852c-.063.061-1.685 9.388-1.685 10.52a2.118 2.118 0 0 0 2.275 2.42 7.356 7.356 0 0 0 2.14-.375l.357-2.426c-.2 0-.483.085-.736.085-.993 0-1.1-.531-1.039-.921z"/></g></g><g data-name="Group 1180"><g data-name="Group 1179"><path data-name="Path 11210" d="M54.878 16.734h-5.09a37.799 37.799 0 0 0-1.91 2.87h9.086a27.145 27.145 0 0 0-2.086-2.87z"/></g></g><g data-name="Group 1182"><g data-name="Group 1181"><path data-name="Path 11211" d="M94.618 49.021a1.473 1.473 0 0 0-.139-.185.2.2 0 0 0-.08-.048.291.291 0 0 0 .194-.085.255.255 0 0 0 .072-.178.249.249 0 0 0-.043-.137.224.224 0 0 0-.118-.091.7.7 0 0 0-.235-.028h-.319v.934h.152v-.4h.087a.177.177 0 0 1 .118.033.84.84 0 0 1 .159.216l.081.148h.187zm-.337-.337h-.185v-.281h.174a.444.444 0 0 1 .148.017.146.146 0 0 1 .065.048.127.127 0 0 1 .022.072.131.131 0 0 1-.046.105.31.31 0 0 1-.177.039z"/></g></g><g data-name="Group 1184"><g data-name="Group 1183"><path data-name="Path 11212" d="M58.505 22.421h-12.22c-.78 1.478-1.3 2.595-1.444 2.872h14.821a27.068 27.068 0 0 0-1.157-2.872z"/></g></g><g data-name="Group 1186"><g data-name="Group 1185"><path data-name="Path 11213" d="M19.036 27.083l-2.813 8.341-.146-8.341h-4.165L9.63 40.674h2.754l1.739-10.245.255 10.246h1.966l3.667-10.246-1.628 10.245h2.922l2.251-13.591z"/></g></g><g data-name="Group 1188"><g data-name="Group 1187"><path data-name="Path 11214" d="M74.105 29.356a9.848 9.848 0 0 0-3.458.629l-.416 2.46a9.018 9.018 0 0 1 3.111-.5c1.063 0 1.842.118 1.842.982a1.786 1.786 0 0 1-.1.719s-.836-.068-1.228-.068c-2.467 0-5.058 1.05-5.058 4.23 0 2.5 1.7 3.076 2.756 3.076a3.718 3.718 0 0 0 2.928-1.309l-.094 1.091h2.511l1.121-7.86c.006-3.343-2.905-3.45-3.915-3.45zm-1.406 9.132a1.038 1.038 0 0 1-1.117-1.078c0-.78.424-1.72 2.515-1.72a1.813 1.813 0 0 1 .621.067c.055.481-.302 2.731-2.019 2.731z"/></g></g><g data-name="Group 1190"><g data-name="Group 1189"><path data-name="Path 11215" d="M94.709 39.423a.78.78 0 0 0-.325-.322.862.862 0 0 0-.425-.113.932.932 0 0 0-.425.113.786.786 0 0 0-.324.322.874.874 0 0 0-.117.433.856.856 0 0 0 .117.429.828.828 0 0 0 .32.324.883.883 0 0 0 .429.115.869.869 0 0 0 .431-.115.877.877 0 0 0 .435-.753.852.852 0 0 0-.116-.433zm-.12.79a.7.7 0 0 1-.268.27.714.714 0 0 1-.716 0 .689.689 0 0 1-.27-.27.707.707 0 0 1-.1-.359.7.7 0 0 1 .1-.361.673.673 0 0 1 .27-.268.722.722 0 0 1 .355-.092.714.714 0 0 1 .351.092.662.662 0 0 1 .27.268.737.737 0 0 1 .1.361.72.72 0 0 1-.092.358z"/></g></g><g data-name="Group 1192"><g data-name="Group 1191"><path data-name="Path 11216" d="M94.252 40.149a1.16 1.16 0 0 0-.137-.185.213.213 0 0 0-.08-.048.286.286 0 0 0 .192-.085.257.257 0 0 0 .074-.178.241.241 0 0 0-.044-.137.262.262 0 0 0-.115-.091.716.716 0 0 0-.237-.028h-.324v.932h.152v-.4h.087a.2.2 0 0 1 .122.031.943.943 0 0 1 .159.22l.08.146h.187zm-.333-.342h-.183v-.283h.17a.549.549 0 0 1 .152.015.146.146 0 0 1 .061.05.12.12 0 0 1 .024.076.137.137 0 0 1-.044.1.268.268 0 0 1-.18.042z"/></g></g><g data-name="Group 1194"><g data-name="Group 1193"><path data-name="Path 11217" d="M83.803 29.491c-1.278 0-2.227 1.744-2.227 1.744l.255-1.6h-2.659l-1.781 11.06h2.929c.834-4.727.986-8.561 2.966-7.86a10.974 10.974 0 0 1 1.065-3.307 3.258 3.258 0 0 0-.548-.037z"/></g></g><g data-name="Group 1196"><g data-name="Group 1195"><path data-name="Path 11218" d="M91.164 27.098l-.616 3.819a3.766 3.766 0 0 0-2.756-1.485c-2.617 0-4.8 3.155-4.8 6.776 0 2.34 1.163 4.631 3.538 4.631a3.566 3.566 0 0 0 2.658-1.193l-.124 1.019h2.776l2.182-13.573zm-3.619 10.967c-1.028 0-1.509-.862-1.509-2.216 0-2.214.993-3.673 2.249-3.673 1.025 0 1.552.706 1.552 2.367-.001 1.508-.746 3.522-2.292 3.522z"/></g></g><g data-name="Group 1198"><path d="M101.767 0H2.689A2.688 2.688 0 0 0 0 2.689v62.317a2.688 2.688 0 0 0 2.689 2.689h99.078a2.688 2.688 0 0 0 2.689-2.689V2.689A2.688 2.688 0 0 0 101.767 0zm-6.69 49.156a.8.8 0 0 1-.32.324.867.867 0 0 1-.862 0 .833.833 0 0 1-.322-.324.867.867 0 0 1-.115-.429.879.879 0 0 1 .117-.433.8.8 0 0 1 .324-.322.913.913 0 0 1 .427-.111.9.9 0 0 1 .424.111.786.786 0 0 1 .324.322.882.882 0 0 1 .115.433.84.84 0 0 1-.112.429zm1.938-15.308A26.8 26.8 0 0 1 52.222 53.73 26.8 26.8 0 1 1 34.079 7.039h.172a26.7 26.7 0 0 1 17.973 6.922 26.807 26.807 0 0 1 44.8 19.87s-.008.01-.008.017z" data-name="Group 1197"/></g><g data-name="Group 1200"><g data-name="Group 1199"><path data-name="Path 11220" d="M49.478 50.798a26.678 26.678 0 0 0 2.741 2.93c.022-.02.046-.039.068-.057h.006a26.8 26.8 0 0 0 2.722-2.87z"/></g></g><g data-name="Group 1202"><g data-name="Group 1201"><path data-name="Path 11221" d="M53.129 36.084a20.49 20.49 0 0 0 .375-2.6c0-1.881-.936-4.174-4.069-4.174-2.87 0-5 3.094-5 6.59 0 4.034 2.661 4.992 4.931 4.992a7.239 7.239 0 0 0 3.015-.47l.5-2.752a8.874 8.874 0 0 1-3.031.7c-3.065 0-2.528-2.286-2.528-2.286zm-3.684-4.215c1.611 0 1.313 1.811 1.313 1.955H47.59c0-.186.299-1.955 1.855-1.955z"/></g></g><g data-name="Group 1204"><g data-name="Group 1203"><path data-name="Path 11222" d="M66.514 29.687a5.082 5.082 0 0 1 2.619.816l.466-3.024a10.235 10.235 0 0 0-3.214-.7c-3.294 0-6.5 2.859-6.5 8.228 0 3.56 1.729 5.911 5.136 5.911a13.226 13.226 0 0 0 2.5-.39l.51-3.114a6.855 6.855 0 0 1-2.36.7c-2.027 0-2.839-1.548-2.839-3.205-.002-3.37 1.74-5.222 3.682-5.222z"/></g></g><g data-name="Group 1206"><g data-name="Group 1205"><path data-name="Path 11223" d="M45.899 45.167a26.509 26.509 0 0 0 1.583 2.87h9.512a26.842 26.842 0 0 0 1.561-2.87z"/></g></g><g data-name="Group 1208"><g data-name="Group 1207"><path data-name="Path 11224" d="M59.839 29.494c-1.278 0-2.225 1.744-2.225 1.744l.257-1.6h-2.662l-1.781 11.06h2.93c.83-4.725.986-8.561 2.966-7.86a10.977 10.977 0 0 1 1.062-3.31 2.891 2.891 0 0 0-.547-.034z"/></g></g></symbol><symbol viewBox="0 0 79.949 89.64" id="melody" xmlns="http://www.w3.org/2000/svg"><path d="M43.853 64.061c0-9.269-7.784-16.786-17.382-16.786S9.09 54.792 9.09 64.061s7.81 16.787 17.381 16.787a17.588 17.588 0 0 0 6.052-1.061 4.891 4.891 0 0 1 1.761-.32 4.643 4.643 0 0 1 1.038.133 4.411 4.411 0 0 1 .428 8.421 26.819 26.819 0 0 1-9.279 1.62C11.863 89.64 0 78.165 0 64.065s11.863-25.608 26.471-25.608a27.042 27.042 0 0 1 11.191 2.309 4.361 4.361 0 0 0 6.244-3.931c-.027-10.571-.027-26.5 0-32.533.027-2.5 1.177-4.3 4.563-4.3 0 0 23.107-.242 31.47 21.407a.117.117 0 0 1 0 .095c-.272.379-1.209-2.635-12.676-8.889-3.405-1.86-5.672-3.219-10.2-4.135a3.231 3.231 0 0 0-4.05 3.27v2.57c0 .737-.048 3.978-.048 5.911V68.8a3.35 3.35 0 0 1-3.356 3.347 5.743 5.743 0 0 1-5.754-5.7z"/></symbol><symbol viewBox="0 0 100.72 145.406" id="melody-clean" xmlns="http://www.w3.org/2000/svg"><path data-name="Path 11199" d="M96.745 47.452c-4.6-9.43-12.494-14.709-20.134-19.821-5.693-3.814-11.063-7.416-14.866-12.573l-.7-.951c-2.237-3.009-4.787-6.421-5.179-9.284A5.485 5.485 0 0 0 49.949.002a5.588 5.588 0 0 0-5.2 5.582v99.664a32.358 32.358 0 0 0-16.779-4.586c-15.414 0-27.964 10.034-27.964 22.371s12.544 22.374 27.958 22.374 27.964-10.034 27.964-22.371V57.844c8.4 3.21 22.148 11.387 25.929 30.481a30.228 30.228 0 0 1-2.159 3.054 5.588 5.588 0 0 0 8.389 7.383c7-7.953 11.823-20.548 12.573-32.864a37.12 37.12 0 0 0-3.915-18.446z"/></symbol><symbol viewBox="0 0 24.986 21.027" id="multiple-users-silhouette" xmlns="http://www.w3.org/2000/svg"><path data-name="Path 8504" d="M15.078 3.609a4.54 4.54 0 0 1 2.113 3.373 3.663 3.663 0 1 0-2.113-3.373zm-2.4 7.5a3.664 3.664 0 1 0-3.666-3.657 3.664 3.664 0 0 0 3.665 3.66zm1.554.25h-3.11a4.7 4.7 0 0 0-4.692 4.693v3.8l.01.06.262.082a21.358 21.358 0 0 0 6.38 1.029 13.1 13.1 0 0 0 5.57-1.046l.245-.124h.026v-3.801a4.7 4.7 0 0 0-4.691-4.69zm6.063-3.783h-3.086a4.516 4.516 0 0 1-1.394 3.146A5.575 5.575 0 0 1 19.8 16.06v1.172a12.626 12.626 0 0 0 4.918-1.033l.245-.124h.026v-3.8a4.7 4.7 0 0 0-4.694-4.696zM6.247 7.329A3.64 3.64 0 0 0 8.2 6.764a4.535 4.535 0 0 1 1.7-2.892c0-.069.01-.137.01-.206A3.664 3.664 0 1 0 6.246 7.33zm3.291 3.4a4.519 4.519 0 0 1-1.393-3.128c-.114-.008-.228-.017-.344-.017H4.692A4.7 4.7 0 0 0 0 12.27v3.8l.01.059.262.083a22 22 0 0 0 5.284.993V16.06a5.576 5.576 0 0 1 3.982-5.336z"/></symbol><symbol viewBox="0 0 104.446 67.688" id="paypal-logo-in-rectangular-black-card" xmlns="http://www.w3.org/2000/svg"><g data-name="Group 1160"><g data-name="Group 1159"><path data-name="Path 11200" d="M22.415 27.595a3.468 3.468 0 0 0-1.883-.418h-.708a1.093 1.093 0 0 0-1.03.821l-.653 2.811a.647.647 0 0 0 .658.827h.529a4.536 4.536 0 0 0 2.737-.719 2.33 2.33 0 0 0 .973-2.034 1.43 1.43 0 0 0-.623-1.288z"/></g></g><g data-name="Group 1162"><g data-name="Group 1161"><path data-name="Path 11201" d="M33.973 34.073c-.128 0-1.106.115-1.6.176a8.177 8.177 0 0 0-1.426.322l-.917.625a1.63 1.63 0 0 0-.316 1.056l.418.81a2.584 2.584 0 0 0 1.233.237 3.028 3.028 0 0 0 1.132-.248l.848-.442.337-.448c.133-.521.409-1.681.44-1.825z"/></g></g><g data-name="Group 1164"><g data-name="Group 1163"><path data-name="Path 11202" d="M101.757 0H2.689A2.688 2.688 0 0 0 0 2.689v62.309a2.689 2.689 0 0 0 2.689 2.691h99.069A2.688 2.688 0 0 0 104.447 65V2.689A2.688 2.688 0 0 0 101.757 0zM24.935 32.835a10.248 10.248 0 0 1-6.169 1.626h-.618a1.107 1.107 0 0 0-1.037.821l-.743 3.214a1.112 1.112 0 0 1-1.039.825h-2.164a.641.641 0 0 1-.653-.825l3.042-13.246a1.135 1.135 0 0 1 1.041-.827h4.52a15.285 15.285 0 0 1 2.554.2 5.574 5.574 0 0 1 1.883.692 3.2 3.2 0 0 1 1.182 1.274 4 4 0 0 1 .416 1.951 5.064 5.064 0 0 1-2.215 4.295zm13.429-1.69l-.081.557-1.583 6.827a1.119 1.119 0 0 1-.93.81l-.03.011h-2.008l-.007-.007a.642.642 0 0 1-.579-.81v-.013l.081-.348-.011-.013-.816.538-.888.5-1.047.359a6.036 6.036 0 0 1-1.359.124 3.306 3.306 0 0 1-2.28-.777 2.67 2.67 0 0 1-.88-2.053 4.009 4.009 0 0 1 .618-2.264 4.246 4.246 0 0 1 1.862-1.468 9.94 9.94 0 0 1 2.744-.754 36.915 36.915 0 0 1 3.194-.346l.311-.192.039-.305a1 1 0 0 0-.653-.984 5.354 5.354 0 0 0-1.968-.277 9.316 9.316 0 0 0-2.029.272 11.692 11.692 0 0 0-1.294.383c-.166.057-.568.085-.418-.61l.264-1.089a1.27 1.27 0 0 1 .952-1c.4-.089.46-.105 1.11-.205a17.182 17.182 0 0 1 2.619-.2 8.212 8.212 0 0 1 3.869.69 2.287 2.287 0 0 1 1.233 2.14zm3.478 13.452h-2.241c-.466 0-.619-.37-.335-.825l1.918-3.343s.153-.19.017-1.282c-.3-1.971-1.768-10.352-1.768-10.352a.638.638 0 0 1 .647-.825h1.94a1.19 1.19 0 0 1 1.178.849l.965 5.812h.359c.3-.534 3.4-5.853 3.4-5.853a1.881 1.881 0 0 1 1.361-.827s2.084.006 2.6 0c.769-.011-.059 1.235-.059 1.235L43.2 43.776a1.812 1.812 0 0 1-1.357.821zm22.407-11.7a10.321 10.321 0 0 1-6.184 1.624h-.618a1.116 1.116 0 0 0-1.039.819l-.732 3.22a1.118 1.118 0 0 1-1.039.814l-2.169.006a.64.64 0 0 1-.653-.821L54.86 25.3a1.131 1.131 0 0 1 1.036-.823h4.525a15.077 15.077 0 0 1 2.543.2 5.343 5.343 0 0 1 1.884.69 3.32 3.32 0 0 1 1.191 1.28 4.154 4.154 0 0 1 .416 1.949 5.137 5.137 0 0 1-2.204 4.297zm13.422-1.738l-.08.56-1.581 6.818a1.116 1.116 0 0 1-.923.814l-.03.011h-2.011v-.011a.63.63 0 0 1-.577-.81v-.006l.009-.007.072-.348-.02-.019-.81.546-.893.494-1.045.353a6.223 6.223 0 0 1-1.356.128 3.326 3.326 0 0 1-2.278-.782 2.653 2.653 0 0 1-.886-2.055 3.981 3.981 0 0 1 .619-2.258 4.291 4.291 0 0 1 1.86-1.47 10.092 10.092 0 0 1 2.75-.754 35.508 35.508 0 0 1 3.2-.344l.311-.2.033-.305a.99.99 0 0 0-.655-.982 5.3 5.3 0 0 0-1.964-.279 9.655 9.655 0 0 0-2.032.272 12.366 12.366 0 0 0-1.285.383c-.181.054-.571.085-.423-.61l.264-1.087a1.258 1.258 0 0 1 .951-1c.4-.087.466-.107 1.113-.2a16.461 16.461 0 0 1 2.619-.209 8.237 8.237 0 0 1 3.867.693 2.282 2.282 0 0 1 1.237 2.136zm6.935-5.746l-2.9 13.132-.1.155a1.1 1.1 0 0 1-.936.669h-2.012l-.037-.046a.616.616 0 0 1-.542-.771v-.009l.087-.379 2.711-12.32.1-.429.109-.168a1.1 1.1 0 0 1 .932-.656h1.936a.64.64 0 0 1 .655.819zm3.843-1.42h-.725v.963l.006.259.05.174.115.111.222.035.181-.026.135-.041h.017v.316l-.216.043-.205.017-.492-.176-.168-.555v-1.124h-.244v-.3h.244v-.6h.357v.6h.725zm3.5.442v1.363H91.6v-1.2l-.022-.257-.046-.2-.122-.12-.235-.043-.294.076-.3.19.006.1v1.459h-.351v-1.2l-.015-.261-.05-.2-.118-.12-.239-.043-.29.072-.294.183v1.572h-.348v-2.115h.348v.235l.337-.215.348-.078.366.087.226.251.388-.261.379-.078.512.209.166.588z"/></g></g><g data-name="Group 1166"><g data-name="Group 1165"><path data-name="Path 11203" d="M73.282 34.084c-.128 0-1.1.113-1.59.176a7.826 7.826 0 0 0-1.426.322 2.2 2.2 0 0 0-.927.625 1.674 1.674 0 0 0-.311 1.058l.423.808a2.474 2.474 0 0 0 1.232.239 3.041 3.041 0 0 0 1.124-.246l.845-.438.348-.448c.129-.527.411-1.683.433-1.827z"/></g></g><g data-name="Group 1168"><g data-name="Group 1167"><path data-name="Path 11204" d="M61.713 27.645a3.473 3.473 0 0 0-1.879-.42h-.7a1.107 1.107 0 0 0-1.036.823l-.658 2.816a.648.648 0 0 0 .664.825h.538a4.614 4.614 0 0 0 2.733-.71 2.381 2.381 0 0 0 .973-2.042 1.465 1.465 0 0 0-.635-1.292z"/></g></g></symbol><symbol viewBox="0 0 15.775 21.775" id="person-ico" xmlns="http://www.w3.org/2000/svg"><defs><clipPath id="bma"><path d="M0-55.3h15.775v21.775H0z" transform="translate(0 55.3)"/></clipPath></defs><g data-name="Group 14" clip-path="url(#bma)"><g data-name="Group 12"><path data-name="Path 8507" d="M7.888 9.254a4.627 4.627 0 0 0 4.626-4.627A4.627 4.627 0 0 0 7.888.003 4.628 4.628 0 0 0 3.26 4.63a4.628 4.628 0 0 0 4.628 4.627"/></g><g data-name="Group 13"><path data-name="Path 8508" d="M9.851 9.57H5.924a5.932 5.932 0 0 0-5.925 5.925v4.8l.012.075.331.1a26.968 26.968 0 0 0 8.056 1.3 16.543 16.543 0 0 0 7.034-1.321l.309-.156h.033v-4.8A5.93 5.93 0 0 0 9.851 9.57"/></g></g></symbol><symbol viewBox="0 0 132.155 169.588" id="play-button" xmlns="http://www.w3.org/2000/svg"><path data-name="Path 11238" d="M125.107 98.205l-99.6 68.512a16.274 16.274 0 0 1-25.5-13.4V16.275a16.274 16.274 0 0 1 25.5-13.4l99.6 68.519a16.274 16.274 0 0 1 0 26.812z"/></symbol><symbol viewBox="0 0 21 39.226" id="right-arrow" xmlns="http://www.w3.org/2000/svg"><path data-name="Path 11195" d="M2.367 38.82a1.388 1.388 0 0 1-1.961 0 1.388 1.388 0 0 1 0-1.961l17.246-17.246L.406 2.367A1.387 1.387 0 0 1 2.367.406l18.227 18.226a1.388 1.388 0 0 1 0 1.961z"/></symbol><symbol viewBox="0 0 24.155 23.751" id="sharing-interface" xmlns="http://www.w3.org/2000/svg"><g data-name="Group 11"><path data-name="Path 8506" d="M20.019 15.479a4.117 4.117 0 0 0-2.995 1.29l-8.8-4.311a3.765 3.765 0 0 0 0-1.222l8.791-4.263a4.132 4.132 0 1 0-1.131-2.836 4.165 4.165 0 0 0 .049.6L7.142 9.002a4.136 4.136 0 1 0-.011 5.684l8.8 4.311a4.081 4.081 0 0 0-.052.618 4.136 4.136 0 1 0 4.137-4.136z"/></g></symbol><symbol viewBox="0 0 78.27 57.479" id="tick" xmlns="http://www.w3.org/2000/svg"><path d="M77.122 1.146a3.913 3.913 0 0 0-5.534 0L24.7 48.032 6.68 30.01a3.913 3.913 0 0 0-5.534 5.534l20.789 20.789a3.915 3.915 0 0 0 5.534 0L77.122 6.68a3.913 3.913 0 0 0 0-5.534z"/></symbol><symbol viewBox="0 0 69.7 69.7" id="twitter-logo" xmlns="http://www.w3.org/2000/svg"><path d="M56.6 0H13.1C5.8 0 0 5.8 0 13.1v43.5c0 7.2 5.8 13.1 13.1 13.1h43.5c7.2 0 13.1-5.8 13.1-13.1V13.1C69.7 5.8 63.8 0 56.6 0zm-4.4 27v1.1c0 11.3-8.6 24.4-24.4 24.4-4.7 0-9.2-1.3-13.1-3.9.7.1 1.4.1 2 .1 3.9 0 7.6-1.3 10.6-3.7-3.7-.1-6.9-2.5-8-6 .5.1 1.1.1 1.6.1.8 0 1.5-.1 2.3-.3-4-.8-6.9-4.3-6.9-8.4v-.1c1.2.7 2.5 1 3.9 1.1-3.8-2.5-4.9-7.5-2.7-11.4 4.4 5.4 10.8 8.6 17.7 9-1.1-4.6 1.8-9.2 6.4-10.3 3-.7 6.1.3 8.2 2.5 1.9-.4 3.8-1.1 5.4-2.1-.6 2-2 3.7-3.8 4.7 1.7-.2 3.4-.7 4.9-1.4-1 1.9-2.5 3.4-4.1 4.6z"/></symbol><symbol viewBox="0 0 104.437 67.682" id="visa-pay-logo" xmlns="http://www.w3.org/2000/svg"><g data-name="Group 1170"><g data-name="Group 1169"><path data-name="Path 11205" d="M101.748 0H2.689A2.687 2.687 0 0 0 0 2.689v62.305a2.687 2.687 0 0 0 2.689 2.689h99.06a2.687 2.687 0 0 0 2.689-2.689V2.689A2.687 2.687 0 0 0 101.748 0zM8.086 20.453h11.146c1.5.057 2.714.536 3.132 2.143l2.424 11.659c-2.382-6.1-8.121-11.172-16.8-13.273zm13.487 26.59l-6.439-22c4.628 2.962 8.571 7.663 9.959 10.934l.751 2.716 7.041-17.99H40.5L29.182 47.037zm24.527.018h-7.186l4.5-26.383H50.6zm12.511.4a22.758 22.758 0 0 1-8.01-1.409l1.011-5.9.926.42a15.067 15.067 0 0 0 6.77 1.385c2.065 0 4.279-.808 4.3-2.576.013-1.156-.926-1.98-3.726-3.275-2.729-1.261-6.342-3.376-6.3-7.165.039-5.128 5.046-8.706 12.152-8.706a18.558 18.558 0 0 1 6.44 1.108l-.971 5.719-.649-.305a13.266 13.266 0 0 0-5.381-1.01c-2.814 0-4.12 1.172-4.12 2.269-.009 1.227 1.53 2.045 4.047 3.265 4.148 1.882 6.065 4.166 6.039 7.167-.058 5.473-4.964 9.013-12.525 9.013zm31.157-.385s-.656-3.032-.875-3.953c-1.047 0-8.384-.011-9.208-.011-.279.712-1.511 3.964-1.511 3.964h-7.55L81.3 22.895c.758-1.718 2.043-2.189 3.767-2.189h5.555l5.819 26.364z"/></g></g><g data-name="Group 1172"><g data-name="Group 1171"><path data-name="Path 11206" d="M86.061 30.095l-.484-2.274c-.366.993-1 2.589-.956 2.518 0 0-2.273 5.856-2.864 7.374h5.971c-.286-1.321-1.667-7.618-1.667-7.618z"/></g></g></symbol><symbol viewBox="0 0 50.801 53.288" id="webi" xmlns="http://www.w3.org/2000/svg"><path data-name="Path 11254" d="M23.552 40.3l-4.591 2.627c-2.148 1.229-4.277 2.986-6.9 2.318a5.619 5.619 0 0 1-4.1-4.931 5.46 5.46 0 0 1 1.164-3.589l2.008-2.75c1.23-1.683.339-4.5-1.425-5.433-2.405-1.271-4.389.056-5.839 1.976-2.115 2.8-3.78 5.7-3.861 9.3a13.512 13.512 0 0 0 7.357 12.065 13.431 13.431 0 0 0 12.815-.465c1.553-.887 3.1-1.789 4.647-2.683q9.962-5.712 19.891-11.484a12.312 12.312 0 0 0-.321-21.459q-2.594-1.5-5.194-3-7.917-4.566-15.832-9.137c-1.307-.755-2.6-1.583-3.954-2.248C14.281-1.114 7.597-.3 3.849 4.275a13.069 13.069 0 0 0-2.333 12.743 13.721 13.721 0 0 0 6.137 7.064l21.744 12.843 7.9-4.558-22.332-13.189c-1.239-.732-2.481-1.458-3.716-2.2a5.509 5.509 0 0 1-1.988-1.957 4.9 4.9 0 0 1-.486-3.205 5.02 5.02 0 0 1 1.014-2.283 4.627 4.627 0 0 1 2.946-1.611 6.646 6.646 0 0 1 4.3 1.247c7.893 4.557 15.859 9.007 23.686 13.675a4.436 4.436 0 0 1 2.226 3.8 4.346 4.346 0 0 1-.839 2.563 7.6 7.6 0 0 1-2.591 1.874z"/></symbol><symbol viewBox="0 0 59.663 59.664" id="youtube" xmlns="http://www.w3.org/2000/svg"><path d="M56.381 3.282A10.773 10.773 0 0 0 48.477 0h-37.29a10.777 10.777 0 0 0-7.9 3.282 10.777 10.777 0 0 0-3.29 7.905v37.289a10.777 10.777 0 0 0 3.282 7.9 10.776 10.776 0 0 0 7.9 3.282h37.29a11.207 11.207 0 0 0 11.194-11.182V11.187a10.777 10.777 0 0 0-3.282-7.905zm-21.15 5.341h2.6v10.565a5.917 5.917 0 0 0 .038 1.01q.039.622.622.621.777 0 1.631-1.2V8.623h2.6v14.372h-2.6V21.44a4.34 4.34 0 0 1-2.99 1.748 1.636 1.636 0 0 1-1.67-1.049A7.242 7.242 0 0 1 35.231 20V8.623zm-9.827 4.661A5.755 5.755 0 0 1 26.22 9.9a3.487 3.487 0 0 1 3.029-1.476A3.614 3.614 0 0 1 32.278 9.9a5.752 5.752 0 0 1 .816 3.379v5.05a5.537 5.537 0 0 1-.816 3.379 3.612 3.612 0 0 1-3.03 1.476 3.487 3.487 0 0 1-3.029-1.476 5.756 5.756 0 0 1-.816-3.379zM18.412 3.69l2.059 7.575 1.98-7.575h2.913l-3.5 11.5v7.807h-2.867v-7.81a53.364 53.364 0 0 0-1.789-6.137l-.893-2.68-.933-2.68h3.03zm32.007 46.884a5.461 5.461 0 0 1-1.652 2.836 5.1 5.1 0 0 1-2.932 1.36q-5.321.582-16 .582t-16-.582a5.1 5.1 0 0 1-2.938-1.36 5.465 5.465 0 0 1-1.651-2.836 47.623 47.623 0 0 1-.777-10.1 48.626 48.626 0 0 1 .777-10.1 5.37 5.37 0 0 1 1.651-2.854 5.183 5.183 0 0 1 2.972-1.34 159.045 159.045 0 0 1 15.963-.58 159.752 159.752 0 0 1 16 .583 5.241 5.241 0 0 1 2.951 1.34 5.311 5.311 0 0 1 1.671 2.855 49.757 49.757 0 0 1 .738 10.1 47.63 47.63 0 0 1-.773 10.096z"/><path d="M11.653 33.289h3.03v16.43h2.874v-16.43h3.108V30.57h-9.012zM25.87 46.34q-.854 1.2-1.631 1.2-.544 0-.583-.582a5.847 5.847 0 0 1-.039-1.01V35.463h-2.564v11.265a6.6 6.6 0 0 0 .233 2.1 1.527 1.527 0 0 0 1.631 1.088 4.13 4.13 0 0 0 2.952-1.748v1.554h2.6V35.464h-2.6zm10.059-11.07a3.452 3.452 0 0 0-2.641 1.554V30.57h-2.6v19.15h2.6v-1.4a3.517 3.517 0 0 0 2.641 1.592 1.989 1.989 0 0 0 2.058-1.631 10.121 10.121 0 0 0 .272-2.835v-5.668a10.361 10.361 0 0 0-.272-2.875 1.989 1.989 0 0 0-2.058-1.633zm-.233 10.372q0 1.9-1.127 1.9a1.824 1.824 0 0 1-1.282-.622v-8.7a1.827 1.827 0 0 1 1.282-.621q1.127 0 1.127 1.942zm9.672-.02c0 .272-.007.485-.019.641s-.02.246-.02.272a1.125 1.125 0 0 1-1.165 1.009q-1.321 0-1.321-1.981v-2.525h5.169v-2.953a5.564 5.564 0 0 0-.816-3.34 3.487 3.487 0 0 0-3.03-1.476 3.694 3.694 0 0 0-3.108 1.476 5.674 5.674 0 0 0-.777 3.34v5.011a5.463 5.463 0 0 0 .816 3.341 3.734 3.734 0 0 0 3.147 1.476 3.506 3.506 0 0 0 3.108-1.554 3.653 3.653 0 0 0 .583-1.554 13.079 13.079 0 0 0 .077-1.67v-.349H45.37v.835zm-2.524-6.041q0-1.981 1.282-1.981t1.282 1.981v1.321h-2.564zM29.249 20.819q1.243 0 1.243-1.981v-6.059q0-2.019-1.243-2.02t-1.243 2.02v6.06q0 1.98 1.243 1.98z"/></symbol></svg>