<svg xmlns="http://www.w3.org/2000/svg" width="72.296" height="82.252"><defs><filter id="a" x="0" y="0" width="72.296" height="82.252" filterUnits="userSpaceOnUse"><feOffset dy="3"/><feGaussianBlur stdDeviation="3" result="blur"/><feFlood flood-opacity=".161"/><feComposite operator="in" in2="blur"/><feComposite in="SourceGraphic"/></filter></defs><g filter="url(#a)"><path data-name="Path 8577" d="M13.024 26.1a3.792 3.792 0 0 0-4.02 3.517v15.049a3.8 3.8 0 0 0 4.02 3.519 3.8 3.8 0 0 0 4.02-3.519V29.622a3.8 3.8 0 0 0-4.02-3.522zM43.43 11.392l3.513-3.5a1.11 1.11 0 0 0-1.573-1.568l-4.319 4.316a20.515 20.515 0 0 0-9.7-.012l-4.313-4.303a1.108 1.108 0 0 0-1.568 1.564l3.5 3.485c-5.832 2.236-9.884 7.085-9.884 12.719 0 .068 34.187 0 34.187 0-.003-5.62-4.033-10.456-9.843-12.701zm-12.283 8.69a2.007 2.007 0 1 1 2.011-2.007 2.007 2.007 0 0 1-2.011 2.007zm10.057 0a2.007 2.007 0 1 1 2.011-2.007 2.007 2.007 0 0 1-2.011 2.007zM59.283 26.1a3.794 3.794 0 0 0-4.022 3.517v15.049a4.055 4.055 0 0 0 8.04 0V29.622a3.794 3.794 0 0 0-4.018-3.522zm-40.2 24.07a6.025 6.025 0 0 0 6.013 6.017v10.546a3.794 3.794 0 0 0 4.02 3.519 3.793 3.793 0 0 0 4.018-3.519V56.191h6.036v10.542a4.054 4.054 0 0 0 8.038 0V56.191h.026a6.025 6.025 0 0 0 6.036-6.017V26.1H19.083v24.074z" fill="#fff"/></g></svg>