<svg xmlns="http://www.w3.org/2000/svg" width="519.194" height="582.127"><g fill="#fff" data-name="Logo Final" opacity=".082"><path d="M284.784 416.019c0-60.2-50.551-109.012-112.881-109.012S59.034 355.823 59.034 416.019 109.758 525.03 171.9 525.03a114.217 114.217 0 0 0 39.3-6.889 31.764 31.764 0 0 1 11.434-2.079 30.144 30.144 0 0 1 6.742.861c27.362 7.074 29.264 45.2 2.778 54.684a174.167 174.167 0 0 1-60.254 10.519C77.036 582.126 0 507.61 0 416.043s77.036-166.3 171.9-166.3c25.806 0 50.7 4.995 72.678 15 19.052 8.612 40.549-4.478 40.549-25.527-.173-68.647-.173-172.111 0-211.269C285.3 11.725 292.773 0 314.764 0c0 0 150.06-1.575 204.365 139.017a.761.761 0 0 1 0 .615c-1.766 2.46-7.853-17.113-82.321-57.723-22.114-12.081-36.833-20.9-66.208-26.856-14.459-2.94-26.3 6.545-26.3 21.234v16.708c0 4.786-.309 25.835-.309 38.383v315.4a21.754 21.754 0 0 1-21.791 21.735 37.3 37.3 0 0 1-37.364-37.043z"/><ellipse cx="26.746" cy="26.746" rx="26.746" ry="26.746" transform="translate(258.024 478.288)"/></g></svg>