<svg xmlns="http://www.w3.org/2000/svg" width="172.967" height="172.967"><defs><filter id="a" x="0" y="0" width="172.967" height="172.967" filterUnits="userSpaceOnUse"><feOffset dy="3"/><feGaussianBlur stdDeviation="3" result="blur"/><feFlood flood-opacity=".161"/><feComposite operator="in" in2="blur"/><feComposite in="SourceGraphic"/></filter></defs><g filter="url(#a)"><path data-name="connected" d="M130.391 93.815a33.431 33.431 0 0 0-21.83 8.094L95.35 88.7a10.019 10.019 0 0 0 0-10.429l26.075-26.076a15.355 15.355 0 0 0 13.87 2.072l10.052 18.851a7.723 7.723 0 1 0 5.705-2.546 7.576 7.576 0 0 0-1.141.116l-10.06-18.861a15.424 15.424 0 0 0 3.155-21.213l9.892-9.888a7.732 7.732 0 1 0-4.429-6.974 7.625 7.625 0 0 0 .777 3.319l-9.891 9.888a15.4 15.4 0 0 0-17.931 0l-9.891-9.89a7.645 7.645 0 0 0 .777-3.322 7.748 7.748 0 1 0-7.747 7.753 7.661 7.661 0 0 0 3.319-.777l9.892 9.888a15.4 15.4 0 0 0 0 17.933L91.7 74.616a10.019 10.019 0 0 0-10.429 0l-13.21-13.21a33.629 33.629 0 1 0-3.652 3.652l13.21 13.21a10.019 10.019 0 0 0 0 10.429l-26.078 26.077a15.382 15.382 0 0 0-16.75-.763l-11.4-13.683A7.662 7.662 0 0 0 24.5 96.4a7.84 7.84 0 1 0-5.075 7.245l11.4 13.681a15.407 15.407 0 0 0-.86 19.033l-9.892 9.891a7.625 7.625 0 0 0-3.319-.777 7.748 7.748 0 1 0 7.748 7.748 7.625 7.625 0 0 0-.777-3.319l9.891-9.892a15.413 15.413 0 0 0 20.228-2l12.243 8.162a7.578 7.578 0 0 0-.261 1.888 7.748 7.748 0 1 0 7.744-7.76 7.666 7.666 0 0 0-4.621 1.565l-12.237-8.155a15.377 15.377 0 0 0-1.52-15.285L81.269 92.35a10.019 10.019 0 0 0 10.429 0l13.21 13.21a33.557 33.557 0 1 0 25.482-11.746zM19.331 57.656a10.272 10.272 0 0 1 7.451-9.877l10.629-3.037v-4.017a10.283 10.283 0 0 1-5.166-8.9v-5.163A10.332 10.332 0 0 1 43.5 16.373c5.429.47 9.407 5.377 9.407 10.824v4.631a10.283 10.283 0 0 1-5.166 8.9v4.017l10.629 3.033a10.272 10.272 0 0 1 7.451 9.877zm87.815 87.814a10.272 10.272 0 0 1 7.451-9.877l10.629-3.037v-4.016a10.283 10.283 0 0 1-5.166-8.9v-5.166a10.332 10.332 0 0 1 11.256-10.29c5.429.47 9.407 5.377 9.407 10.824v4.631a10.283 10.283 0 0 1-5.166 8.9v4.017l10.629 3.037a10.272 10.272 0 0 1 7.451 9.877zm0 0" fill="#fff"/></g></svg>