<svg xmlns="http://www.w3.org/2000/svg" width="187.597" height="130.338"><defs><filter id="a" x="0" y="0" width="187.597" height="130.338" filterUnits="userSpaceOnUse"><feOffset dy="3"/><feGaussianBlur stdDeviation="3" result="blur"/><feFlood flood-opacity=".161"/><feComposite operator="in" in2="blur"/><feComposite in="SourceGraphic"/></filter></defs><g filter="url(#a)"><path data-name="Path 11198" d="M163.433 25.869c-22.4-36.8-56.145-11.2-56.145-11.2a17.491 17.491 0 0 1-8.966 3.02l-9.039.006a17.373 17.373 0 0 1-8.963-3.011S46.572-10.925 24.169 25.878 10.8 102.736 10.8 102.736c1.581 9.81 6.793 16.357 16.629 15.535 9.804-.821 31.092-26.421 31.092-26.421a12.133 12.133 0 0 1 8.179-3.833l54.188-.009a12.112 12.112 0 0 1 8.175 3.833s21.291 25.6 31.114 26.42 15.048-5.731 16.619-15.535c-.004 0 9.038-40.06-13.363-76.857zm-90 29.956H61.816v11.2a10.83 10.83 0 0 1-6.268 1.825 7.571 7.571 0 0 1-5.522-2.049V55.828H39.052s-1.369-1.4-1.736-5.1a11.7 11.7 0 0 1 1.515-6.686h11.622v-11.62a12.632 12.632 0 0 1 5.829-1.183 15.368 15.368 0 0 1 5.961 1.4l-.047 11.4H73.17a10.926 10.926 0 0 1 2.075 5.433c.155 2.978-1.809 6.353-1.809 6.353zm53.3 12.764a9.2 9.2 0 1 1 9.2-9.2 9.183 9.183 0 0 1-9.202 9.2zm0-25.3a9.2 9.2 0 1 1 9.2-9.194 9.181 9.181 0 0 1-9.202 9.19zm22.9 13.583a9.2 9.2 0 1 1 9.2-9.2 9.181 9.181 0 0 1-9.198 9.197z" fill="#fff"/></g></svg>