<svg xmlns="http://www.w3.org/2000/svg" width="79.363" height="44.362"><g fill="#fff"><path d="M21.7 31.7a8.46 8.46 0 0 0-8.6-8.3 8.312 8.312 0 1 0 0 16.615 8.7 8.7 0 0 0 3-.525 2.421 2.421 0 0 1 .871-.158 2.3 2.3 0 0 1 .514.066 2.183 2.183 0 0 1 .212 4.167 13.273 13.273 0 0 1-4.592.8A12.9 12.9 0 0 1 0 31.7a12.909 12.909 0 0 1 13.1-12.668 13.383 13.383 0 0 1 5.538 1.143 2.158 2.158 0 0 0 3.09-1.945c-.013-5.231-.013-13.116 0-16.1C21.742.894 22.311 0 23.987 0c0 0 11.435-.12 15.574 10.594a.058.058 0 0 1 0 .047 24.207 24.207 0 0 0-6.273-4.4A15.512 15.512 0 0 0 28.242 4.2a1.6 1.6 0 0 0-2 1.618v1.269c0 .365-.024 1.969-.024 2.925v24.035a1.658 1.658 0 0 1-1.665 1.653 2.842 2.842 0 0 1-2.847-2.823z"/><ellipse cx="2.038" cy="2.038" rx="2.038" ry="2.038" transform="translate(19.663 36.448)"/></g><text transform="translate(33.364 27.6)" fill="#fff" font-size="19" font-family="VisbyRoundCF-Heavy, Visby Round CF" font-weight="800"><tspan x="0" y="0">Lime</tspan></text><g fill="#fff" font-family="Futura-Bold, Futura" font-weight="700"><text transform="translate(61.085 34.043)" font-size="6"><tspan x="-16.596" y="0">VIDEOHUB</tspan></text><text transform="translate(38.508 33.473)" font-size="4"><tspan x="-2.672" y="0">by</tspan></text></g></svg>