<svg xmlns="http://www.w3.org/2000/svg" width="69.561" height="84.08"><defs><filter id="a" x="0" y="0" width="69.561" height="84.08" filterUnits="userSpaceOnUse"><feOffset dy="3"/><feGaussianBlur stdDeviation="3" result="blur"/><feFlood flood-opacity=".161"/><feComposite operator="in" in2="blur"/><feComposite in="SourceGraphic"/></filter></defs><g filter="url(#a)"><path data-name="Path 8578" d="M44.436 16.043C46.922 13.381 48.604 9.685 48.143 6a16.759 16.759 0 0 0-10.494 4.764c-2.3 2.356-4.323 6.122-3.784 9.735a13.974 13.974 0 0 0 10.571-4.456zm7.629 25.45a14.8 14.8 0 0 1 6.834-12.422 14.633 14.633 0 0 0-11.579-6.464c-4.934-.518-9.62 2.988-12.125 2.988s-6.353-2.92-10.445-2.841a15.434 15.434 0 0 0-13.1 8.186c-5.586 9.986-1.43 24.781 4.02 32.882 2.662 3.966 5.831 8.415 9.993 8.254 4.018-.161 5.532-2.672 10.379-2.672S42.244 72.076 46.487 72c4.317-.08 7.049-4.042 9.688-8.021a36.471 36.471 0 0 0 4.384-9.279 14.376 14.376 0 0 1-8.495-13.207z" fill="#fff"/></g></svg>