<svg xmlns="http://www.w3.org/2000/svg" width="100.72" height="145.406"><path data-name="Path 11199" d="M96.745 47.452c-4.6-9.43-12.494-14.709-20.134-19.821-5.693-3.814-11.063-7.416-14.866-12.573l-.7-.951c-2.237-3.009-4.787-6.421-5.179-9.284A5.485 5.485 0 0 0 49.949.002a5.588 5.588 0 0 0-5.2 5.582v99.664a32.358 32.358 0 0 0-16.779-4.586c-15.414 0-27.964 10.034-27.964 22.371s12.544 22.374 27.958 22.374 27.964-10.034 27.964-22.371V57.844c8.4 3.21 22.148 11.387 25.929 30.481a30.228 30.228 0 0 1-2.159 3.054 5.588 5.588 0 0 0 8.389 7.383c7-7.953 11.823-20.548 12.573-32.864a37.12 37.12 0 0 0-3.915-18.446z" fill="#fff"/></svg>