<?xml version="1.0" encoding="UTF-8"?><!DOCTYPE svg PUBLIC "-//W3C//DTD SVG 1.1//EN" "http://www.w3.org/Graphics/SVG/1.1/DTD/svg11.dtd"><svg xmlns="http://www.w3.org/2000/svg"><symbol id="icon-fb" viewBox="0 0 612 612">
    <path d="M0 0v612h612V0H0zm404.9 168.4H357c-9.5 0-19 9.8-19 17.1v48.8h66.8c-2.7 37.4-8.2 71.6-8.2 71.6h-58.9v212h-87.8v-212h-42.7v-71.3h42.7v-58.3c0-10.7-2.2-82.1 89.9-82.1h65.1v74.2z"/>
</symbol><symbol id="icon-inst" viewBox="0 0 364 364">
    <path d="M244.4 83.4H119.6c-19.9 0-36.1 16.2-36.1 36.1v124.8c0 20 16.2 36.1 36.1 36.1h124.8c20 0 36.1-16.2 36.1-36.1V119.6c0-20-16.1-36.1-36.1-36.2zM182 246.9c-35.8 0-64.9-29.1-64.9-64.9s29.1-64.9 64.9-64.9c35.8 0 64.9 29.1 64.9 64.9 0 35.8-29.1 64.9-64.9 64.9zm67-116.4c-8.5 0-15.4-6.9-15.4-15.4s6.9-15.4 15.4-15.4 15.4 6.9 15.4 15.4c-.1 8.5-6.9 15.4-15.4 15.4zm-67 14c-20.7 0-37.5 16.8-37.5 37.5s16.8 37.5 37.5 37.5 37.5-16.8 37.5-37.5c-.1-20.7-16.8-37.4-37.5-37.5zM0 0v364h364V0H0zm308 244.4c0 35.1-28.5 63.5-63.6 63.6H119.6c-35.1 0-63.5-28.5-63.6-63.6V119.6c0-35.1 28.5-63.5 63.6-63.6h124.8c35.1 0 63.5 28.5 63.6 63.6v124.8z"/>
</symbol><symbol id="icon-pn" viewBox="0 0 612 612">
    <path d="M0 0v612h612V0H0zm338.7 400.3c-26.3 0-51.1-14.1-59.5-30.3 0 0-14.1 56.1-17.1 67-10.5 38.2-41.6 76.5-44 79.6-1.1 1.4-3.1 1.7-4.6.7-.7-.5-1.1-1.2-1.3-2-.6-4.9-8.6-53.1.7-92.4l31.3-132.7s-7.8-15.5-7.8-38.5c0-36.1 20.9-63 47-63 22.2 0 32.8 16.6 32.8 36.6 0 22.2-14.1 55.6-21.5 86.4-6.1 25.8 12.9 46.8 38.4 46.8 46.2 0 77.2-59.2 77.2-129.3 0-53.4-35.9-93.3-101.3-93.3-73.8 0-119.8 55.1-119.8 116.5 0 21.3 6.3 36.2 16.1 47.7 4.5 5.4 5.1 7.5 3.5 13.6-1.2 4.5-3.9 15.2-5.1 19.5-1.5 6.1-6.6 8.3-12.2 6-33.9-13.9-49.8-51.1-49.8-93 0-69.1 58.2-152 173.9-152 92.9 0 154.1 67.3 154.1 139.4.3 95.4-52.7 166.7-131 166.7z"/>
</symbol><symbol id="icon-vk" viewBox="0 0 612 612">
    <path d="M0 0v612h612V0H0zm458.8 338.6c14 13.7 28.9 26.6 41.5 41.8 5.6 6.7 10.8 13.6 14.9 21.4 5.7 11.1.5 23.3-9.4 24h-61.7c-15.9 1.3-28.6-5.1-39.3-16-8.5-8.7-16.5-18-24.7-26.9-3.3-3.8-7-7.1-11.1-9.9-8.4-5.5-15.7-3.8-20.6 5-4.9 8.9-6.1 18.9-6.5 28.8-.7 14.5-5.1 18.3-19.6 19-31.2 1.4-60.8-3.3-88.3-19-24.3-13.9-43.1-33.5-59.4-55.6-31.9-43.2-56.3-90.6-78.2-139.4-5-11-1.3-16.9 10.8-17.1 20.2-.4 40.3-.3 60.5 0 8.2.1 13.6 4.8 16.8 12.6 10.9 26.8 24.2 52.3 41 75.9 4.5 6.3 9 12.6 15.5 17 7.1 4.9 12.6 3.3 16-4.7 2-5.1 3.2-10.5 3.5-15.9 1.6-18.6 1.8-37.2-1-55.8-1.7-11.6-8.3-19.1-19.8-21.3-5.9-1.1-5-3.3-2.2-6.7 5-5.8 9.7-9.4 19-9.4h69.7c11 2.1 13.5 7.1 15 18.2l.1 77.5c-.1 4.3 2.1 17 9.8 19.8 6.2 2 10.3-2.9 13.9-6.8 16.7-17.7 28.6-38.7 39.3-60.4 4.7-9.5 8.8-19.4 12.7-29.3 2.9-7.3 7.5-10.9 15.7-10.8l67.1.1c2-.1 4 .1 6 .3 11.3 2 14.4 6.8 10.9 17.9-5.5 17.3-16.2 31.8-26.7 46.3-11.2 15.5-23.2 30.5-34.3 46-10.4 13.8-9.6 21 3.1 33.4z"/>
</symbol></svg>