<svg xmlns="http://www.w3.org/2000/svg" viewBox="0 0 512 512"><path fill="#ff405f" d="M512 430.787l-256 39.78-256-39.78V81.213l256 39.779 256-39.779z"/><path fill="#fb788a" d="M0 81.213v349.574l256 39.78V120.992z"/><path fill="#fbba00" d="M256 73.265L51.144 41.433v343.78L256 417.045l204.856-31.832V41.433z"/><path fill="#fbdb80" d="M51.144 41.433v343.78L256 417.046V73.265z"/><path d="M97.361 207.408l112.421 17.548V193.23L97.361 175.682zm0-89.565v31.726l112.421 17.548V135.39zm0 147.404l112.421 17.549V251.07L97.361 233.521zm0 57.841l112.421 17.548v-31.727L97.361 291.361z" fill="#fbba00"/><path d="M302.218 224.956l112.42-17.548v-31.726l-112.42 17.548zm0 57.84l112.42-17.549v-31.726l-112.42 17.549zm0-147.406v31.727l112.42-17.548v-31.726zm0 205.246l112.42-17.548v-31.727l-112.42 17.548z" fill="#f28e00"/></svg>