<svg id="Layer_1" xmlns="http://www.w3.org/2000/svg" viewBox="0 0 512 512"><style>.st1{fill:#00a3ff}</style><path d="M497 421.9H319c-8.3 0-15-6.7-15-15v-178c0-8.3 6.7-15 15-15h86.1c4 0 7.8 1.6 10.6 4.4l91.9 91.9c2.8 2.8 4.4 6.6 4.4 10.6v86.1c0 8.3-6.7 15-15 15z" fill="#68edff"/><path class="st1" d="M304 320.8v86.1c0 8.3 6.7 15 15 15h178c8.3 0 15-6.7 15-15v-86.1H304z"/><path d="M167 155.6l159.8-.4c.1 0 .2 0 .3.1 4.3 2.8 6.9 7.5 6.9 12.6v253.9H15.6c-8.6 0-15.6-7-15.6-15.6V168c0-5.1 2.6-9.9 6.9-12.6.1-.1.2-.1.3-.1l159.8.3c.1 0-7.9.3-7.8.2" fill="#ffdc3e"/><path d="M167 155.6v266.3h167V168c0-5.2-2.7-10-7-12.7" fill="#ffae23"/><path d="M408 454.4c-26.2 0-47.5-21.3-47.5-47.5s21.3-47.5 47.5-47.5 47.5 21.3 47.5 47.5-21.3 47.5-47.5 47.5zm-253.5 0c-26.2 0-47.5-21.3-47.5-47.5s21.3-47.5 47.5-47.5 47.5 21.3 47.5 47.5-21.3 47.5-47.5 47.5z" fill="#2c3c7e"/><path d="M202.5 325.7h-71c-8.3 0-15-6.7-15-15v-71c0-8.3 6.7-15 15-15h71c8.3 0 15 6.7 15 15v71c0 8.3-6.7 15-15 15z" fill="#17ceff"/><path class="st1" d="M202.5 224.7H167v101h35.5c8.3 0 15-6.7 15-15v-71c0-8.2-6.7-15-15-15z"/></svg>