<svg id="Layer_1" xmlns="http://www.w3.org/2000/svg" viewBox="0 0 512 512"><style>.st0{fill:#ff405f}.st1{fill:#0094e2}.st3{fill:#f1f1f1}</style><path class="st0" d="M473.8 8H28.1a28.04 28.04 0 1 0 0 56.1h445.7L512 36 473.8 8z"/><path class="st0" d="M256 8H28.1a28.04 28.04 0 1 0 0 56.1H256V8z"/><path class="st1" d="M512 469c0 19.3-15.7 35-35 35H35c-19.3 0-35-15.7-35-35V147c0-19.3 15.7-35 35-35h442c19.3 0 35 15.7 35 35v322z"/><path class="st1" d="M256 112H35c-19.3 0-35 15.7-35 35v322c0 19.3 15.7 35 35 35h221V112z"/><path fill="#e0e0e0" d="M115 177h332v262H115z"/><path class="st3" d="M115 177h141v262H115z"/><circle class="st3" cx="57.5" cy="308" r="22.2"/><path class="st3" d="M35.3 230.6h44.3v31.3H35.3zm0-50h44.3v31.3H35.3zm0 223.5h44.3v31.3H35.3zm0-50h44.3v31.3H35.3z"/></svg>