<svg xmlns="http://www.w3.org/2000/svg" width="16.698" height="15.585"><defs><linearGradient id="a" x1=".1" y1=".5" x2="1" y2=".5" gradientUnits="objectBoundingBox"><stop offset="0" stop-color="#218be9"/><stop offset="1" stop-color="#0e9ff0"/></linearGradient></defs><path d="M16.428 6.785l-3.389 3.225.8 4.553a.867.867 0 0 1-.357.855.914.914 0 0 1-.944.066l-4.189-2.149-4.189 2.149a.916.916 0 0 1-.944-.066.865.865 0 0 1-.356-.855l.8-4.553L.271 6.786a.86.86 0 0 1-.227-.9.891.891 0 0 1 .723-.595L5.45 4.63 7.546.488a.9.9 0 0 1 1.605 0l2.1 4.142 4.685.665a.886.886 0 0 1 .721.595.858.858 0 0 1-.229.895z" fill="url(#a)"/></svg>