<?xml version="1.0" encoding="utf-8"?><svg xmlns="http://www.w3.org/2000/svg" xmlns:xlink="http://www.w3.org/1999/xlink"><symbol viewBox="0 0 347.5 113.8" id="arc1" xmlns="http://www.w3.org/2000/svg"><path d="M.1 11c81.9-19.2 266-25.6 347 102.5"/></symbol><symbol viewBox="0 0 149 72.5" id="arc2" xmlns="http://www.w3.org/2000/svg"><path d="M.4 72.2c22.2-30.8 83-87.4 148.5-67.6"/></symbol><symbol viewBox="0 0 266.8 105.8" id="arc3" xmlns="http://www.w3.org/2000/svg"><path d="M.1 4C65.6-6.2 210.5-.2 266.3 105.6"/></symbol><symbol viewBox="0 0 62 250.2" id="arc4" xmlns="http://www.w3.org/2000/svg"><path d="M.4.3C36.6 46.5 94.7 161 37.2 249.9"/></symbol><symbol viewBox="0 0 40 40" id="avatar" xmlns="http://www.w3.org/2000/svg"><path d="M40 38.238a3.51 3.51 0 00-2.14-3.234l-9.964-4.24V28.28a9.295 9.295 0 001.946-4.596h2.037a3.52 3.52 0 003.515-3.515v-5.04a3.52 3.52 0 00-3.026-3.481C32.114 4.023 27.85 0 20 0S7.886 4.023 7.632 11.648a3.52 3.52 0 00-3.026 3.48v5.04a3.52 3.52 0 003.515 3.516h2.037a9.293 9.293 0 001.946 4.596v2.485L2.14 35.004A3.51 3.51 0 000 38.238v.59A1.171 1.171 0 001.172 40h37.656A1.172 1.172 0 0040 38.828v-.59zm-14.446-6.651c0 .028.066 2.872-1.614 4.622-.922.96-2.248 1.447-3.94 1.447-1.686 0-3.008-.484-3.93-1.437-1.7-1.759-1.624-4.608-1.624-4.632a.83.83 0 00.002-.048v-1.16c1.604 1.015 3.518 1.56 5.552 1.56s3.948-.545 5.552-1.56v1.16c0 .016 0 .032.002.048zm2.028-9.702l-2.23 1.487a4.283 4.283 0 01-2.383.722h-1.982a1.172 1.172 0 000 2.343h1.982c1.315 0 2.59-.385 3.684-1.115l.448-.3c-1.057 2.73-3.761 4.574-7.101 4.574-4.322 0-7.582-3.09-7.582-7.188v-9.5c.462-2.148 1.132-3.513 1.938-3.95.804-.437 1.972.017 3.1.455.88.342 1.712.665 2.544.665.84 0 1.661-.326 2.53-.672 1.13-.449 2.199-.873 2.99-.46.576.3 1.398 1.236 2.062 3.977v8.962zm5.468-6.756v5.04c0 .646-.525 1.172-1.171 1.172h-1.954v-7.384h1.954c.646 0 1.171.526 1.171 1.172zM12.066 5.215C13.688 3.31 16.358 2.344 20 2.344c3.642 0 6.312.966 7.935 2.87 1.277 1.5 1.977 3.651 2.086 6.4h-.36c-.707-2.514-1.69-4.033-3.058-4.747-1.743-.908-3.514-.205-4.938.361-.626.249-1.274.506-1.665.506-.394 0-1.055-.257-1.695-.505-1.474-.573-3.309-1.286-5.067-.332-1.325.72-2.285 2.267-2.92 4.716h-.339c.108-2.748.809-4.899 2.086-6.398zM6.95 20.169v-5.04c0-.646.526-1.172 1.172-1.172h1.954v7.384H8.12a1.173 1.173 0 01-1.172-1.172zM3.057 37.16l9.181-3.907c.206 1.272.717 3.002 1.97 4.402H2.497a1.17 1.17 0 01.559-.495zm22.736.495c1.252-1.4 1.763-3.13 1.969-4.402l9.181 3.907c.24.102.434.278.558.495H25.793z"/></symbol><symbol viewBox="0 0 26 26" id="blue-checkbox" xmlns="http://www.w3.org/2000/svg"><path fill-rule="evenodd" clip-rule="evenodd" d="M4 2a2 2 0 00-2 2v18a2 2 0 002 2h18a2 2 0 002-2V4a2 2 0 00-2-2H4zM0 4a4 4 0 014-4h18a4 4 0 014 4v18a4 4 0 01-4 4H4a4 4 0 01-4-4V4z"/></symbol><symbol viewBox="0 0 26 26" id="blue-checkbox-ckecked" xmlns="http://www.w3.org/2000/svg"><path fill-rule="evenodd" clip-rule="evenodd" d="M19.643 7.234a1 1 0 01.123 1.41l-8.4 10a1 1 0 01-1.51.025l-3.6-4a1 1 0 011.487-1.338l2.831 3.145 7.66-9.12a1 1 0 011.41-.122z"/><path fill-rule="evenodd" clip-rule="evenodd" d="M4 2a2 2 0 00-2 2v18a2 2 0 002 2h18a2 2 0 002-2V4a2 2 0 00-2-2H4zM0 4a4 4 0 014-4h18a4 4 0 014 4v18a4 4 0 01-4 4H4a4 4 0 01-4-4V4z"/></symbol><symbol viewBox="0 0 41 40" id="browser" xmlns="http://www.w3.org/2000/svg"><g clip-path="url(#ahclip0)"><path d="M36.11 0H4.703A4.302 4.302 0 00.406 4.297v31.406A4.302 4.302 0 004.703 40H36.11a4.301 4.301 0 004.296-4.297V4.297A4.301 4.301 0 0036.11 0zM4.703 2.344H36.11c1.076 0 1.953.876 1.953 1.953v5.156H2.75V4.297c0-1.077.876-1.953 1.953-1.953zM36.11 37.656H4.703a1.955 1.955 0 01-1.953-1.953V11.797h35.313v23.906a1.955 1.955 0 01-1.953 1.953z"/><path d="M35.64 5.938a1.172 1.172 0 11-2.343 0 1.172 1.172 0 012.344 0zm-4.687 0a1.172 1.172 0 11-2.343 0 1.172 1.172 0 012.343 0zm-4.687 0a1.172 1.172 0 11-2.344 0 1.172 1.172 0 012.344 0zm8.203 8.202H6.344c-.648 0-1.172.525-1.172 1.172v7.032c0 .647.524 1.172 1.172 1.172h28.125c.647 0 1.172-.525 1.172-1.172v-7.032c0-.647-.525-1.171-1.172-1.171zm-1.172 7.032H7.516v-4.688h25.78v4.688zM18.063 25.86H6.342a1.17 1.17 0 00-1.171 1.171v7.032a1.17 1.17 0 001.172 1.171h11.718c.648 0 1.172-.524 1.172-1.172v-7.03c0-.648-.524-1.173-1.172-1.173zm-1.172 7.03H7.516v-4.687h9.375v4.688zm17.578-7.03H22.75c-.647 0-1.172.524-1.172 1.171v7.032c0 .647.525 1.171 1.172 1.171h11.719c.647 0 1.172-.524 1.172-1.172v-7.03c0-.648-.525-1.173-1.172-1.173zm-1.172 7.03h-9.375v-4.687h9.375v4.688z"/></g><defs><clipPath id="ahclip0"><path d="M.406 0h40v40h-40z"/></clipPath></defs></symbol><symbol viewBox="0 0 55 55" id="bx_bxs-file-pdf" xmlns="http://www.w3.org/2000/svg"><path d="M18.944 33.642c-.421 0-.706.04-.852.082v2.7c.174.04.392.052.692.052 1.098 0 1.774-.554 1.774-1.492 0-.838-.582-1.342-1.614-1.342zm7.991.027c-.458 0-.756.041-.932.083v5.98c.176.042.46.042.717.042 1.872.014 3.091-1.017 3.091-3.2.014-1.901-1.097-2.905-2.876-2.905z"/><path d="M32.083 4.583H13.749a4.584 4.584 0 00-4.583 4.583v36.667a4.583 4.583 0 004.583 4.583h27.5a4.583 4.583 0 004.584-4.583v-27.5l-13.75-13.75zM21.766 37.102c-.708.664-1.753.962-2.97.962a5.123 5.123 0 01-.706-.041v3.268h-2.05v-9.02c.925-.138 1.859-.2 2.794-.188 1.276 0 2.183.243 2.795.731.582.463.977 1.221.977 2.115-.003.899-.3 1.657-.841 2.173zm8.724 3.105c-.962.8-2.427 1.18-4.217 1.18-1.072 0-1.83-.069-2.346-.137v-8.977a18.21 18.21 0 012.793-.19c1.735 0 2.863.312 3.742.976.951.706 1.547 1.831 1.547 3.447 0 1.748-.639 2.956-1.519 3.701zm8.468-6.36h-3.511v2.088h3.281v1.682h-3.281v3.676H33.37v-9.141h5.587v1.696zm-6.875-13.222H29.79V9.166l11.458 11.459h-9.166z"/></symbol><symbol viewBox="0 0 24 24" id="calendar" xmlns="http://www.w3.org/2000/svg"><path fill-rule="evenodd" clip-rule="evenodd" d="M5 5a1 1 0 00-1 1v14a1 1 0 001 1h14a1 1 0 001-1V6a1 1 0 00-1-1H5zM2 6a3 3 0 013-3h14a3 3 0 013 3v14a3 3 0 01-3 3H5a3 3 0 01-3-3V6z"/><path fill-rule="evenodd" clip-rule="evenodd" d="M16 1a1 1 0 011 1v4a1 1 0 11-2 0V2a1 1 0 011-1zM8 1a1 1 0 011 1v4a1 1 0 01-2 0V2a1 1 0 011-1zm-6 9a1 1 0 011-1h18a1 1 0 110 2H3a1 1 0 01-1-1z"/></symbol><symbol viewBox="0 0 14 12" id="check" xmlns="http://www.w3.org/2000/svg"><path fill-rule="evenodd" clip-rule="evenodd" d="M13.36.64a1.5 1.5 0 01.069 2.12l-7.333 7.822a1.5 1.5 0 01-2.189 0L.574 7.026a1.5 1.5 0 112.188-2.052l2.24 2.388L11.24.707A1.5 1.5 0 0113.36.64z"/></symbol><symbol viewBox="0 0 24 24" id="check-square" xmlns="http://www.w3.org/2000/svg"><path fill-rule="evenodd" clip-rule="evenodd" d="M22.707 3.293a1 1 0 010 1.414l-10 10a1 1 0 01-1.414 0l-3-3a1 1 0 111.414-1.414L12 12.586l9.293-9.293a1 1 0 011.414 0z"/><path fill-rule="evenodd" clip-rule="evenodd" d="M5 4a1 1 0 00-1 1v14a1 1 0 001 1h14a1 1 0 001-1v-7a1 1 0 112 0v7a3 3 0 01-3 3H5a3 3 0 01-3-3V5a3 3 0 013-3h11a1 1 0 110 2H5z"/></symbol><symbol viewBox="0 0 16 16" id="clock" xmlns="http://www.w3.org/2000/svg"><path fill-rule="evenodd" clip-rule="evenodd" d="M7.999 2.333a5.667 5.667 0 100 11.334 5.667 5.667 0 000-11.334zM.332 8a7.667 7.667 0 1115.333 0A7.667 7.667 0 01.332 8z"/><path fill-rule="evenodd" clip-rule="evenodd" d="M8 3a1 1 0 011 1v3.382l2.114 1.057a1 1 0 11-.895 1.789L7.553 8.894A1 1 0 017 8V4a1 1 0 011-1z"/></symbol><symbol viewBox="0 0 40 40" id="data-security" xmlns="http://www.w3.org/2000/svg"><path d="M35.02 0H4.962a1.839 1.839 0 00-1.837 1.837v36.326c0 1.013.824 1.837 1.837 1.837H28.35c.49 0 .952-.191 1.299-.538l6.67-6.67c.346-.346.537-.807.537-1.298V1.837A1.839 1.839 0 0035.02 0zM5.47 2.345h29.042v28.252H28.82c-.754 0-1.367.613-1.367 1.367v5.692H5.47V2.345zM32.854 32.94l-3.056 3.057V32.94h3.056z"/><path d="M24.93 17.567h-.572v-2.722a4.373 4.373 0 00-4.367-4.368 4.373 4.373 0 00-4.368 4.368v2.722h-.577c-.803 0-1.456.653-1.456 1.456v6.379a4.185 4.185 0 004.18 4.18h4.436a4.185 4.185 0 004.18-4.18v-6.38c0-.802-.653-1.455-1.455-1.455zm-6.962-2.722c0-1.116.907-2.023 2.023-2.023 1.115 0 2.023.908 2.023 2.023v2.722h-4.046v-2.722zm6.074 10.557a1.838 1.838 0 01-1.836 1.835H17.77a1.838 1.838 0 01-1.835-1.835v-5.49h8.107v5.49z"/></symbol><symbol viewBox="0 0 24 24" id="download" xmlns="http://www.w3.org/2000/svg"><path fill-rule="evenodd" clip-rule="evenodd" d="M3 14a1 1 0 011 1v4a1 1 0 001 1h14a1 1 0 001-1v-4a1 1 0 112 0v4a3 3 0 01-3 3H5a3 3 0 01-3-3v-4a1 1 0 011-1z"/><path fill-rule="evenodd" clip-rule="evenodd" d="M6.293 9.293a1 1 0 011.414 0L12 13.586l4.293-4.293a1 1 0 111.414 1.414l-5 5a1 1 0 01-1.414 0l-5-5a1 1 0 010-1.414z"/><path fill-rule="evenodd" clip-rule="evenodd" d="M12 2a1 1 0 011 1v12a1 1 0 11-2 0V3a1 1 0 011-1z"/></symbol><symbol viewBox="0 0 41 40" id="event" xmlns="http://www.w3.org/2000/svg"><g clip-path="url(#apclip0)"><path d="M28.791 20.323a1.172 1.172 0 00-.946-.798l-4.493-.653-2.014-4.148a1.172 1.172 0 00-2.109 0l-2.012 4.147-4.57.654a1.172 1.172 0 00-.644 2.008l3.317 3.165-.836 4.544a1.172 1.172 0 001.69 1.253l4.105-2.122 4.029 2.118a1.172 1.172 0 001.7-1.232l-.77-4.56 3.257-3.175a1.17 1.17 0 00.296-1.201zm-5.629 3.126a1.172 1.172 0 00-.337 1.034l.478 2.832-2.474-1.3a1.172 1.172 0 00-1.083-.004l-2.524 1.305.518-2.816a1.172 1.172 0 00-.343-1.06l-2.03-1.937 2.798-.4c.386-.056.719-.299.889-.649l1.23-2.535 1.23 2.535c.17.35.501.592.886.648l2.759.401-1.997 1.946z"/><path d="M36.89 2.344h-1.17V1.172a1.172 1.172 0 00-2.344 0v1.172H28.61V1.172a1.172 1.172 0 00-2.343 0v1.172h-4.688V1.172a1.172 1.172 0 00-2.344 0v1.172H14.47V1.172a1.172 1.172 0 00-2.344 0v1.172H7.437V1.172a1.172 1.172 0 00-2.343 0v1.172H3.922A3.52 3.52 0 00.406 5.859v30.625A3.52 3.52 0 003.922 40H36.89a3.52 3.52 0 003.515-3.516V5.86a3.52 3.52 0 00-3.515-3.515zm1.172 34.14c0 .646-.525 1.172-1.171 1.172H3.92a1.173 1.173 0 01-1.171-1.172v-1.172h35.313v1.172zm0-3.515H2.75v-21.25h35.313v21.25zm0-23.594H2.75V5.859c0-.646.526-1.171 1.172-1.171h1.172v1.171a1.172 1.172 0 002.343 0V4.688h4.688v1.171a1.172 1.172 0 002.344 0V4.688h4.765v1.171a1.172 1.172 0 002.344 0V4.688h4.688v1.171a1.172 1.172 0 002.343 0V4.688h4.766v1.171a1.172 1.172 0 002.344 0V4.688h1.172c.646 0 1.172.525 1.172 1.171v3.516z"/></g><defs><clipPath id="apclip0"><path d="M.406 0h40v40h-40z"/></clipPath></defs></symbol><symbol id="exam" viewBox="0 0 30.6 40" xml:space="preserve" xmlns="http://www.w3.org/2000/svg"><style>.aqst0{fill:#fff}</style><path class="aqst0" d="M27.1 4.7h-3.7c-.5-1.4-1.8-2.4-3.3-2.4h-1.4C18.1 1 16.8 0 15.3 0S12.5 1 12 2.4h-1.4c-1.5 0-2.8 1-3.3 2.4H3.5C1.6 4.7 0 6.3 0 8.2v28.2c0 2 1.6 3.6 3.5 3.6H27c1.9 0 3.5-1.6 3.5-3.5V8.2c.1-1.9-1.5-3.5-3.4-3.5zM9.4 5.9c0-.6.5-1.2 1.2-1.2H13c.6 0 1.2-.5 1.2-1.2 0-.6.5-1.2 1.2-1.2.6 0 1.2.5 1.2 1.2 0 .6.5 1.2 1.2 1.2H20c.6 0 1.2.5 1.2 1.2v1.2H9.4V5.9zm18.8 30.6c0 .6-.5 1.2-1.2 1.2H3.5c-.6 0-1.2-.5-1.2-1.2V8.2c0-.6.5-1.2 1.2-1.2H7v1.2c0 .6.5 1.2 1.2 1.2h14.1c.6 0 1.2-.5 1.2-1.2V7.1H27c.6 0 1.2.5 1.2 1.2v28.2z"/><path class="aqst0" d="M11.8 14.1H7.1c-.6 0-1.2.5-1.2 1.2 0 .6.5 1.2 1.2 1.2h4.7c.6 0 1.2-.5 1.2-1.2-.1-.7-.6-1.2-1.2-1.2zm0 8.3H7.1c-.6 0-1.2.5-1.2 1.2 0 .6.5 1.2 1.2 1.2h4.7c.6 0 1.2-.5 1.2-1.2-.1-.7-.6-1.2-1.2-1.2zm0 8.2H7.1c-.6 0-1.2.5-1.2 1.2 0 .6.5 1.2 1.2 1.2h4.7c.6 0 1.2-.5 1.2-1.2-.1-.7-.6-1.2-1.2-1.2zm12.6-17.3c-.5-.5-1.2-.5-1.7 0L20 16l-1.5-1.5c-.5-.5-1.2-.5-1.7 0s-.5 1.2 0 1.7l2.4 2.4c.2.2.5.3.8.3s.6-.1.8-.3l3.5-3.5c.5-.6.5-1.4.1-1.8zm0 7c-.5-.5-1.2-.5-1.7 0L20 23l-1.5-1.5c-.5-.5-1.2-.5-1.7 0s-.5 1.2 0 1.7l2.4 2.4c.2.2.5.3.8.3s.6-.1.8-.3l3.5-3.5c.5-.6.5-1.3.1-1.8zm-2.7 11.5l1.5-1.5c.5-.5.5-1.2 0-1.7s-1.2-.5-1.7 0L20 30.1l-1.5-1.5c-.5-.5-1.2-.5-1.7 0s-.5 1.2 0 1.7l1.5 1.5-1.5 1.5c-.5.5-.5 1.2 0 1.7.2.2.5.3.8.3s.6-.1.8-.3l1.5-1.5 1.5 1.5c.2.2.5.3.8.3s.6-.1.8-.3c.5-.5.5-1.2 0-1.7l-1.3-1.5z"/></symbol><symbol viewBox="0 0 40 40" id="global" xmlns="http://www.w3.org/2000/svg"><g clip-path="url(#arclip0)"><path d="M33.933 24.979a19.856 19.856 0 00-12.406-5.626l1.17-2.338a8.723 8.723 0 006-8.29C28.699 3.913 24.785 0 19.975 0s-8.724 3.914-8.724 8.724a8.724 8.724 0 006.001 8.29l1.17 2.339a19.858 19.858 0 00-12.4 5.617A19.872 19.872 0 000 38.775a1.172 1.172 0 102.344.058c.017-.69.073-1.367.165-2.033h3.507a3.532 3.532 0 003.516-3.457 1.177 1.177 0 011.171-1.153h.834a3.52 3.52 0 003.516-3.516 3.52 3.52 0 00-3.516-3.516h-2.2c2.95-2.216 6.628-3.521 10.637-3.521 3.2 0 6.22.878 8.826 2.405a3.536 3.536 0 00-2.32 3.246 1.177 1.177 0 01-1.172 1.152h-2.56a3.52 3.52 0 00-3.516 3.516 3.52 3.52 0 003.516 3.515h2.4c.164.5.44.96.82 1.35a3.486 3.486 0 002.523 1.073h9.063c.025.318.042.639.05.962A1.172 1.172 0 0038.775 40h.029a1.172 1.172 0 001.144-1.2 19.873 19.873 0 00-6.015-13.821zM13.593 8.724a6.387 6.387 0 016.38-6.38 6.387 6.387 0 016.381 6.38 6.378 6.378 0 01-4.772 6.176 1.173 1.173 0 00-.754.61l-.854 1.709-.854-1.708a1.171 1.171 0 00-.754-.61 6.379 6.379 0 01-4.772-6.177zm-.884 19.95c0 .646-.526 1.172-1.172 1.172h-.834a3.532 3.532 0 00-3.515 3.458 1.177 1.177 0 01-1.171 1.152H2.994a17.49 17.49 0 013.793-6.954h4.75c.646 0 1.172.526 1.172 1.172zM28.49 35.55a1.16 1.16 0 01-.84-.359 1.163 1.163 0 01-.331-.854 1.172 1.172 0 00-1.172-1.21h-3.4a1.173 1.173 0 010-2.343h2.56a3.532 3.532 0 003.516-3.458 1.177 1.177 0 011.171-1.152h1.723c2.716 2.44 4.683 5.7 5.488 9.376H28.49z"/><path d="M23.489 8.724a3.52 3.52 0 00-3.516-3.516 3.52 3.52 0 00-3.516 3.516 3.52 3.52 0 003.516 3.516 3.52 3.52 0 003.516-3.516zm-4.688 0a1.173 1.173 0 111.172 1.172 1.173 1.173 0 01-1.172-1.172z"/></g><defs><clipPath id="arclip0"><path d="M0 0h40v40H0z"/></clipPath></defs></symbol><symbol viewBox="0 0 89 41" id="head-logo" xmlns="http://www.w3.org/2000/svg"><path fill-rule="evenodd" clip-rule="evenodd" d="M20.1 24.5v-2a.44.44 0 00-.44-.44H14.4l.79-2h5.15a1.76 1.76 0 011.75 1.75v9.09h-5.94a1.76 1.76 0 01-1.75-1.75v-2.9a1.76 1.76 0 011.75-1.75h3.95zm5.43-4.42h5.9l-.79 2H26.2a.44.44 0 00-.44.44v6a.44.44 0 00.44.44h5.26v2h-5.93a1.76 1.76 0 01-1.75-1.75v-7.37a1.76 1.76 0 011.75-1.75v-.01zm17.91 6.43v2a.47.47 0 00.48.44h5.58l-.84 2h-5.45a1.8 1.8 0 01-1.84-1.75v-7.39A1.78 1.78 0 0143 20.09h4.61a1.81 1.81 0 011.84 1.75v4.67h-6.01zm9.37 4.42V35h-2V20h5.95a1.76 1.76 0 011.75 1.75v7.33a1.76 1.76 0 01-1.75 1.75l-3.95.1zm14.92 0V35h-2V20h5.95a1.76 1.76 0 011.75 1.75v7.33a1.76 1.76 0 01-1.75 1.75l-3.95.1zm-8.62-4.55L60 24.6h5.14l-.91 1.77-5.12.01zm-21.64-4.3v8.85h-2v-8.86H32.2l.83-2h8l-.83 2-2.73.01zm-35.2 1.24V39.5H0v-21h2.54l3.93 9.3 3.88-9.3h2.42v12.4h-2.26v-7.24l-3 7.23h-2l-3.2-7.57h-.04zM78 25.21v7.23h-2.22V20.08h2.42l3.88 9.3 3.92-9.3h2.54V41h-2.25V24.87l-3.2 7.57h-2l-3-7.23H78zm-57.9 1.28h-3.28a.44.44 0 00-.44.44v1.57a.44.44 0 00.44.44h3.28v-2.45zm23.34-2h3.72v-2.22h-3.71v2.24l-.01-.02zm9.37-2.45v6.86h3.29a.44.44 0 00.44-.44v-6a.44.44 0 00-.44-.44l-3.29.02zm14.92 0v6.86H71a.44.44 0 00.44-.44v-6a.44.44 0 00-.44-.44l-3.27.02zM40 0c.833 0 1.663.043 2.49.13v1.61c.56.053 1.113.117 1.66.19l.43-1.56c.82.12 1.63.27 2.43.44l-.19 1.6c.573.127 1.14.267 1.7.42l.66-1.48c.787.22 1.56.467 2.32.74l-.41 1.56c.587.213 1.167.44 1.74.68L53.69 3c.733.32 1.453.653 2.16 1l-.63 1.5c.6.313 1.183.647 1.75 1L58 5.21a55.79 55.79 0 012 1.28l-.84 1.4c.593.42 1.17.86 1.73 1.32l1.25-1.09c.587.48 1.153.98 1.7 1.5l-1 1.27c.567.54 1.113 1.1 1.64 1.68l1.41-.89c.487.547.957 1.11 1.41 1.69L66 14.48c.447.58.873 1.177 1.28 1.79H65A31.66 31.66 0 0039.28 3.44 31.66 31.66 0 0013.6 16.27h-2.33a37.2 37.2 0 011.21-1.69l-1.24-1.1c.46-.593.94-1.17 1.44-1.73l1.41.89a30.5 30.5 0 011.51-1.56l-1.06-1.25a34.683 34.683 0 011.72-1.55l1.26 1.08a31.3 31.3 0 011.58-1.23l-.87-1.39c.667-.46 1.333-.9 2-1.32l1.08 1.24a29.65 29.65 0 011.61-.93l-.66-1.48c.707-.38 1.43-.737 2.17-1.07l.89 1.37c.533-.24 1.073-.463 1.62-.67l-.45-1.56c.76-.287 1.537-.55 2.33-.79L29.48 3c.533-.16 1.073-.303 1.62-.43L30.86 1c.8-.207 1.613-.38 2.44-.52L33.77 2c.533-.087 1.073-.16 1.62-.22V.2a49.35 49.35 0 012.47-.2l.25 1.59h1.63L40 0z"/></symbol><symbol viewBox="0 0 41 40" id="history" xmlns="http://www.w3.org/2000/svg"><g clip-path="url(#atclip0)"><path d="M20.406 0a1.172 1.172 0 000 2.344c9.736 0 17.657 7.92 17.657 17.656 0 9.736-7.921 17.656-17.657 17.656-9.735 0-17.656-7.92-17.656-17.656 0-4.715 1.982-9.268 5.392-12.58v2.033a1.172 1.172 0 002.342 0V4.766a1.17 1.17 0 00-1.17-1.172H4.586c-.647 0-1.172.524-1.172 1.172 0 .647.525 1.164 1.172 1.164h1.72C2.516 9.713.406 14.772.406 20c0 10.995 9 20 20 20 10.996 0 20-9 20-20 0-10.995-9-20-20-20z"/><path d="M20.406 7.11C13.3 7.11 7.516 12.894 7.516 20c0 7.108 5.785 12.89 12.89 12.89 7.108 0 12.89-5.785 12.89-12.89 0-7.108-5.785-12.89-12.89-12.89zm8.237 19.47l-.779-.78a1.172 1.172 0 10-1.657 1.658l.779.779a10.498 10.498 0 01-5.408 2.244v-1.106a1.172 1.172 0 00-2.344 0v1.106a10.497 10.497 0 01-5.407-2.244l.779-.78a1.172 1.172 0 00-1.658-1.657l-.778.78a10.497 10.497 0 01-2.245-5.408h1.106a1.172 1.172 0 000-2.344H9.925a10.498 10.498 0 012.245-5.407l.778.779a1.172 1.172 0 101.658-1.658l-.78-.779a10.497 10.497 0 015.408-2.244v1.106a1.172 1.172 0 002.344 0V9.519a10.5 10.5 0 015.408 2.244l-.78.78a1.172 1.172 0 001.658 1.657l.779-.78a10.497 10.497 0 012.245 5.408H29.78c-.647 0-1.172.525-1.172 1.172 0 .647.525 1.164 1.172 1.164h1.107a10.524 10.524 0 01-2.245 5.415z"/><path d="M23.579 21.515l-2-2v-4.203a1.172 1.172 0 00-2.345 0V20c0 .31.124.609.344.829l2.343 2.343a1.172 1.172 0 101.658-1.657z"/></g><defs><clipPath id="atclip0"><path d="M.406 0h40v40h-40z"/></clipPath></defs></symbol><symbol viewBox="0 0 26 26" id="ion-checkbox-outline" xmlns="http://www.w3.org/2000/svg"><path fill-rule="evenodd" clip-rule="evenodd" d="M4 2a2 2 0 00-2 2v18a2 2 0 002 2h18a2 2 0 002-2V4a2 2 0 00-2-2H4zM0 4a4 4 0 014-4h18a4 4 0 014 4v18a4 4 0 01-4 4H4a4 4 0 01-4-4V4z"/></symbol><symbol viewBox="0 0 20 15" id="long-check" xmlns="http://www.w3.org/2000/svg"><path fill-rule="evenodd" clip-rule="evenodd" d="M19.06.447a1.5 1.5 0 010 2.121l-11 11a1.5 1.5 0 01-2.12 0l-5-5a1.5 1.5 0 112.12-2.121L7 10.386l9.94-9.94a1.5 1.5 0 012.12 0z"/></symbol><symbol viewBox="0 0 16 19" id="map-pin" xmlns="http://www.w3.org/2000/svg"><g clip-path="url(#awclip0)" fill-rule="evenodd" clip-rule="evenodd"><path d="M8 2.746a5 5 0 00-5 5c0 1.931 1.266 3.854 2.726 5.396A19.293 19.293 0 008 15.178l.315-.245a19.288 19.288 0 001.959-1.791C11.734 11.6 13 9.677 13 7.746a5 5 0 00-5-5zm0 13.667l-.555.831-.003-.001-.005-.003-.016-.012a8.612 8.612 0 01-.264-.186 21.286 21.286 0 01-2.883-2.525C2.734 12.892 1 10.481 1 7.747a7 7 0 0114 0c0 2.734-1.734 5.145-3.274 6.77a21.29 21.29 0 01-3.09 2.672l-.057.04-.016.01-.005.004-.002.001L8 16.413zm0 0l.555.832a1 1 0 01-1.11 0L8 16.413z"/><path d="M8 6.746a1 1 0 100 2 1 1 0 000-2zm-3 1a3 3 0 116 0 3 3 0 01-6 0z"/></g><defs><clipPath id="awclip0"><path d="M0 .078h16v18H0z"/></clipPath></defs></symbol><symbol viewBox="0 0 55 55" id="mdi_file-excel" xmlns="http://www.w3.org/2000/svg"><path d="M32.083 4.583H13.749a4.584 4.584 0 00-4.583 4.583v36.667a4.583 4.583 0 004.583 4.583h27.5a4.583 4.583 0 004.584-4.583v-27.5l-13.75-13.75zm4.125 41.25h-4.125l-4.584-7.792-4.583 7.792h-4.125l6.646-10.313-6.646-10.312h4.125L27.499 33l4.584-7.792h4.125l-6.646 10.313 6.646 10.312zM29.79 20.625V8.02l12.604 12.604H29.791z"/></symbol><symbol viewBox="0 0 10 17" id="next-arrow" xmlns="http://www.w3.org/2000/svg"><path fill-rule="evenodd" clip-rule="evenodd" d="M.875 1.043a1 1 0 011.414 0l7.353 7.353-7.353 7.353a1 1 0 01-1.414-1.414l5.939-5.94-5.94-5.938a1 1 0 010-1.414z"/></symbol><symbol viewBox="0 0 40 40" id="paper" xmlns="http://www.w3.org/2000/svg"><g clip-path="url(#azclip0)"><path d="M34.332 4h-6.39L24.52.367c0-.008-.008-.008-.016-.008l-.047-.046c-.016-.008-.023-.024-.039-.032-.016-.015-.04-.031-.055-.047-.015-.007-.023-.015-.039-.023l-.07-.047c-.008-.008-.016-.016-.031-.016l-.094-.046c-.008 0-.008-.008-.016-.008A1.009 1.009 0 0023.668 0H5.676a1.17 1.17 0 00-1.172 1.172v33.656A1.17 1.17 0 005.676 36H8.69v2.828A1.17 1.17 0 009.863 40h24.461a1.17 1.17 0 001.172-1.172V5.172A1.159 1.159 0 0034.332 4zm-9.492.125l2.586 2.742H24.84V4.125zM6.848 33.656V2.344h15.648v5.695a1.17 1.17 0 001.172 1.172h5.305v24.445H6.848zm4.187 4V36h19.102a1.17 1.17 0 001.172-1.172V8.04c0-.039 0-.078-.008-.117 0-.016-.008-.04-.008-.055s-.008-.039-.008-.054c-.008-.024-.008-.047-.015-.063 0-.016-.008-.031-.008-.047-.008-.023-.016-.047-.024-.062-.008-.016-.008-.024-.015-.04a.238.238 0 00-.032-.062.138.138 0 00-.023-.039l-.031-.055-.024-.047c-.008-.015-.023-.03-.031-.046s-.023-.032-.031-.047a.094.094 0 00-.04-.04c-.007-.007-.015-.023-.023-.03l-.843-.9h3.007v31.321H11.035z"/></g><defs><clipPath id="azclip0"><path d="M0 0h40v40H0z"/></clipPath></defs></symbol><symbol viewBox="0 0 20 20" id="phone" xmlns="http://www.w3.org/2000/svg"><path d="M12.541 4.166a4.167 4.167 0 013.292 3.292M12.541.833a7.5 7.5 0 016.625 6.617m-.833 6.65v2.5a1.667 1.667 0 01-1.816 1.666 16.49 16.49 0 01-7.192-2.558 16.25 16.25 0 01-5-5 16.492 16.492 0 01-2.558-7.225 1.666 1.666 0 011.658-1.817h2.5A1.667 1.667 0 017.592 3.1c.105.8.3 1.585.583 2.341A1.667 1.667 0 017.8 7.2L6.742 8.258a13.333 13.333 0 005 5L12.8 12.2a1.665 1.665 0 011.758-.375 10.7 10.7 0 002.342.583 1.666 1.666 0 011.433 1.692z"/></symbol><symbol viewBox="0 0 41 40" id="piggybank" xmlns="http://www.w3.org/2000/svg"><g clip-path="url(#bbclip0)"><path d="M22.032 17.026a12.874 12.874 0 00-3.97-.62c-1.375 0-2.813.22-4.048.62a1.172 1.172 0 10.722 2.23 11.097 11.097 0 013.326-.506c1.118 0 2.211.17 3.248.506a1.172 1.172 0 00.722-2.23z"/><path d="M39.234 11.72c-.647 0-1.172.524-1.172 1.171 0 .411-.071.805-.201 1.172a3.521 3.521 0 00-3.314-2.344 3.52 3.52 0 00-3.516 3.516 3.52 3.52 0 003.697 3.511 5.86 5.86 0 00.807-.08 3.654 3.654 0 01-2.824 2.378c-.711-2.11-2.056-4.038-3.954-5.62-2.867-2.39-6.665-3.705-10.695-3.705-2.22 0-4.428.411-6.434 1.193a8.178 8.178 0 00-5.14-1.728 8.128 8.128 0 00-5.68 2.394 1.172 1.172 0 000 1.657l3.602 3.601a11.45 11.45 0 00-1.1 2.312A3.521 3.521 0 00.406 24.61v2.422a3.52 3.52 0 003.516 3.515h.503a13.562 13.562 0 003.013 3.506v4.776c0 .647.524 1.172 1.171 1.172h4.688c.647 0 1.172-.525 1.172-1.172v-1.53c1.176.235 2.396.358 3.594.358 1.178 0 2.355-.12 3.515-.355v1.527c0 .647.525 1.172 1.172 1.172h4.688c.647 0 1.171-.525 1.171-1.172v-4.775c2.946-2.41 4.688-5.899 4.688-9.444 0-.428-.025-.854-.073-1.274a5.95 5.95 0 003.074-1.605 5.77 5.77 0 001.764-4.152v-.003a5.854 5.854 0 002.344-4.685c0-.647-.524-1.172-1.172-1.172zM26.736 32.544a1.17 1.17 0 00-.47.938v4.174h-2.344v-1.853a1.172 1.172 0 00-1.504-1.124c-1.424.42-2.89.633-4.355.633-1.497 0-3.03-.219-4.434-.633a1.172 1.172 0 00-1.504 1.124v1.853H9.781v-4.174c0-.37-.174-.717-.47-.938a11.174 11.174 0 01-3.165-3.717 1.172 1.172 0 00-1.036-.624H3.922a1.173 1.173 0 01-1.172-1.172V24.61c0-.646.526-1.172 1.172-1.172h.282c.54 0 1.011-.37 1.139-.894.257-1.055.756-2.096 1.527-3.182a1.172 1.172 0 00-.127-1.507l-3.367-3.367a5.825 5.825 0 017.235.636c.343.323.847.408 1.278.217 1.886-.836 4.02-1.278 6.174-1.278 7.107 0 12.89 4.731 12.89 10.547 0 2.995-1.576 5.961-4.217 7.935zm7.81-16.138a1.173 1.173 0 01-1.171-1.172c0-.646.526-1.172 1.172-1.172.646 0 1.172.526 1.172 1.172 0 .646-.526 1.172-1.172 1.172z"/><path d="M18.063 0a5.866 5.866 0 00-5.86 5.86 5.867 5.867 0 005.86 5.859 5.867 5.867 0 005.859-5.86A5.867 5.867 0 0018.062 0zm0 9.375a3.52 3.52 0 01-3.516-3.516 3.52 3.52 0 013.515-3.515 3.52 3.52 0 013.516 3.515 3.52 3.52 0 01-3.515 3.516zM8.61 23.438a1.172 1.172 0 100-2.344 1.172 1.172 0 000 2.343z"/></g><defs><clipPath id="bbclip0"><path d="M.406 0h40v40h-40z"/></clipPath></defs></symbol><symbol viewBox="0 0 40 40" id="plans" xmlns="http://www.w3.org/2000/svg"><g clip-path="url(#bcclip0)"><path d="M38.262 0H12.175c-.72 0-1.304.584-1.304 1.304v26.957c0 .72.584 1.304 1.304 1.304h26.087c.72 0 1.305-.584 1.305-1.304V1.304c0-.72-.584-1.304-1.305-1.304zm-1.304 10.435h-3.913a1.304 1.304 0 000 2.608h3.913v13.913H20.436v-3.913a1.304 1.304 0 00-2.608 0v3.913H13.48V2.61h4.348v14.347a1.304 1.304 0 002.608 0v-3.913h6.522a1.304 1.304 0 000-2.608h-6.522V2.609h16.522v7.826zm2.224 24.729l-2.608-2.609a1.304 1.304 0 10-1.845 1.845l.382.382H10.105l.382-.382a1.304 1.304 0 00-1.845-1.845l-2.608 2.609a1.306 1.306 0 000 1.845l2.608 2.609a1.304 1.304 0 101.845-1.845l-.382-.382H35.11l-.382.382a1.304 1.304 0 101.844 1.844l2.609-2.608a1.307 1.307 0 000-1.845zM6.033 27.338l-.382.383V4.453l.382.382a1.304 1.304 0 101.845-1.844L5.268.382a1.304 1.304 0 00-1.844 0L.816 2.991A1.304 1.304 0 102.66 4.835l.382-.382V27.72l-.382-.382a1.304 1.304 0 10-1.844 1.845l2.608 2.609c.51.509 1.336.51 1.845 0l2.609-2.609a1.304 1.304 0 10-1.845-1.845z"/></g><defs><clipPath id="bcclip0"><path d="M0 0h40v40H0z"/></clipPath></defs></symbol><symbol viewBox="0 0 36 37" id="postit" xmlns="http://www.w3.org/2000/svg"><g clip-path="url(#bdclip0)"><path d="M20.18 30.495a1.055 1.055 0 100-2.11 1.055 1.055 0 000 2.11z"/><path d="M34.945 7.222h-3.164V4.058c0-.583-.472-1.055-1.054-1.055h-4.222a5.268 5.268 0 00-8.432 0H1.055C.472 3.003 0 3.475 0 4.058V31.55c0 .582.472 1.055 1.055 1.055h3.164v3.234c0 .582.472 1.055 1.054 1.055H26.87a5.239 5.239 0 003.729-1.545l.006-.007 3.854-3.924A5.24 5.24 0 0036 27.693V8.276c0-.582-.472-1.054-1.055-1.054zm-7.489-2.11h2.216v2.11h-2.216a5.275 5.275 0 000-2.11zm-5.167-2.11a3.168 3.168 0 013.164 3.165 3.168 3.168 0 01-3.164 3.164 3.168 3.168 0 01-3.164-3.164 3.168 3.168 0 013.164-3.164zM4.22 8.277v22.22H2.11V5.105h15.013a5.353 5.353 0 000 2.116H5.273c-.582 0-1.054.472-1.054 1.054zM32.964 29.93l-.007.007-3.853 3.924c-.43.429-.962.718-1.541.847v-6.322h6.251a3.144 3.144 0 01-.85 1.544zm.927-3.654h-7.383c-.583 0-1.055.473-1.055 1.055v7.453H6.328V9.331h11.745c.146.193.304.376.474.548l-1.354 2.031a1.055 1.055 0 101.755 1.17l1.353-2.03a5.268 5.268 0 006.204-1.72h7.386v16.946z"/><path d="M30.727 15.73H9.492a1.055 1.055 0 000 2.109h21.235a1.055 1.055 0 000-2.11zm0 4.218H9.492a1.055 1.055 0 000 2.11h21.235a1.055 1.055 0 000-2.11zm-8.437 4.219H9.491a1.055 1.055 0 000 2.11H22.29a1.055 1.055 0 000-2.11zm-6.33 4.219H9.493a1.055 1.055 0 000 2.11h6.469a1.055 1.055 0 100-2.11z"/></g><defs><clipPath id="bdclip0"><path d="M0 .894h36v36H0z"/></clipPath></defs></symbol><symbol viewBox="0 0 10 17" id="prev-arrow" xmlns="http://www.w3.org/2000/svg"><path fill-rule="evenodd" clip-rule="evenodd" d="M9.125 1.043a1 1 0 00-1.414 0L.358 8.396l7.353 7.353a1 1 0 001.414-1.414l-5.939-5.94 5.94-5.938a1 1 0 000-1.414z"/></symbol><symbol viewBox="0 0 24 24" id="printer" xmlns="http://www.w3.org/2000/svg"><path d="M18.999 16.666h1.166a1.167 1.167 0 001.167-1.166v-7a1.167 1.167 0 00-1.167-1.167H3.832A1.167 1.167 0 002.665 8.5v7a1.167 1.167 0 001.167 1.166h1.167v-5.833h14v5.833zM4.999 5V.333h14V5h1.166a3.5 3.5 0 013.5 3.5v7a3.5 3.5 0 01-3.5 3.5H19v4.666H5V19H3.832a3.5 3.5 0 01-3.5-3.5v-7a3.5 3.5 0 013.5-3.5h1.167zm2.333 16.333h9.333v-8.167H7.332v8.167zM7.332 5h9.333V2.666H7.332V5z"/></symbol><symbol viewBox="0 0 40 40" id="printer-2" xmlns="http://www.w3.org/2000/svg"><path d="M38.828 11.344h-8.73V3.693a1.17 1.17 0 00-1.173-1.172h-17.85a1.17 1.17 0 00-1.173 1.172v7.643h-8.73A1.17 1.17 0 000 12.51v18.796a1.17 1.17 0 001.172 1.172h8.73v3.83a1.17 1.17 0 001.173 1.172h17.85a1.17 1.17 0 001.173-1.172v-3.83h8.73A1.17 1.17 0 0040 31.305V12.517a1.17 1.17 0 00-1.172-1.173zM12.247 4.865h15.506v6.471H12.247v-6.47zm15.506 30.278H12.247v-9.3h15.506v9.3zm9.902-5.002h-7.557v-4.299h3.353a1.17 1.17 0 001.172-1.172 1.17 1.17 0 00-1.172-1.173H6.47A1.17 1.17 0 005.3 24.67a1.17 1.17 0 001.172 1.172h3.431v4.299H2.345V13.689h35.31V30.14z"/><path d="M25.767 29.32H14.23a1.17 1.17 0 00-1.172 1.172 1.17 1.17 0 001.172 1.172h11.536a1.17 1.17 0 001.172-1.172 1.17 1.17 0 00-1.172-1.172zm8.466-13.443h-3.908a1.17 1.17 0 00-1.173 1.172v3.338a1.17 1.17 0 001.173 1.172h3.908a1.17 1.17 0 001.172-1.172v-3.338a1.17 1.17 0 00-1.172-1.172zm-1.173 3.337h-1.563v-.992h1.563v.992zM9.387 16.995a1.17 1.17 0 00-1.172 1.172v1.102a1.17 1.17 0 001.172 1.172 1.17 1.17 0 001.172-1.172v-1.102a1.17 1.17 0 00-1.172-1.172zm3.852 0a1.17 1.17 0 00-1.173 1.172v1.102a1.17 1.17 0 001.173 1.172 1.17 1.17 0 001.172-1.172v-1.102a1.17 1.17 0 00-1.172-1.172z"/></symbol><symbol viewBox="0 0 12 8" id="sh-more" xmlns="http://www.w3.org/2000/svg"><path fill-rule="evenodd" clip-rule="evenodd" d="M.773 1.826L2.188.412 5.98 4.205 9.773.412l1.415 1.414L5.98 7.033.773 1.826z"/></symbol><symbol viewBox="0 0 41 40" id="startup" xmlns="http://www.w3.org/2000/svg"><g clip-path="url(#biclip0)"><path d="M40.22 1.452c-.097-.712-.477-1.076-.998-1.16C32.737-.76 25.419.58 14.845 11.722L7.256 7.266a1.175 1.175 0 00-1.425.182l-4.252 4.25a1.174 1.174 0 000 1.66l8.218 8.213c-1.803.905-3.602 2.22-5.195 3.811C-.227 30.207.505 38.511.54 38.861c.053.56.497 1.004 1.057 1.057 4.34.416 10.165-.738 13.49-4.06 1.593-1.593 2.908-3.39 3.814-5.191l8.219 8.213a1.174 1.174 0 001.66 0l4.253-4.25c.378-.378.453-.963.182-1.424l-4.457-7.576C39.736 15.23 41.15 8.192 40.221 1.452zM28.94 3.707c2.71-1.157 6.118-1.448 9.032-1.196.146 1.7.264 5.588-1.198 9.026l-7.835-7.83zM6.85 9.75l6.38 3.747a52.091 52.091 0 00-3.592 4.596L4.07 12.527l2.78-2.778zm6.575 24.45c-3.149 3.145-8.39 3.445-10.59 3.424-.022-2.197.28-7.436 3.428-10.582 1.634-1.634 3.492-2.93 5.3-3.707l1.955 1.954-4.35 4.346a1.173 1.173 0 101.66 1.66l4.35-4.346.018.017 1.938 1.937c-.776 1.805-2.073 3.662-3.709 5.296zm14.525 2.19l-5.567-5.563a51.955 51.955 0 004.6-3.585l3.747 6.37-2.78 2.778zm-7.257-7.253l-9.364-9.357c3.643-5.44 9.544-11.237 15.454-14.91l8.83 8.824c-3.557 5.727-9.156 11.555-14.92 15.443z"/><path d="M20.596 13.897a4.225 4.225 0 000 5.98 4.239 4.239 0 005.985 0 4.225 4.225 0 000-5.98 4.238 4.238 0 00-5.985 0zm4.324 4.32a1.887 1.887 0 01-2.664 0 1.88 1.88 0 010-2.66 1.887 1.887 0 012.664 0 1.88 1.88 0 010 2.66z"/></g><defs><clipPath id="biclip0"><path d="M.469 0h40v40h-40z"/></clipPath></defs></symbol><symbol id="teacher" viewBox="0 0 40 40" xml:space="preserve" xmlns="http://www.w3.org/2000/svg"><style>.bjst1{fill:#fff}</style><defs><path id="bjSVGID_1_" d="M0 0h40v40H0z"/></defs><clipPath id="bjSVGID_2_"><use xlink:href="#bjSVGID_1_" overflow="visible"/></clipPath><g clip-path="url(#bjSVGID_2_)"><path class="bjst1" d="M9.5 12.9h10.7c.6 0 1.2-.5 1.2-1.2 0-.6-.5-1.2-1.2-1.2H9.5c-.6 0-1.2.5-1.2 1.2s.6 1.2 1.2 1.2zm0 4.9h10.7c.6 0 1.2-.5 1.2-1.2 0-.6-.5-1.2-1.2-1.2H9.5c-.6 0-1.2.5-1.2 1.2s.6 1.2 1.2 1.2z"/><path class="bjst1" d="M38.8 7.9c.6 0 1.2-.5 1.2-1.2V1.2c0-.7-.5-1.2-1.2-1.2H1.2C.5 0 0 .5 0 1.2v5.6C0 7.4.5 8 1.2 8H2v23.9c0 .6.6 1.1 1.2 1.1h8.2c.5 1.4 1.8 2.5 3.4 2.5h6.3c.3 0 .7-.1 1-.1v3.4c0 .6.5 1.2 1.2 1.2h15.5c.6 0 1.2-.5 1.2-1.2V28.5c0-1.7-.8-3.2-2-4.1V7.9h.8zM2.4 2.4h35.3v3.2H2.4V2.4zm35.2 35.2h-3.1v-7c0-.6-.5-1.2-1.2-1.2-.6 0-1.2.5-1.2 1.2v7h-7.7v-7c0-.6-.5-1.2-1.2-1.2-.6 0-1.2.5-1.2 1.2v1.6c0 .5-.4 1-1 1h-6.3c-.7 0-1.3-.6-1.3-1.3 0-.7.6-1.3 1.3-1.3h3.8c.6 0 1.2-.5 1.2-1.2v-1c0-1.6 1.3-2.9 2.9-2.9h12.1c1.6 0 2.9 1.3 2.9 2.9v9.2zM26.1 20.9v-2c0-1.3 1-2.3 2.3-2.3s2.3 1 2.3 2.3v2c0 1.3-1 2.3-2.3 2.3s-2.3-1-2.3-2.3zm9.5 2.4c-.3 0-.6-.1-.8-.1h-2.4c.4-.7.6-1.5.6-2.3v-2c0-2.6-2.1-4.6-4.6-4.6-2.6 0-4.6 2.1-4.6 4.6v2c0 .8.2 1.6.6 2.3h-1.6c-2.8 0-5.1 2.3-5.2 5.1H15c-.4 0-.7.1-1.1.2l-4.1-7.8c-.3-.6-1-.8-1.6-.5-.6.3-.8 1-.5 1.6l4.3 8.1c-.2.2-.3.5-.4.8H4.4V7.9h31.2v15.4z"/></g></symbol><symbol viewBox="0 0 26 26" id="white-checkbox" xmlns="http://www.w3.org/2000/svg"><path fill-rule="evenodd" clip-rule="evenodd" d="M4 2a2 2 0 00-2 2v18a2 2 0 002 2h18a2 2 0 002-2V4a2 2 0 00-2-2H4zM0 4a4 4 0 014-4h18a4 4 0 014 4v18a4 4 0 01-4 4H4a4 4 0 01-4-4V4z"/></symbol><symbol viewBox="0 0 26 26" id="white-checkbox-checked" xmlns="http://www.w3.org/2000/svg"><path fill-rule="evenodd" clip-rule="evenodd" d="M19.643 7.234a1 1 0 01.123 1.41l-8.4 10a1 1 0 01-1.51.025l-3.6-4a1 1 0 011.487-1.338l2.831 3.145 7.66-9.12a1 1 0 011.41-.122z"/><path fill-rule="evenodd" clip-rule="evenodd" d="M4 2a2 2 0 00-2 2v18a2 2 0 002 2h18a2 2 0 002-2V4a2 2 0 00-2-2H4zM0 4a4 4 0 014-4h18a4 4 0 014 4v18a4 4 0 01-4 4H4a4 4 0 01-4-4V4z"/></symbol></svg>