<svg version="1.1" id="Слой_1" xmlns="http://www.w3.org/2000/svg" x="0" y="0" viewBox="0 0 1920 999" xml:space="preserve"><style>.st0{fill:#2f7eef}</style><path class="st0" d="M1605.3.4L285.3 65C125.5 72.8 0 204.6 0 364.6V999h1920V300C1920 128.6 1776.6-8 1605.3.4z"/><path class="st0" d="M1449.3 87l-1092 53.5C197.5 148.4 72 280.2 72 440.2V999h1692V386.7c0-171.5-143.4-308-314.7-299.7z"/><linearGradient id="SVGID_1_" gradientUnits="userSpaceOnUse" x1="107.191" y1="542.817" x2="868.028" y2="542.817"><stop offset="0" stop-color="#418fff"/><stop offset="1" stop-color="#2f7eef" stop-opacity="0"/></linearGradient><path d="M1449.3 87l-1092 53.5C197.5 148.4 72 280.2 72 440.2V999h1692V386.7c0-171.5-143.4-308-314.7-299.7z" fill="url(#SVGID_1_)"/><linearGradient id="SVGID_2_" gradientUnits="userSpaceOnUse" x1="266.752" y1="670.155" x2="918.667" y2="670.155"><stop offset="0" stop-color="#418fff"/><stop offset="1" stop-color="#2f7eef" stop-opacity="0"/></linearGradient><path d="M1282.7 341.7l-757.3 37.1C365.5 386.7 240 518.5 240 678.5V999h1357.3V641.4c0-171.5-143.4-308.1-314.6-299.7z" fill="url(#SVGID_2_)"/></svg>