<svg width="89" height="42" fill="none" xmlns="http://www.w3.org/2000/svg"><g clip-path="url(#clip0)" fill="#2F7EEF"><path fill-rule="evenodd" clip-rule="evenodd" d="M20.1 24.5v-2a.44.44 0 00-.44-.44H14.4l.79-2h5.15a1.76 1.76 0 011.75 1.75v9.09h-5.94a1.76 1.76 0 01-1.75-1.75v-2.9a1.76 1.76 0 011.75-1.75h3.95zm5.43-4.42h5.9l-.79 2H26.2a.44.44 0 00-.44.44v6a.44.44 0 00.44.44h5.26v2h-5.93a1.76 1.76 0 01-1.75-1.75v-7.37a1.76 1.76 0 011.75-1.75v-.01zm17.91 6.43v2a.47.47 0 00.48.44h5.58l-.84 2h-5.45a1.8 1.8 0 01-1.84-1.75v-7.39A1.78 1.78 0 0143 20.09h4.61a1.81 1.81 0 011.84 1.75v4.67h-6.01zm9.37 4.42V35h-2V20h5.95a1.76 1.76 0 011.75 1.75v7.33a1.76 1.76 0 01-1.75 1.75l-3.95.1zm14.92 0V35h-2V20h5.95a1.76 1.76 0 011.75 1.75v7.33a1.76 1.76 0 01-1.75 1.75l-3.95.1zm-8.62-4.55L60 24.6h5.14l-.91 1.77-5.12.01zm-21.64-4.3v8.85h-2v-8.86H32.2l.83-2h8l-.83 2-2.73.01zm-35.2 1.24V39.5H0v-21h2.54l3.93 9.3 3.88-9.3h2.42v12.4h-2.26v-7.24l-3 7.23h-2l-3.2-7.57h-.04zM78 25.21v7.23h-2.22V20.08h2.42l3.88 9.3 3.92-9.3h2.54V41h-2.25V24.87l-3.2 7.57h-2l-3-7.23H78zm-57.9 1.28h-3.28a.44.44 0 00-.44.44v1.57a.44.44 0 00.44.44h3.28v-2.45zm23.34-2h3.72v-2.22h-3.71v2.24l-.01-.02zm9.37-2.45v6.86h3.29a.44.44 0 00.44-.44v-6a.44.44 0 00-.44-.44l-3.29.02zm14.92 0v6.86H71a.44.44 0 00.44-.44v-6a.44.44 0 00-.44-.44l-3.27.02zM40 0c.833 0 1.663.043 2.49.13v1.61c.56.053 1.113.117 1.66.19l.43-1.56c.82.12 1.63.27 2.43.44l-.19 1.6c.573.127 1.14.267 1.7.42l.66-1.48c.787.22 1.56.467 2.32.74l-.41 1.56c.587.213 1.167.44 1.74.68L53.69 3c.733.32 1.453.653 2.16 1l-.63 1.5c.6.313 1.183.647 1.75 1L58 5.21a55.79 55.79 0 012 1.28l-.84 1.4c.593.42 1.17.86 1.73 1.32l1.25-1.09c.587.48 1.153.98 1.7 1.5l-1 1.27c.567.54 1.113 1.1 1.64 1.68l1.41-.89c.487.547.957 1.11 1.41 1.69L66 14.48c.447.58.873 1.177 1.28 1.79H65A31.66 31.66 0 0039.28 3.44 31.66 31.66 0 0013.6 16.27h-2.33a37.2 37.2 0 011.21-1.69l-1.24-1.1c.46-.593.94-1.17 1.44-1.73l1.41.89a30.5 30.5 0 011.51-1.56l-1.06-1.25a34.683 34.683 0 011.72-1.55l1.26 1.08a31.3 31.3 0 011.58-1.23l-.87-1.39c.667-.46 1.333-.9 2-1.32l1.08 1.24a29.65 29.65 0 011.61-.93l-.66-1.48c.707-.38 1.43-.737 2.17-1.07l.89 1.37c.533-.24 1.073-.463 1.62-.67l-.45-1.56c.76-.287 1.537-.55 2.33-.79L29.48 3c.533-.16 1.073-.303 1.62-.43L30.86 1c.8-.207 1.613-.38 2.44-.52L33.77 2c.533-.087 1.073-.16 1.62-.22V.2a49.35 49.35 0 012.47-.2l.25 1.59h1.63L40 0z"/><path d="M12.7 39.299h-.56v-1.82h-.45c0 .26-.034.49-.1.69a3.734 3.734 0 01-.14.51 1.598 1.598 0 01-.17.36.869.869 0 01-.21.23.72.72 0 01-.25.12 1.13 1.13 0 01-.28 0h-.06a.345.345 0 010-.08v-.3a.366.366 0 010-.09.33.33 0 00.14 0 .32.32 0 00.12-.1.89.89 0 00.11-.2c.039-.1.069-.204.09-.31 0-.12.06-.27.08-.44.02-.17.05-.37.07-.6a.27.27 0 010-.15.15.15 0 01.13-.05h1.3a.16.16 0 01.13.05.22.22 0 010 .15v2.03h.05zm4-1.15a1.67 1.67 0 01-.08.52 1.15 1.15 0 01-.23.41 1 1 0 01-.37.27 1.3 1.3 0 01-.51.09 1.54 1.54 0 01-.48-.07.921.921 0 01-.35-.2.89.89 0 01-.22-.33 1.583 1.583 0 01-.1-.45H14v.9h-.65v-2.24h.56l.09-.05v.86h.42c.014-.142.051-.28.11-.41a1 1 0 01.23-.32 1 1 0 01.35-.2 1.48 1.48 0 01.48-.07c.173-.005.346.022.51.08a.93.93 0 01.36.24 1 1 0 01.22.39c.048.169.072.344.07.52l-.05.06zm-.66 0c.008-.1.008-.2 0-.3a.73.73 0 00-.08-.24.44.44 0 00-.16-.16.56.56 0 00-.49 0 .471.471 0 00-.17.15.711.711 0 00-.1.24 1.362 1.362 0 000 .31 1.844 1.844 0 000 .31.687.687 0 00.08.24.41.41 0 00.16.16.51.51 0 00.26.06.54.54 0 00.23 0 .45.45 0 00.17-.14.68.68 0 00.1-.24 1.432 1.432 0 000-.34v-.05zm3.41 0c0 .18-.03.36-.09.53a1.14 1.14 0 01-.25.41 1.1 1.1 0 01-.38.26 1.43 1.43 0 01-1 0 .86.86 0 01-.36-.28 1.22 1.22 0 01-.2-.47 3.002 3.002 0 01-.06-.67 4.339 4.339 0 010-.53c.014-.152.04-.303.08-.45.032-.125.08-.246.14-.36a1.18 1.18 0 01.17-.25c.05-.056.108-.106.17-.15l.18-.1.22-.08.33-.01.8-.12h.07a.229.229 0 010 .08v.28c.003.03.003.06 0 .09a.13.13 0 010 .06h-.07l-.74.11h-.32l-.1.06-.09.07a.473.473 0 00-.08.11.908.908 0 00-.06.15 1.34 1.34 0 000 .17v.19l.15-.13.18-.1.2-.07h.23c.147-.003.293.024.43.08a.77.77 0 01.3.22 1 1 0 01.18.36c.04.153.061.311.06.47l-.09.07zm-.65 0a1.284 1.284 0 000-.26.639.639 0 00-.08-.21.41.41 0 00-.37-.19h-.16l-.14.06-.14.1-.14.14v.21a2.551 2.551 0 000 .41 1 1 0 00.09.29.4.4 0 00.16.17.49.49 0 00.24.06.519.519 0 00.23 0 .44.44 0 00.17-.14.669.669 0 00.1-.23 1.218 1.218 0 000-.31l.04-.1zm3.1 1.15a.07.07 0 010 .05h-.48a.07.07 0 010-.05v-.18a1 1 0 01-.32.23.93.93 0 01-.39.08 1.14 1.14 0 01-.33 0 .77.77 0 01-.26-.14.63.63 0 01-.22-.29.77.77 0 01-.06-.32.71.71 0 01.08-.34.62.62 0 01.23-.24 1.12 1.12 0 01.38-.14 2.76 2.76 0 01.53 0h.22v-.14a.703.703 0 000-.19.31.31 0 00-.07-.13.3.3 0 00-.13-.08h-.2a1.067 1.067 0 00-.28 0l-.22.08-.16.08h-.1v-.05a.335.335 0 010-.08.695.695 0 010-.1.482.482 0 010-.12.19.19 0 010-.08l.12-.08.21-.08.26-.06H21c.15-.003.302.014.45.05.114.028.22.083.31.16a.6.6 0 01.18.27c.04.13.06.264.06.4v1.49h-.1zm-.63-1h-.53a.51.51 0 00-.18.07.27.27 0 00-.1.11.33.33 0 000 .15.282.282 0 00.09.22.36.36 0 00.25.08.47.47 0 00.25-.07 1 1 0 00.23-.2v-.38l-.01.02zm3.19 1h-.61v-.85h-.35a.33.33 0 00-.12.07.57.57 0 00-.1.14 1.474 1.474 0 00-.1.21l-.15.38v.06h-.63a.239.239 0 010-.08l.07-.17.15-.35a.92.92 0 01.17-.26.601.601 0 01.21-.15.7.7 0 01-.37-.21.55.55 0 01-.14-.39.64.64 0 01.28-.56c.106-.07.224-.122.35-.15.16-.036.325-.053.49-.05h.72a.16.16 0 01.12.06.22.22 0 010 .13v2.17h.01zm-.63-1.9h-.5a.41.41 0 00-.15.07.25.25 0 00-.08.11.37.37 0 000 .14.351.351 0 000 .14.25.25 0 00.08.1.39.39 0 00.14.06h.5v-.64l.01.02zm4.11-.15c.002.046.002.093 0 .14.003.03.003.06 0 .09h-.61v1.82h-.56v-1.77H26a.348.348 0 010-.09 1.168 1.168 0 010-.14.83.83 0 010-.13.42.42 0 010-.17h1.85c.003.03.003.06 0 .09a1.41 1.41 0 010 .13l.09.03zm2.39.86a.24.24 0 01-.05.17.19.19 0 01-.14.06h-1.37a.92.92 0 000 .26.49.49 0 00.11.2.48.48 0 00.19.12.828.828 0 00.28 0h.29l.22-.05.15-.05h.1a.3.3 0 010 .06v.19a.511.511 0 010 .07h-.09l-.19.06-.26.05h-.31a1.66 1.66 0 01-.53-.08.9.9 0 01-.6-.62 1.813 1.813 0 01-.07-.55 1.7 1.7 0 01.08-.54 1.1 1.1 0 01.23-.41 1 1 0 01.36-.26 1.41 1.41 0 011 0 .88.88 0 01.33.23.93.93 0 01.19.35c.041.143.061.291.06.44v.1l.02.2zm-.62-.18a.65.65 0 00-.11-.42.41.41 0 00-.36-.15.471.471 0 00-.21 0 .43.43 0 00-.15.12.54.54 0 00-.09.18.89.89 0 000 .22l.92.05zm3.06 1.32a.15.15 0 010 .07h-.66l-.42-.8-.41.8h-.61a.14.14 0 010-.07l.62-1.1-.57-1a.2.2 0 010-.08h.65l.4.75.4-.75h.52a.2.2 0 010 .08l-.56 1 .62 1.12.02-.02zm2.6 0h-.57v-.88h-.91v.88h-.61v-2.2h.61v.84h.91v-.84h.56v2.25l.01-.05zm2.88 0h-.56v-1.44l-.13.21-.14.2-.76 1h-.49v-2.22h.3a.91.91 0 01.25 0s.07 0 .07.07v1.42l.12-.2.13-.19.77-1h.51v2.2l-.07-.05zm2.75 0h-.59l-.21-.53a1.068 1.068 0 00-.08-.18.469.469 0 00-.1-.12.32.32 0 00-.12-.06h-.29v.92H39v-2.28h.56v.87h.27a.33.33 0 00.11-.06.49.49 0 00.1-.12c.03-.058.057-.118.08-.18l.19-.48h.57a.25.25 0 010 .06v.1l-.18.43a1.33 1.33 0 01-.11.22.771.771 0 01-.12.15l-.12.09-.12.06.14.07.13.1a.85.85 0 01.12.15 1.9 1.9 0 01.11.21l.22.5v.13l.05-.05zm2.29 0a.07.07 0 010 .05h-.48a.07.07 0 010-.05v-.18a1 1 0 01-.32.23.92.92 0 01-.39.08 1.14 1.14 0 01-.33 0 .76.76 0 01-.26-.14.62.62 0 01-.21-.24.77.77 0 01-.06-.32.72.72 0 01.08-.34.62.62 0 01.23-.24c.117-.07.245-.117.38-.14a2.76 2.76 0 01.53 0h.22v-.14a.703.703 0 000-.19.31.31 0 00-.07-.13.3.3 0 00-.13-.08h-.2a1.058 1.058 0 00-.28 0l-.22.08-.16.08h-.11v-.05a.335.335 0 010-.08.642.642 0 010-.1.455.455 0 010-.12.19.19 0 010-.08l.12-.08.21-.08.26-.06h.29a1.74 1.74 0 01.45.05c.114.028.22.083.31.16a.61.61 0 01.18.27c.04.13.06.264.06.4v1.49l-.1-.05zm-.63-1h-.5a.5.5 0 00-.18.07.27.27 0 00-.1.11.33.33 0 000 .15.282.282 0 00.09.22.36.36 0 00.25.08.47.47 0 00.24-.07 1 1 0 00.23-.2v-.38l-.03.02zm2.73 1.86h-.48v-1.11a.15.15 0 010-.1.13.13 0 01.1 0h.12a1.772 1.772 0 00.28-.57 3.9 3.9 0 00.11-.47c0-.18.07-.4.1-.66a.428.428 0 010-.08.168.168 0 010-.06h1.52a.16.16 0 01.13.05.23.23 0 010 .15v1.69h.26a.13.13 0 01.1 0 .13.13 0 010 .1v1.12h-.42v-.73h-1.82v.73-.06zm1.3-2.64h-.54c0 .21-.06.39-.09.54-.03.132-.067.262-.11.39a1.481 1.481 0 01-.12.27l-.12.19h1v-1.39h-.02zm3.5 1.82h-.56v-1.81h-.53c0 .26-.034.49-.1.69-.034.173-.08.344-.14.51a1.573 1.573 0 01-.17.36.86.86 0 01-.21.23.72.72 0 01-.25.12 1.121 1.121 0 01-.28 0h-.05a.29.29 0 010-.08v-.3a.348.348 0 010-.09.33.33 0 00.14 0 .32.32 0 00.12-.1.868.868 0 00.11-.2c.038-.1.068-.205.09-.31 0-.12.05-.27.08-.44.03-.17.05-.37.07-.6a.26.26 0 010-.15.15.15 0 01.13-.05H50a.17.17 0 01.13.05.23.23 0 010 .15v2.03l.06-.01zm2.57 0h-.57v-.85h-.37a.34.34 0 00-.12.07.589.589 0 00-.1.14 1.524 1.524 0 00-.1.21l-.15.38v.06h-.63a.25.25 0 010-.08l.07-.17.15-.35a.93.93 0 01.17-.26.6.6 0 01.23-.16.71.71 0 01-.38-.21.55.55 0 01-.14-.39.65.65 0 01.28-.56 1.07 1.07 0 01.36-.15 2.07 2.07 0 01.49-.05h.73a.16.16 0 01.12.06.22.22 0 010 .13v2.19l-.04-.01zm-.63-1.9h-.51a.4.4 0 00-.14.07.25.25 0 00-.08.11.379.379 0 000 .14.359.359 0 000 .14.26.26 0 00.08.1c.042.029.09.05.14.06h.5v-.64l.01.02zm4.71.76c0 .176-.028.352-.08.52a1 1 0 01-.62.67 1.46 1.46 0 01-.54.09 1.48 1.48 0 01-.52-.08.94.94 0 01-.37-.24 1 1 0 01-.22-.39 1.792 1.792 0 01-.07-.53 1.7 1.7 0 01.08-.52 1.001 1.001 0 01.62-.67c.172-.065.355-.095.54-.09.18-.005.359.022.53.08a.92.92 0 01.37.24 1 1 0 01.22.39c.048.172.072.35.07.53h-.01zm-.65 0c.01-.103.01-.207 0-.31a.69.69 0 00-.09-.24.44.44 0 00-.17-.16.63.63 0 00-.51 0 .44.44 0 00-.17.15.731.731 0 00-.1.24 1.36 1.36 0 000 .32c-.01.103-.01.207 0 .31a.74.74 0 00.09.24.41.41 0 00.17.16.55.55 0 00.26.06.57.57 0 00.25-.05.45.45 0 00.17-.15.711.711 0 00.1-.24 1.392 1.392 0 000-.32v-.01zm4.16 0c.002.17-.025.34-.08.5a1.11 1.11 0 01-.64.66 1.66 1.66 0 01-.54.12v.75h-.56v-.75a1.748 1.748 0 01-.54-.1 1.09 1.09 0 01-.39-.25 1 1 0 01-.24-.38 1.501 1.501 0 01-.08-.51 1.44 1.44 0 01.08-.5 1.17 1.17 0 01.64-.67c.171-.07.354-.111.54-.12v-.8h.56v.81c.187.003.373.037.55.1.145.055.278.14.39.25a1 1 0 01.24.38c.055.164.082.336.08.51h-.01zm-.65 0a.89.89 0 00-.14-.54.63.63 0 00-.47-.23v1.52a.64.64 0 00.46-.21.81.81 0 00.16-.54h-.01zm-1.25-.76a.64.64 0 00-.46.21.82.82 0 00-.16.55c-.014.1-.014.2 0 .3a.611.611 0 00.3.39.82.82 0 00.28.08v-1.5l.04-.03zm4.63 1.89h-.56v-1.44l-.13.21-.14.2-.76 1h-.58v-2.25h.3a.902.902 0 01.25 0s.07 0 .07.07v1.42l.12-.2.13-.19.77-1h.42l.03-.1v2.3l.08-.02zm2.34-.37v.18l-.1.07-.17.07-.2.05h-.23a1.209 1.209 0 01-.46-.08.87.87 0 01-.34-.24 1 1 0 01-.21-.38 1.772 1.772 0 01-.07-.52 1.8 1.8 0 01.08-.58 1 1 0 01.6-.65 1.26 1.26 0 01.46-.08h.38l.15.07.09.07v.18a.55.55 0 010 .21s0 .06-.07.06a.16.16 0 01-.09 0l-.11-.08-.13.2a.612.612 0 00-.22 0 .43.43 0 00-.38.19 1 1 0 00-.13.56 1.37 1.37 0 000 .32.66.66 0 00.1.23.4.4 0 00.16.14.519.519 0 00.23 0 .56.56 0 00.23 0l.17-.09.12-.09a.14.14 0 01.08 0v.23l.06-.04zm2.38.37a.07.07 0 010 .05h-.48a.07.07 0 010-.05v-.18a1 1 0 01-.32.23.92.92 0 01-.39.08 1.14 1.14 0 01-.33 0 .77.77 0 01-.26-.14.63.63 0 01-.22-.27.76.76 0 01-.06-.32.71.71 0 01.08-.34.62.62 0 01.23-.24 1.12 1.12 0 01.38-.14 2.76 2.76 0 01.53 0h.22v-.14a.703.703 0 000-.19.3.3 0 00-.07-.13.3.3 0 00-.13-.08h-.2a1.058 1.058 0 00-.28 0l-.22.08-.16.08h-.1a.12.12 0 010-.05.298.298 0 010-.08.695.695 0 010-.1.502.502 0 010-.12.19.19 0 010-.08l.12-.08.21-.08.26-.06h.29a1.74 1.74 0 01.45.05c.114.028.22.083.31.16a.61.61 0 01.18.27c.04.13.06.264.06.4v1.49l-.1-.02zm-.63-1h-.5a.5.5 0 00-.18.07.28.28 0 00-.1.11.33.33 0 000 .15.282.282 0 00.09.22.35.35 0 00.25.08.47.47 0 00.25-.07.999.999 0 00.23-.2v-.38l-.04.02z"/></g><defs><clipPath id="clip0"><path fill="#fff" d="M0 0h88.56v41.04H0z"/></clipPath></defs></svg>