<svg width="89" height="42" viewBox="0 0 89 42" fill="none" xmlns="http://www.w3.org/2000/svg">
<g clip-path="url(#clip0)">
<path fill-rule="evenodd" clip-rule="evenodd" d="M20.1 24.5V22.5C20.1 22.3833 20.0536 22.2714 19.9711 22.1889C19.8886 22.1064 19.7767 22.06 19.66 22.06H14.4L15.19 20.06H20.34C20.8033 20.0626 21.2469 20.2478 21.5745 20.5755C21.9022 20.9031 22.0874 21.3467 22.09 21.81V30.9H16.15C15.6867 30.8974 15.2431 30.7122 14.9155 30.3845C14.5878 30.0569 14.4026 29.6133 14.4 29.15V26.25C14.4026 25.7867 14.5878 25.3431 14.9155 25.0155C15.2431 24.6878 15.6867 24.5026 16.15 24.5H20.1ZM25.53 20.08H31.43L30.64 22.08H26.2C26.0833 22.08 25.9714 22.1264 25.8889 22.2089C25.8064 22.2914 25.76 22.4033 25.76 22.52V28.52C25.76 28.6367 25.8064 28.7486 25.8889 28.8311C25.9714 28.9136 26.0833 28.96 26.2 28.96H31.46V30.96H25.53C25.0667 30.9574 24.6231 30.7722 24.2955 30.4445C23.9678 30.1169 23.7826 29.6733 23.78 29.21V21.84C23.7826 21.3767 23.9678 20.9331 24.2955 20.6055C24.6231 20.2778 25.0667 20.0926 25.53 20.09V20.08ZM43.44 26.51V28.51C43.4477 28.6311 43.502 28.7446 43.5915 28.8266C43.6809 28.9086 43.7987 28.9528 43.92 28.95H49.5L48.66 30.95H43.21C42.7343 30.9608 42.2736 30.7827 41.9288 30.4548C41.584 30.1268 41.3831 29.6757 41.37 29.2V21.81C41.3832 21.3732 41.5566 20.9565 41.8572 20.6393C42.1578 20.3222 42.5645 20.1266 43 20.09H47.61C48.085 20.0819 48.5441 20.2608 48.8884 20.5882C49.2326 20.9156 49.4343 21.3652 49.45 21.84V26.51H43.44ZM52.81 30.93V35H50.81V20H56.76C57.2233 20.0026 57.6669 20.1878 57.9945 20.5155C58.3222 20.8431 58.5074 21.2867 58.51 21.75V29.08C58.5074 29.5433 58.3222 29.9869 57.9945 30.3145C57.6669 30.6422 57.2233 30.8274 56.76 30.83L52.81 30.93ZM67.73 30.93V35H65.73V20H71.68C72.1433 20.0026 72.5869 20.1878 72.9145 20.5155C73.2422 20.8431 73.4274 21.2867 73.43 21.75V29.08C73.4274 29.5433 73.2422 29.9869 72.9145 30.3145C72.5869 30.6422 72.1433 30.8274 71.68 30.83L67.73 30.93ZM59.11 26.38L60 24.6H65.14L64.23 26.37L59.11 26.38ZM37.47 22.08V30.93H35.47V22.07H32.2L33.03 20.07H41.03L40.2 22.07L37.47 22.08ZM2.27 23.32V39.5H0V18.5H2.54L6.47 27.8L10.35 18.5H12.77V30.9H10.51V23.66L7.51 30.89H5.51L2.31 23.32H2.27ZM78 25.21V32.44H75.78V20.08H78.2L82.08 29.38L86 20.08H88.54V41H86.29V24.87L83.09 32.44H81.09L78.09 25.21H78ZM20.1 26.49H16.82C16.7033 26.49 16.5914 26.5364 16.5089 26.6189C16.4264 26.7014 16.38 26.8133 16.38 26.93V28.5C16.38 28.6167 16.4264 28.7286 16.5089 28.8111C16.5914 28.8936 16.7033 28.94 16.82 28.94H20.1V26.49ZM43.44 24.49H47.16V22.27H43.45V24.51L43.44 24.49ZM52.81 22.04V28.9H56.1C56.2167 28.9 56.3286 28.8536 56.4111 28.7711C56.4936 28.6886 56.54 28.5767 56.54 28.46V22.46C56.54 22.4022 56.5286 22.345 56.5065 22.2916C56.4844 22.2382 56.452 22.1897 56.4111 22.1489C56.3703 22.108 56.3218 22.0756 56.2684 22.0535C56.215 22.0314 56.1578 22.02 56.1 22.02L52.81 22.04ZM67.73 22.04V28.9H71C71.1167 28.9 71.2286 28.8536 71.3111 28.7711C71.3936 28.6886 71.44 28.5767 71.44 28.46V22.46C71.44 22.4022 71.4286 22.345 71.4065 22.2916C71.3844 22.2382 71.352 22.1897 71.3111 22.1489C71.2703 22.108 71.2218 22.0756 71.1684 22.0535C71.115 22.0314 71.0578 22.02 71 22.02L67.73 22.04ZM40 0C40.8333 0 41.6633 0.0433333 42.49 0.13V1.74C43.05 1.79333 43.6033 1.85667 44.15 1.93L44.58 0.37C45.4 0.49 46.21 0.64 47.01 0.81L46.82 2.41C47.3933 2.53667 47.96 2.67667 48.52 2.83L49.18 1.35C49.9667 1.57 50.74 1.81667 51.5 2.09L51.09 3.65C51.6767 3.86333 52.2567 4.09 52.83 4.33L53.69 3C54.4233 3.32 55.1433 3.65333 55.85 4L55.22 5.5C55.82 5.81333 56.4033 6.14667 56.97 6.5L58 5.21C58.6667 5.61667 59.3333 6.04333 60 6.49L59.16 7.89C59.7533 8.31 60.33 8.75 60.89 9.21L62.14 8.12C62.7267 8.6 63.2933 9.1 63.84 9.62L62.84 10.89C63.4067 11.43 63.9533 11.99 64.48 12.57L65.89 11.68C66.3767 12.2267 66.8467 12.79 67.3 13.37L66 14.48C66.4467 15.06 66.8733 15.6567 67.28 16.27H65C62.0291 12.254 58.15 8.99797 53.6799 6.7681C49.2097 4.53823 44.2753 3.39779 39.28 3.44C34.2914 3.40411 29.365 4.54759 24.9023 6.77721C20.4396 9.00682 16.5669 12.2595 13.6 16.27H11.27C11.6567 15.6967 12.06 15.1333 12.48 14.58L11.24 13.48C11.7 12.8867 12.18 12.31 12.68 11.75L14.09 12.64C14.5767 12.1 15.08 11.58 15.6 11.08L14.54 9.83C15.0933 9.29667 15.6667 8.78 16.26 8.28L17.52 9.36C18.0333 8.93333 18.56 8.52333 19.1 8.13L18.23 6.74C18.8967 6.28 19.5633 5.84 20.23 5.42L21.31 6.66C21.8367 6.33333 22.3733 6.02333 22.92 5.73L22.26 4.25C22.9667 3.87 23.69 3.51333 24.43 3.18L25.32 4.55C25.8533 4.31 26.3933 4.08667 26.94 3.88L26.49 2.32C27.25 2.03333 28.0267 1.77 28.82 1.53L29.48 3C30.0133 2.84 30.5533 2.69667 31.1 2.57L30.86 1C31.66 0.793333 32.4733 0.62 33.3 0.48L33.77 2C34.3033 1.91333 34.8433 1.84 35.39 1.78V0.2C36.2033 0.113333 37.0267 0.0466667 37.86 0L38.11 1.59H39.74L40 0Z" fill="#2F7EEF"/>
<path d="M12.6993 39.2989H12.1393V37.4789H11.6893C11.6893 37.7389 11.656 37.9689 11.5893 38.1689C11.5554 38.3422 11.5086 38.5126 11.4493 38.6789C11.4079 38.8055 11.3507 38.9265 11.2793 39.0389C11.2237 39.1276 11.1526 39.2055 11.0693 39.2689C10.9945 39.3247 10.9096 39.3655 10.8193 39.3889C10.7263 39.4005 10.6323 39.4005 10.5393 39.3889H10.4793C10.4762 39.3623 10.4762 39.3355 10.4793 39.3089V39.0089C10.4756 38.979 10.4756 38.9488 10.4793 38.9189C10.5254 38.9289 10.5732 38.9289 10.6193 38.9189C10.667 38.896 10.7082 38.8616 10.7393 38.8189C10.7844 38.7572 10.8214 38.69 10.8493 38.6189C10.8885 38.5185 10.9187 38.4147 10.9393 38.3089C10.9393 38.1889 10.9993 38.0389 11.0193 37.8689C11.0393 37.6989 11.0693 37.4989 11.0893 37.2689C11.0751 37.2199 11.0751 37.1679 11.0893 37.1189C11.1053 37.1007 11.1255 37.0866 11.1482 37.0779C11.1708 37.0692 11.1952 37.0661 11.2193 37.0689H12.5193C12.5433 37.0669 12.5675 37.0704 12.59 37.079C12.6125 37.0877 12.6328 37.1013 12.6493 37.1189C12.6669 37.1674 12.6669 37.2204 12.6493 37.2689V39.2989H12.6993ZM16.6993 38.1489C16.701 38.3254 16.674 38.501 16.6193 38.6689C16.5717 38.8199 16.4934 38.9595 16.3893 39.0789C16.2885 39.1963 16.1619 39.2887 16.0193 39.3489C15.8571 39.4128 15.6836 39.4434 15.5093 39.4389C15.3466 39.4411 15.1846 39.4174 15.0293 39.3689C14.8993 39.3289 14.7798 39.2606 14.6793 39.1689C14.5821 39.0769 14.5069 38.9641 14.4593 38.8389C14.4042 38.6946 14.3705 38.543 14.3593 38.3889H13.9993V39.2889H13.3493V37.0489H13.9093L13.9993 36.9989V37.8589H14.4193C14.4341 37.7173 14.4713 37.5789 14.5293 37.4489C14.584 37.328 14.6622 37.2193 14.7593 37.1289C14.8612 37.0392 14.9803 36.9711 15.1093 36.9289C15.2644 36.8793 15.4265 36.8557 15.5893 36.8589C15.7628 36.854 15.9357 36.8811 16.0993 36.9389C16.2365 36.9895 16.3598 37.0717 16.4593 37.1789C16.5612 37.2906 16.6364 37.4239 16.6793 37.5689C16.7283 37.7378 16.7519 37.9131 16.7493 38.0889L16.6993 38.1489ZM16.0393 38.1489C16.0482 38.0491 16.0482 37.9487 16.0393 37.8489C16.0268 37.7649 15.9997 37.6836 15.9593 37.6089C15.9208 37.5425 15.8657 37.4874 15.7993 37.4489C15.723 37.4118 15.6392 37.3925 15.5543 37.3925C15.4694 37.3925 15.3856 37.4118 15.3093 37.4489C15.2413 37.4843 15.1829 37.5358 15.1393 37.5989C15.0915 37.6721 15.0576 37.7534 15.0393 37.8389C15.0275 37.9419 15.0275 38.0459 15.0393 38.1489C15.0306 38.2521 15.0306 38.3558 15.0393 38.4589C15.0514 38.543 15.0785 38.6243 15.1193 38.6989C15.1566 38.7662 15.212 38.8216 15.2793 38.8589C15.3591 38.9016 15.4489 38.9223 15.5393 38.9189C15.6151 38.9354 15.6935 38.9354 15.7693 38.9189C15.8367 38.887 15.8951 38.8389 15.9393 38.7789C15.9878 38.7061 16.0217 38.6246 16.0393 38.5389C16.0528 38.426 16.0528 38.3118 16.0393 38.1989V38.1489ZM19.4493 38.1489C19.4504 38.3295 19.42 38.5088 19.3593 38.6789C19.306 38.8318 19.2208 38.9715 19.1093 39.0889C19.0024 39.2014 18.8729 39.29 18.7293 39.3489C18.4068 39.4693 18.0518 39.4693 17.7293 39.3489C17.5863 39.2897 17.4619 39.1929 17.3693 39.0689C17.2702 38.9281 17.2021 38.7679 17.1693 38.5989C17.1243 38.3785 17.1041 38.1538 17.1093 37.9289C17.0985 37.7524 17.0985 37.5754 17.1093 37.3989C17.124 37.247 17.1508 37.0965 17.1893 36.9489C17.2223 36.824 17.2693 36.7033 17.3293 36.5889C17.375 36.4986 17.4322 36.4146 17.4993 36.3389C17.5507 36.2832 17.6077 36.233 17.6693 36.1889L17.8493 36.0889L18.0693 36.0089L18.3993 35.9989L19.1993 35.8789H19.2693C19.274 35.9054 19.274 35.9324 19.2693 35.9589V36.2389C19.2732 36.2688 19.2732 36.299 19.2693 36.3289C19.274 36.3486 19.274 36.3692 19.2693 36.3889H19.1993L18.4593 36.4989H18.1393L18.0393 36.5589L17.9493 36.6289C17.9175 36.6615 17.8905 36.6986 17.8693 36.7389C17.8449 36.787 17.8248 36.8372 17.8093 36.8889C17.8057 36.9455 17.8057 37.0023 17.8093 37.0589V37.2489L17.9593 37.1189L18.1393 37.0189L18.3393 36.9489H18.5693C18.7166 36.946 18.8629 36.9732 18.9993 37.0289C19.1158 37.0766 19.2188 37.1522 19.2993 37.2489C19.3831 37.3555 19.4443 37.4779 19.4793 37.6089C19.5208 37.7621 19.541 37.9202 19.5393 38.0789L19.4493 38.1489ZM18.7993 38.1489C18.8081 38.0625 18.8081 37.9753 18.7993 37.8889C18.7852 37.8147 18.7582 37.7436 18.7193 37.6789C18.682 37.6203 18.6304 37.5721 18.5693 37.5389C18.5016 37.5034 18.4257 37.4862 18.3493 37.4889H18.1893L18.0493 37.5489L17.9093 37.6489L17.7693 37.7889V37.9989C17.7588 38.1354 17.7588 38.2724 17.7693 38.4089C17.7844 38.5096 17.8147 38.6074 17.8593 38.6989C17.8946 38.7702 17.9503 38.8294 18.0193 38.8689C18.0929 38.9091 18.1755 38.9298 18.2593 38.9289C18.335 38.9461 18.4136 38.9461 18.4893 38.9289C18.5569 38.8974 18.6154 38.8492 18.6593 38.7889C18.7068 38.7192 18.7408 38.6412 18.7593 38.5589C18.7725 38.456 18.7725 38.3518 18.7593 38.2489L18.7993 38.1489ZM21.8993 39.2989C21.9055 39.315 21.9055 39.3328 21.8993 39.3489H21.4193C21.4132 39.3328 21.4132 39.315 21.4193 39.2989V39.1189C21.329 39.216 21.2202 39.2942 21.0993 39.3489C20.9766 39.4034 20.8436 39.4307 20.7093 39.4289C20.5999 39.4448 20.4887 39.4448 20.3793 39.4289C20.2844 39.3994 20.1961 39.3519 20.1193 39.2889C20.019 39.216 19.9425 39.1151 19.8993 38.9989C19.8567 38.8977 19.8363 38.7886 19.8393 38.6789C19.8372 38.5607 19.8647 38.4438 19.9193 38.3389C19.9727 38.2395 20.0522 38.1565 20.1493 38.0989C20.2664 38.0295 20.3952 37.9821 20.5293 37.9589C20.7056 37.9416 20.8831 37.9416 21.0593 37.9589H21.2793V37.8189C21.2879 37.7559 21.2879 37.6919 21.2793 37.6289C21.2668 37.5806 21.2428 37.536 21.2093 37.4989C21.1736 37.4615 21.1288 37.4339 21.0793 37.4189H20.8793C20.7864 37.4066 20.6922 37.4066 20.5993 37.4189L20.3793 37.4989L20.2193 37.5789H20.1193V37.5289C20.1161 37.5023 20.1161 37.4755 20.1193 37.4489C20.1169 37.4156 20.1169 37.3822 20.1193 37.3489C20.1143 37.3091 20.1143 37.2687 20.1193 37.2289C20.1136 37.2025 20.1136 37.1753 20.1193 37.1489L20.2393 37.0689L20.4493 36.9889L20.7093 36.9289H20.9993C21.1508 36.926 21.3021 36.9428 21.4493 36.9789C21.5638 37.0071 21.67 37.0619 21.7593 37.1389C21.843 37.2107 21.9052 37.3041 21.9393 37.4089C21.9802 37.5383 22.0005 37.6732 21.9993 37.8089V39.2989H21.8993ZM21.2693 38.2989H20.7393C20.6754 38.3106 20.6143 38.3343 20.5593 38.3689C20.5163 38.3955 20.4817 38.4336 20.4593 38.4789C20.4478 38.5282 20.4478 38.5796 20.4593 38.6289C20.4573 38.6699 20.4643 38.7109 20.4798 38.7489C20.4954 38.7869 20.5191 38.8211 20.5493 38.8489C20.6196 38.9061 20.7089 38.9347 20.7993 38.9289C20.8876 38.9295 20.9742 38.9052 21.0493 38.8589C21.1357 38.8044 21.2133 38.7369 21.2793 38.6589V38.2789L21.2693 38.2989ZM24.4593 39.2989H23.8493V38.4489H23.4993C23.4548 38.4635 23.4139 38.4873 23.3793 38.5189C23.3391 38.5602 23.3054 38.6074 23.2793 38.6589C23.2405 38.7262 23.207 38.7964 23.1793 38.8689L23.0293 39.2489V39.3089H22.3993C22.3948 39.2824 22.3948 39.2554 22.3993 39.2289L22.4693 39.0589L22.6193 38.7089C22.6608 38.6132 22.7183 38.5253 22.7893 38.4489C22.8476 38.3843 22.9193 38.3331 22.9993 38.2989C22.8572 38.269 22.7279 38.1956 22.6293 38.0889C22.5336 37.9821 22.4833 37.8422 22.4893 37.6989C22.4874 37.5882 22.5114 37.4787 22.5593 37.3789C22.6079 37.2825 22.6802 37.1999 22.7693 37.1389C22.876 37.0682 22.9945 37.0174 23.1193 36.9889C23.2801 36.9529 23.4446 36.9361 23.6093 36.9389H24.3293C24.3525 36.9396 24.3752 36.9454 24.3959 36.9557C24.4166 36.9661 24.4348 36.9808 24.4493 36.9989C24.4624 37.0412 24.4624 37.0866 24.4493 37.1289V39.2989H24.4593ZM23.8293 37.3989H23.3293C23.2751 37.4118 23.224 37.4356 23.1793 37.4689C23.143 37.4975 23.1153 37.5356 23.0993 37.5789C23.0904 37.6251 23.0904 37.6727 23.0993 37.7189C23.0899 37.7651 23.0899 37.8127 23.0993 37.8589C23.1168 37.8986 23.1444 37.9331 23.1793 37.9589C23.2216 37.9879 23.2692 38.0083 23.3193 38.0189H23.8193V37.3789L23.8293 37.3989ZM27.9393 37.2489C27.9421 37.2955 27.9421 37.3423 27.9393 37.3889C27.9429 37.4188 27.9429 37.449 27.9393 37.4789H27.3293V39.2989H26.7693V37.5289H25.9993C25.9954 37.499 25.9954 37.4688 25.9993 37.4389C25.9965 37.3923 25.9965 37.3455 25.9993 37.2989C25.9959 37.2556 25.9959 37.2122 25.9993 37.1689C25.9877 37.1128 25.9877 37.055 25.9993 36.9989H27.8493C27.8532 37.0288 27.8532 37.059 27.8493 37.0889C27.8519 37.1322 27.8519 37.1756 27.8493 37.2189L27.9393 37.2489ZM30.3293 38.1089C30.3349 38.1699 30.3171 38.2307 30.2793 38.2789C30.2614 38.298 30.2397 38.3132 30.2156 38.3235C30.1915 38.3339 30.1655 38.3391 30.1393 38.3389H28.7693C28.757 38.4251 28.757 38.5127 28.7693 38.5989C28.7897 38.6733 28.8274 38.7418 28.8793 38.7989C28.9323 38.8534 28.9974 38.8945 29.0693 38.9189C29.162 38.9348 29.2567 38.9348 29.3493 38.9189H29.6393L29.8593 38.8689L30.0093 38.8189H30.1093C30.1123 38.8388 30.1123 38.859 30.1093 38.8789V39.0689C30.1109 39.0922 30.1109 39.1156 30.1093 39.1389H30.0193L29.8293 39.1989L29.5693 39.2489H29.2593C29.0795 39.2511 28.9005 39.2241 28.7293 39.1689C28.5854 39.1241 28.455 39.0438 28.3502 38.9355C28.2453 38.8272 28.1694 38.6942 28.1293 38.5489C28.0779 38.3703 28.0543 38.1847 28.0593 37.9989C28.0567 37.8158 28.0837 37.6334 28.1393 37.4589C28.1855 37.3073 28.264 37.1674 28.3693 37.0489C28.4683 36.9364 28.5913 36.8475 28.7293 36.7889C29.0514 36.6667 29.4072 36.6667 29.7293 36.7889C29.8556 36.8391 29.9685 36.9178 30.0593 37.0189C30.1472 37.1205 30.212 37.2399 30.2493 37.3689C30.291 37.5118 30.3113 37.6601 30.3093 37.8089V37.9089L30.3293 38.1089ZM29.7093 37.9289C29.7219 37.7804 29.683 37.6322 29.5993 37.5089C29.5565 37.456 29.5011 37.4145 29.4383 37.3884C29.3754 37.3622 29.3071 37.352 29.2393 37.3589C29.1702 37.3431 29.0984 37.3431 29.0293 37.3589C28.9709 37.3871 28.9196 37.4281 28.8793 37.4789C28.8383 37.5327 28.8078 37.5938 28.7893 37.6589C28.7802 37.732 28.7802 37.8059 28.7893 37.8789L29.7093 37.9289ZM32.7693 39.2489C32.7748 39.2719 32.7748 39.2959 32.7693 39.3189H32.1093L31.6893 38.5189L31.2793 39.3189H30.6693C30.6634 39.2959 30.6634 39.2719 30.6693 39.2489L31.2893 38.1489L30.7193 37.1489C30.7139 37.1225 30.7139 37.0953 30.7193 37.0689H31.3693L31.7693 37.8189L32.1693 37.0689H32.6893C32.6947 37.0953 32.6947 37.1225 32.6893 37.1489L32.1293 38.1489L32.7493 39.2689L32.7693 39.2489ZM35.3693 39.2489H34.7993V38.3689H33.8893V39.2489H33.2793V37.0489H33.8893V37.8889H34.7993V37.0489H35.3593V39.2989L35.3693 39.2489ZM38.2493 39.2489H37.6893V37.8089L37.5593 38.0189L37.4193 38.2189L36.6593 39.2189H36.1693V36.9989H36.4693C36.5522 36.9874 36.6364 36.9874 36.7193 36.9989C36.7193 36.9989 36.7893 36.9989 36.7893 37.0689V38.4889L36.9093 38.2889L37.0393 38.0989L37.8093 37.0989H38.3193V39.2989L38.2493 39.2489ZM40.9993 39.2489H40.4093L40.1993 38.7189C40.1782 38.6566 40.1515 38.5963 40.1193 38.5389C40.0929 38.4936 40.0591 38.453 40.0193 38.4189C39.984 38.3906 39.9431 38.3702 39.8993 38.3589H39.6093V39.2789H38.9993V36.9989H39.5593V37.8689H39.8293C39.8695 37.8561 39.9068 37.8357 39.9393 37.8089C39.9788 37.7745 40.0126 37.734 40.0393 37.6889C40.0708 37.6312 40.0975 37.571 40.1193 37.5089L40.3093 37.0289H40.8793C40.8817 37.0488 40.8817 37.069 40.8793 37.0889V37.1889L40.6993 37.6189C40.6695 37.6955 40.6327 37.7691 40.5893 37.8389C40.5557 37.8937 40.5154 37.9441 40.4693 37.9889L40.3493 38.0789L40.2293 38.1389L40.3693 38.2089L40.4993 38.3089C40.5448 38.3542 40.5851 38.4045 40.6193 38.4589C40.6609 38.5262 40.6977 38.5964 40.7293 38.6689L40.9493 39.1689V39.2989L40.9993 39.2489ZM43.2893 39.2489C43.2955 39.265 43.2955 39.2828 43.2893 39.2989H42.8093C42.8032 39.2828 42.8032 39.265 42.8093 39.2489V39.0689C42.719 39.166 42.6102 39.2442 42.4893 39.2989C42.3667 39.3537 42.2336 39.381 42.0993 39.3789C41.9899 39.3948 41.8787 39.3948 41.7693 39.3789C41.6743 39.3497 41.586 39.3021 41.5093 39.2389C41.4196 39.1786 41.3472 39.0958 41.2993 38.9989C41.2567 38.8977 41.2363 38.7886 41.2393 38.6789C41.2377 38.5607 41.2651 38.444 41.3193 38.3389C41.3727 38.2395 41.4522 38.1565 41.5493 38.0989C41.6665 38.0297 41.7952 37.9823 41.9293 37.9589C42.1056 37.9416 42.2831 37.9416 42.4593 37.9589H42.6793V37.8189C42.6879 37.7559 42.6879 37.6919 42.6793 37.6289C42.6668 37.5806 42.6428 37.536 42.6093 37.4989C42.5736 37.4615 42.5288 37.4339 42.4793 37.4189H42.2793C42.1864 37.4065 42.0922 37.4065 41.9993 37.4189L41.7793 37.4989L41.6193 37.5789H41.5093V37.5289C41.5061 37.5023 41.5061 37.4755 41.5093 37.4489C41.5067 37.4156 41.5067 37.3822 41.5093 37.3489C41.504 37.3091 41.504 37.2687 41.5093 37.2289C41.5036 37.2025 41.5036 37.1753 41.5093 37.1489L41.6293 37.0689L41.8393 36.9889L42.0993 36.9289H42.3893C42.5408 36.9259 42.6921 36.9427 42.8393 36.9789C42.9538 37.0071 43.06 37.0619 43.1493 37.1389C43.2326 37.211 43.2948 37.3043 43.3293 37.4089C43.3704 37.5382 43.3906 37.6732 43.3893 37.8089V39.2989L43.2893 39.2489ZM42.6593 38.2489H42.1593C42.0953 38.2603 42.0342 38.2841 41.9793 38.3189C41.9363 38.3455 41.9017 38.3836 41.8793 38.4289C41.8678 38.4782 41.8678 38.5296 41.8793 38.5789C41.8773 38.6199 41.8843 38.6609 41.8998 38.6989C41.9154 38.7369 41.9391 38.7711 41.9693 38.7989C42.0396 38.8561 42.1289 38.8847 42.2193 38.8789C42.3042 38.8777 42.3871 38.8535 42.4593 38.8089C42.5457 38.7544 42.6233 38.6869 42.6893 38.6089V38.2289L42.6593 38.2489ZM45.3893 40.1089H44.9093V38.9989C44.8979 38.9666 44.8979 38.9313 44.9093 38.8989C44.9252 38.8923 44.9421 38.8889 44.9593 38.8889C44.9765 38.8889 44.9935 38.8923 45.0093 38.8989H45.1293C45.1856 38.823 45.2358 38.7428 45.2793 38.6589C45.3331 38.5533 45.3766 38.4428 45.4093 38.3289C45.4556 38.1747 45.4924 38.0177 45.5193 37.8589C45.5193 37.6789 45.5893 37.4589 45.6193 37.1989C45.6168 37.1723 45.6168 37.1455 45.6193 37.1189C45.6157 37.0991 45.6157 37.0787 45.6193 37.0589H47.1393C47.1633 37.0569 47.1875 37.0604 47.21 37.069C47.2325 37.0777 47.2528 37.0913 47.2693 37.1089C47.2861 37.1575 47.2861 37.2103 47.2693 37.2589V38.9489H47.5293C47.5452 38.9423 47.5621 38.9389 47.5793 38.9389C47.5965 38.9389 47.6135 38.9423 47.6293 38.9489C47.6359 38.9647 47.6393 38.9817 47.6393 38.9989C47.6393 39.0161 47.6359 39.0331 47.6293 39.0489V40.1689H47.2093V39.4389H45.3893V40.1689V40.1089ZM46.6893 37.4689H46.1493C46.1493 37.6789 46.0893 37.8589 46.0593 38.0089C46.0297 38.1408 45.993 38.271 45.9493 38.3989C45.9189 38.4929 45.8787 38.5834 45.8293 38.6689L45.7093 38.8589H46.7093V37.4689H46.6893ZM50.1893 39.2889H49.6293V37.4789H49.0993C49.0993 37.7389 49.066 37.9689 48.9993 38.1689C48.9659 38.3423 48.9191 38.5128 48.8593 38.6789C48.8181 38.8056 48.761 38.9266 48.6893 39.0389C48.6339 39.1277 48.5627 39.2057 48.4793 39.2689C48.4045 39.3247 48.3196 39.3655 48.2293 39.3889C48.1363 39.4006 48.0423 39.4006 47.9493 39.3889H47.8993C47.8956 39.3624 47.8956 39.3354 47.8993 39.3089V39.0089C47.8954 38.979 47.8954 38.9488 47.8993 38.9189C47.9454 38.9289 47.9932 38.9289 48.0393 38.9189C48.087 38.896 48.1282 38.8616 48.1593 38.8189C48.2046 38.7574 48.2416 38.6901 48.2693 38.6189C48.3076 38.5182 48.3377 38.4145 48.3593 38.3089C48.3593 38.1889 48.4093 38.0389 48.4393 37.8689C48.4693 37.6989 48.4893 37.4989 48.5093 37.2689C48.4946 37.22 48.4946 37.1678 48.5093 37.1189C48.5253 37.1007 48.5455 37.0866 48.5682 37.0779C48.5908 37.0692 48.6152 37.0661 48.6393 37.0689H49.9993C50.0233 37.0676 50.0473 37.0714 50.0697 37.08C50.0921 37.0886 50.1124 37.1019 50.1293 37.1189C50.1461 37.1675 50.1461 37.2203 50.1293 37.2689V39.2989L50.1893 39.2889ZM52.7593 39.2889H52.1893V38.4389H51.8193C51.7749 38.4537 51.7341 38.4776 51.6993 38.5089C51.6593 38.5504 51.6256 38.5976 51.5993 38.6489C51.5607 38.7162 51.5272 38.7865 51.4993 38.8589L51.3493 39.2389V39.2989H50.7193C50.715 39.2724 50.715 39.2454 50.7193 39.2189L50.7893 39.0489L50.9393 38.6989C50.981 38.6033 51.0385 38.5154 51.1093 38.4389C51.1723 38.3682 51.2511 38.3133 51.3393 38.2789C51.1938 38.2503 51.0609 38.1769 50.9593 38.0689C50.8636 37.9621 50.8133 37.8222 50.8193 37.6789C50.8177 37.5683 50.8417 37.4588 50.8893 37.3589C50.9383 37.2627 51.0105 37.1802 51.0993 37.1189C51.2091 37.0473 51.3311 36.9964 51.4593 36.9689C51.6201 36.9328 51.7846 36.916 51.9493 36.9189H52.6793C52.7025 36.9196 52.7252 36.9254 52.7459 36.9357C52.7666 36.9461 52.7848 36.9608 52.7993 36.9789C52.8124 37.0212 52.8124 37.0666 52.7993 37.1089V39.2989L52.7593 39.2889ZM52.1293 37.3889H51.6193C51.5685 37.4028 51.5209 37.4266 51.4793 37.4589C51.443 37.4875 51.4153 37.5255 51.3993 37.5689C51.3906 37.6152 51.3906 37.6626 51.3993 37.7089C51.3901 37.7551 51.3901 37.8027 51.3993 37.8489C51.4172 37.8884 51.4447 37.9228 51.4793 37.9489C51.5217 37.9777 51.5692 37.9981 51.6193 38.0089H52.1193V37.3689L52.1293 37.3889ZM56.8393 38.1489C56.8393 38.3253 56.8123 38.5007 56.7593 38.6689C56.7128 38.8204 56.6344 38.9602 56.5293 39.0789C56.4217 39.1952 56.2881 39.2844 56.1393 39.3389C55.9666 39.4027 55.7834 39.4332 55.5993 39.4289C55.4226 39.4335 55.2465 39.4064 55.0793 39.3489C54.9387 39.2994 54.8119 39.2171 54.7093 39.1089C54.6074 38.9972 54.5322 38.8639 54.4893 38.7189C54.4396 38.5467 54.416 38.3681 54.4193 38.1889C54.4188 38.0125 54.4458 37.837 54.4993 37.6689C54.5455 37.5173 54.624 37.3774 54.7293 37.2589C54.8369 37.1426 54.9705 37.0535 55.1193 36.9989C55.2918 36.9344 55.4752 36.9038 55.6593 36.9089C55.8393 36.904 56.0188 36.9311 56.1893 36.9889C56.3303 37.0377 56.4573 37.1201 56.5593 37.2289C56.6612 37.3406 56.7364 37.4739 56.7793 37.6189C56.8285 37.7912 56.852 37.9698 56.8493 38.1489H56.8393ZM56.1893 38.1489C56.1996 38.0458 56.1996 37.942 56.1893 37.8389C56.1746 37.754 56.144 37.6726 56.0993 37.5989C56.0581 37.5312 55.9993 37.476 55.9293 37.4389C55.849 37.4034 55.7621 37.385 55.6743 37.385C55.5865 37.385 55.4996 37.4034 55.4193 37.4389C55.3505 37.4732 55.2919 37.5249 55.2493 37.5889C55.2019 37.6623 55.168 37.7436 55.1493 37.8289C55.1367 37.9352 55.1367 38.0426 55.1493 38.1489C55.1395 38.252 55.1395 38.3558 55.1493 38.4589C55.1651 38.5435 55.1956 38.6248 55.2393 38.6989C55.2793 38.7676 55.3383 38.8232 55.4093 38.8589C55.4897 38.8999 55.579 38.9205 55.6693 38.9189C55.7553 38.9213 55.8408 38.9042 55.9193 38.8689C55.9878 38.8342 56.0464 38.7826 56.0893 38.7189C56.1371 38.6457 56.171 38.5644 56.1893 38.4789C56.2016 38.3726 56.2016 38.2652 56.1893 38.1589V38.1489ZM60.3493 38.1489C60.3524 38.319 60.3253 38.4883 60.2693 38.6489C60.2173 38.7942 60.1355 38.927 60.0293 39.0389C59.9158 39.1553 59.7797 39.2472 59.6293 39.3089C59.4573 39.3788 59.2748 39.4194 59.0893 39.4289V40.1789H58.5293V39.4289C58.3452 39.4242 58.1629 39.3905 57.9893 39.3289C57.8429 39.2745 57.7099 39.1892 57.5993 39.0789C57.4915 38.9721 57.4094 38.8421 57.3593 38.6989C57.3034 38.5348 57.2763 38.3622 57.2793 38.1889C57.2766 38.0188 57.3037 37.8496 57.3593 37.6889C57.4133 37.5393 57.4985 37.403 57.6093 37.2889C57.7195 37.1732 57.8522 37.0813 57.9993 37.0189C58.1712 36.9484 58.3538 36.9078 58.5393 36.8989V36.0989H59.0993V36.9089C59.2868 36.9122 59.4726 36.946 59.6493 37.0089C59.7954 37.0639 59.9283 37.1491 60.0393 37.2589C60.1471 37.3657 60.2292 37.4957 60.2793 37.6389C60.3354 37.803 60.3625 37.9755 60.3593 38.1489H60.3493ZM59.6993 38.1489C59.7117 37.9586 59.6626 37.7693 59.5593 37.6089C59.502 37.5391 59.4304 37.4825 59.3493 37.4428C59.2682 37.4031 59.1796 37.3813 59.0893 37.3789V38.8989C59.1762 38.897 59.2618 38.8774 59.3409 38.8413C59.42 38.8052 59.4909 38.7533 59.5493 38.6889C59.6655 38.5338 59.7223 38.3423 59.7093 38.1489H59.6993ZM58.4493 37.3889C58.3624 37.3908 58.2768 37.4104 58.1977 37.4465C58.1186 37.4827 58.0477 37.5345 57.9893 37.5989C57.8716 37.757 57.8148 37.9523 57.8293 38.1489C57.8164 38.2485 57.8164 38.3493 57.8293 38.4489C57.8494 38.5325 57.8869 38.6108 57.9393 38.6789C57.9893 38.7463 58.0544 38.8011 58.1293 38.8389C58.217 38.8823 58.3119 38.9094 58.4093 38.9189V37.4189L58.4493 37.3889ZM63.0793 39.2789H62.5193V37.8389L62.3893 38.0489L62.2493 38.2489L61.4893 39.2489H60.9093V36.9989H61.2093C61.2922 36.9873 61.3764 36.9873 61.4593 36.9989C61.4593 36.9989 61.5293 36.9989 61.5293 37.0689V38.4889L61.6493 38.2889L61.7793 38.0989L62.5493 37.0989H62.9693L62.9993 36.9989V39.2989L63.0793 39.2789ZM65.4193 38.9089V39.0889L65.3193 39.1589L65.1493 39.2289L64.9493 39.2789H64.7193C64.5622 39.2824 64.406 39.2552 64.2593 39.1989C64.1282 39.1476 64.0116 39.0652 63.9193 38.9589C63.8223 38.8491 63.7506 38.7194 63.7093 38.5789C63.6603 38.41 63.6367 38.2348 63.6393 38.0589C63.6341 37.8625 63.6612 37.6666 63.7193 37.4789C63.7688 37.3265 63.8507 37.1866 63.9593 37.0689C64.0604 36.9636 64.1832 36.8817 64.3193 36.8289C64.4664 36.774 64.6223 36.7469 64.7793 36.7489H65.1593L65.3093 36.8189L65.3993 36.8889V37.0689C65.4128 37.1383 65.4128 37.2096 65.3993 37.2789C65.3993 37.2789 65.3993 37.3389 65.3293 37.3389C65.2999 37.3475 65.2687 37.3475 65.2393 37.3389L65.1293 37.2589L64.9993 37.4589C64.9266 37.4456 64.852 37.4456 64.7793 37.4589C64.7049 37.455 64.6308 37.4704 64.5642 37.5037C64.4976 37.537 64.4408 37.587 64.3993 37.6489C64.3021 37.8188 64.2569 38.0135 64.2693 38.2089C64.2568 38.3152 64.2568 38.4226 64.2693 38.5289C64.2876 38.6113 64.3216 38.6893 64.3693 38.7589C64.409 38.8191 64.4643 38.8675 64.5293 38.8989C64.605 38.9161 64.6836 38.9161 64.7593 38.8989C64.8352 38.9148 64.9135 38.9148 64.9893 38.8989L65.1593 38.8089L65.2793 38.7189C65.3054 38.7111 65.3332 38.7111 65.3593 38.7189C65.3612 38.7489 65.3612 38.7789 65.3593 38.8089V38.9489L65.4193 38.9089ZM67.7993 39.2789C67.8055 39.295 67.8055 39.3128 67.7993 39.3289H67.3193C67.3132 39.3128 67.3132 39.295 67.3193 39.2789V39.0989C67.229 39.196 67.1202 39.2742 66.9993 39.3289C66.8767 39.3837 66.7436 39.411 66.6093 39.4089C66.4999 39.4249 66.3887 39.4249 66.2793 39.4089C66.1844 39.3794 66.0961 39.3319 66.0193 39.2689C65.9221 39.2014 65.8458 39.1078 65.7993 38.9989C65.7564 38.8978 65.736 38.7887 65.7393 38.6789C65.7372 38.5607 65.7647 38.4438 65.8193 38.3389C65.8727 38.2395 65.9522 38.1565 66.0493 38.0989C66.1664 38.0295 66.2952 37.9821 66.4293 37.9589C66.6056 37.9416 66.7831 37.9416 66.9593 37.9589H67.1793V37.8189C67.1879 37.7559 67.1879 37.6919 67.1793 37.6289C67.1672 37.5804 67.1431 37.5357 67.1093 37.4989C67.0736 37.4615 67.0288 37.4339 66.9793 37.4189H66.7793C66.6864 37.4065 66.5922 37.4065 66.4993 37.4189L66.2793 37.4989L66.1193 37.5789H66.0193C66.0158 37.5624 66.0158 37.5454 66.0193 37.5289C66.0157 37.5024 66.0157 37.4755 66.0193 37.4489C66.0169 37.4156 66.0169 37.3822 66.0193 37.3489C66.0145 37.309 66.0145 37.2688 66.0193 37.2289C66.0136 37.2025 66.0136 37.1753 66.0193 37.1489L66.1393 37.0689L66.3493 36.9889L66.6093 36.9289H66.8993C67.0508 36.9259 67.2021 36.9427 67.3493 36.9789C67.4638 37.0071 67.57 37.0619 67.6593 37.1389C67.7426 37.211 67.8048 37.3043 67.8393 37.4089C67.8802 37.5383 67.9005 37.6732 67.8993 37.8089V39.2989L67.7993 39.2789ZM67.1693 38.2789H66.6693C66.6053 38.2903 66.5442 38.3141 66.4893 38.3489C66.4467 38.3759 66.4121 38.4139 66.3893 38.4589C66.3778 38.5082 66.3778 38.5596 66.3893 38.6089C66.3873 38.6499 66.3943 38.6909 66.4098 38.7289C66.4254 38.7669 66.4491 38.8011 66.4793 38.8289C66.5491 38.887 66.6388 38.9157 66.7293 38.9089C66.8176 38.9095 66.9042 38.8852 66.9793 38.8389C67.0658 38.7844 67.1433 38.7169 67.2093 38.6389V38.2589L67.1693 38.2789Z" fill="#2F7EEF"/>
</g>
<defs>
<clipPath id="clip0">
<rect width="88.56" height="41.04" fill="white"/>
</clipPath>
</defs>
</svg>
