<svg width="1560" height="906" fill="none" xmlns="http://www.w3.org/2000/svg"><path d="M-446 223.395c0-119.182 103.579-211.913 222.035-198.783L1289.29 192.354c88.4 9.8 159.72 76.809 174.99 164.437l54.87 314.757c21.33 122.346-72.84 234.346-197.03 234.346H-246c-110.457 0-200-89.543-200-200V223.395z" fill="#2F7EEF"/><path d="M-247 402.331c0-114.449 95.863-205.558 210.165-199.741l1141.025 58.065c93.25 4.745 170.81 73.38 186.86 165.36l29.05 166.499c21.35 122.356-72.82 234.381-197.02 234.381H-47c-110.457 0-200-89.543-200-200V402.331z" fill="#2F7EEF"/><path d="M-247 402.331c0-114.449 95.863-205.558 210.165-199.741l1141.025 58.065c93.25 4.745 170.81 73.38 186.86 165.36l29.05 166.499c21.35 122.356-72.82 234.381-197.02 234.381H-47c-110.457 0-200-89.543-200-200V402.331z" fill="url(#paint0_linear)"/><path d="M-447 481.552c0-113.402 94.189-204.118 207.511-199.859l1157.548 43.503c89.881 3.378 166.451 66.337 187.131 153.869l4.69 19.839c29.67 125.589-65.6 245.991-194.644 245.991H-247c-110.457 0-200-89.543-200-200v-63.343z" fill="#2F7EEF"/><path d="M-447 481.552c0-113.402 94.189-204.118 207.511-199.859l1157.548 43.503c89.881 3.378 166.451 66.337 187.131 153.869l4.69 19.839c29.67 125.589-65.6 245.991-194.644 245.991H-247c-110.457 0-200-89.543-200-200v-63.343z" fill="url(#paint1_linear)"/><defs><linearGradient id="paint0_linear" x1="1361" y1="424.378" x2="-37" y2="424.378" gradientUnits="userSpaceOnUse"><stop offset=".002" stop-color="#418FFF"/><stop offset="1" stop-color="#2F7EEF" stop-opacity="0"/></linearGradient><linearGradient id="paint1_linear" x1="928.5" y1="446.335" x2="-164.5" y2="446.335" gradientUnits="userSpaceOnUse"><stop stop-color="#418FFF"/><stop offset="1" stop-color="#2F7EEF" stop-opacity="0"/></linearGradient></defs></svg>