<svg width="1560" height="906" viewBox="0 0 1560 906" fill="none" xmlns="http://www.w3.org/2000/svg">
<path d="M-446 223.395C-446 104.213 -342.421 11.4816 -223.965 24.6123L1289.29 192.354C1377.69 202.154 1449.01 269.163 1464.28 356.791L1519.15 671.548C1540.48 793.894 1446.31 905.894 1322.12 905.894H-246C-356.457 905.894 -446 816.351 -446 705.894V223.395Z" fill="#2F7EEF"/>
<path d="M-247 402.331C-247 287.882 -151.137 196.773 -36.8354 202.59L1104.19 260.655C1197.44 265.4 1275 334.035 1291.05 426.015L1320.1 592.514C1341.45 714.87 1247.28 826.895 1123.08 826.895H-47C-157.457 826.895 -247 737.352 -247 626.895V402.331Z" fill="#2F7EEF"/>
<path d="M-247 402.331C-247 287.882 -151.137 196.773 -36.8354 202.59L1104.19 260.655C1197.44 265.4 1275 334.035 1291.05 426.015L1320.1 592.514C1341.45 714.87 1247.28 826.895 1123.08 826.895H-47C-157.457 826.895 -247 737.352 -247 626.895V402.331Z" fill="url(#paint0_linear)"/>
<path d="M-447 481.552C-447 368.15 -352.811 277.434 -239.489 281.693L918.059 325.196C1007.94 328.574 1084.51 391.533 1105.19 479.065L1109.88 498.904C1139.55 624.493 1044.28 744.895 915.236 744.895H-247C-357.457 744.895 -447 655.352 -447 544.895V481.552Z" fill="#2F7EEF"/>
<path d="M-447 481.552C-447 368.15 -352.811 277.434 -239.489 281.693L918.059 325.196C1007.94 328.574 1084.51 391.533 1105.19 479.065L1109.88 498.904C1139.55 624.493 1044.28 744.895 915.236 744.895H-247C-357.457 744.895 -447 655.352 -447 544.895V481.552Z" fill="url(#paint1_linear)"/>
<defs>
<linearGradient id="paint0_linear" x1="1361" y1="424.378" x2="-37.0001" y2="424.378" gradientUnits="userSpaceOnUse">
<stop offset="0.00201853" stop-color="#418FFF"/>
<stop offset="1" stop-color="#2F7EEF" stop-opacity="0"/>
</linearGradient>
<linearGradient id="paint1_linear" x1="928.5" y1="446.335" x2="-164.5" y2="446.335" gradientUnits="userSpaceOnUse">
<stop stop-color="#418FFF"/>
<stop offset="1" stop-color="#2F7EEF" stop-opacity="0"/>
</linearGradient>
</defs>
</svg>
