<svg width="375" height="1843" fill="none" xmlns="http://www.w3.org/2000/svg"><path d="M-1338.86 223.386c0-119.178 103.58-211.909 222.03-198.783l2453.26 271.845c92.38 10.236 165.53 82.763 176.56 175.05l137.09 1147.042c14.22 119.02-78.72 223.73-198.59 223.73h-2590.35c-110.45 0-200-89.54-200-200V223.386z" fill="#2F7EEF"/><path d="M-1292.73 358.879c0-119.175 103.57-211.904 222.02-198.785L997.964 389.219c92.376 10.232 165.536 82.754 176.566 175.04L1286.8 1503.2c14.23 119.03-78.72 223.75-198.59 223.75h-2180.94c-110.46 0-200-89.54-200-200V358.879z" fill="url(#paint0_linear)"/><path d="M-1076.5 511.677c0-119.173 103.566-211.903 222.015-198.784L817.407 498.052c92.379 10.231 165.535 82.753 176.571 175.038l86.682 724.88c14.23 119.02-78.72 223.75-198.588 223.75H-876.5c-110.457 0-200-89.55-200-200V511.677z" fill="url(#paint1_linear)"/><defs><linearGradient id="paint0_linear" x1="1313.55" y1="718.157" x2="-279.84" y2="718.156" gradientUnits="userSpaceOnUse"><stop stop-color="#418FFF"/><stop offset="1" stop-color="#2F7EEF" stop-opacity="0"/></linearGradient><linearGradient id="paint1_linear" x1="1107.41" y1="776.487" x2="-227.758" y2="776.487" gradientUnits="userSpaceOnUse"><stop stop-color="#418FFF"/><stop offset="1" stop-color="#2F7EEF" stop-opacity="0"/></linearGradient></defs></svg>