<svg width="1613" height="1158" viewBox="0 0 1613 1158" fill="none" xmlns="http://www.w3.org/2000/svg">
<path d="M-283 223.386C-283 104.208 -179.426 11.477 -60.9729 24.6028L1340.03 179.847C1432.41 190.084 1505.56 262.61 1516.59 354.897L1585.83 934.267C1600.05 1053.29 1507.11 1158 1387.24 1158H-82.9999C-193.457 1158 -283 1068.46 -283 958V223.386Z" fill="#2F7EEF"/>
<path d="M-254.004 308.549C-254.004 189.374 -150.437 96.6448 -31.9868 109.764L1127.28 238.163C1219.66 248.395 1292.81 320.918 1303.85 413.204L1357.48 861.768C1371.71 980.79 1278.76 1085.51 1158.89 1085.51H-54.0039C-164.461 1085.51 -254.004 995.969 -254.004 885.512V308.549Z" fill="url(#paint0_linear)"/>
<path d="M-118.09 404.593C-118.09 285.419 -14.5241 192.69 103.925 205.809L1013.78 306.574C1106.16 316.805 1179.32 389.326 1190.35 481.612L1227.9 795.62C1242.13 914.643 1149.19 1019.37 1029.32 1019.37H81.9102C-28.5467 1019.37 -118.09 929.823 -118.09 819.366V404.593Z" fill="url(#paint1_linear)"/>
<defs>
<linearGradient id="paint0_linear" x1="1384.23" y1="451.413" x2="382.669" y2="451.413" gradientUnits="userSpaceOnUse">
<stop stop-color="#418FFF"/>
<stop offset="1" stop-color="#2F7EEF" stop-opacity="0"/>
</linearGradient>
<linearGradient id="paint1_linear" x1="1254.66" y1="488.079" x2="415.406" y2="488.079" gradientUnits="userSpaceOnUse">
<stop stop-color="#418FFF"/>
<stop offset="1" stop-color="#2F7EEF" stop-opacity="0"/>
</linearGradient>
</defs>
</svg>
