<svg width="1373" height="1158" viewBox="0 0 1373 1158" fill="none" xmlns="http://www.w3.org/2000/svg">
<path d="M-523 223.386C-523 104.208 -419.426 11.477 -300.973 24.6028L1100.03 179.847C1192.41 190.084 1265.56 262.61 1276.59 354.897L1345.83 934.267C1360.05 1053.29 1267.11 1158 1147.24 1158H-323C-433.457 1158 -523 1068.46 -523 958V223.386Z" fill="#2F7EEF"/>
<path d="M-494.004 308.549C-494.004 189.374 -390.437 96.6448 -271.987 109.764L887.277 238.163C979.656 248.395 1052.81 320.918 1063.85 413.204L1117.48 861.768C1131.71 980.79 1038.76 1085.51 918.893 1085.51H-294.004C-404.461 1085.51 -494.004 995.969 -494.004 885.512V308.549Z" fill="url(#paint0_linear)"/>
<path d="M-358.09 404.593C-358.09 285.419 -254.524 192.69 -136.075 205.809L773.783 306.574C866.162 316.805 939.318 389.326 950.354 481.612L987.902 795.62C1002.13 914.643 909.188 1019.37 789.316 1019.37H-158.09C-268.547 1019.37 -358.09 929.823 -358.09 819.366V404.593Z" fill="url(#paint1_linear)"/>
<defs>
<linearGradient id="paint0_linear" x1="1144.23" y1="451.413" x2="142.669" y2="451.413" gradientUnits="userSpaceOnUse">
<stop stop-color="#418FFF"/>
<stop offset="1" stop-color="#2F7EEF" stop-opacity="0"/>
</linearGradient>
<linearGradient id="paint1_linear" x1="1014.66" y1="488.079" x2="175.406" y2="488.079" gradientUnits="userSpaceOnUse">
<stop stop-color="#418FFF"/>
<stop offset="1" stop-color="#2F7EEF" stop-opacity="0"/>
</linearGradient>
</defs>
</svg>
