<svg width="1373" height="1158" fill="none" xmlns="http://www.w3.org/2000/svg"><path d="M-523 223.386c0-119.178 103.574-211.909 222.027-198.783L1100.03 179.847c92.38 10.237 165.53 82.763 176.56 175.05l69.24 579.37C1360.05 1053.29 1267.11 1158 1147.24 1158H-323c-110.457 0-200-89.54-200-200V223.386z" fill="#2F7EEF"/><path d="M-494.004 308.549c0-119.175 103.567-211.904 222.017-198.785L887.277 238.163c92.379 10.232 165.533 82.755 176.573 175.041l53.63 448.564c14.23 119.022-78.72 223.742-198.587 223.742H-294.004c-110.457 0-200-89.541-200-199.998V308.549z" fill="url(#paint0_linear)"/><path d="M-358.09 404.593c0-119.174 103.566-211.903 222.015-198.784l909.858 100.765c92.379 10.231 165.535 82.752 176.571 175.038l37.548 314.008c14.228 119.023-78.714 223.75-198.586 223.75H-158.09c-110.457 0-200-89.547-200-200.004V404.593z" fill="url(#paint1_linear)"/><defs><linearGradient id="paint0_linear" x1="1144.23" y1="451.413" x2="142.669" y2="451.413" gradientUnits="userSpaceOnUse"><stop stop-color="#418FFF"/><stop offset="1" stop-color="#2F7EEF" stop-opacity="0"/></linearGradient><linearGradient id="paint1_linear" x1="1014.66" y1="488.079" x2="175.406" y2="488.079" gradientUnits="userSpaceOnUse"><stop stop-color="#418FFF"/><stop offset="1" stop-color="#2F7EEF" stop-opacity="0"/></linearGradient></defs></svg>