<?xml version="1.0" encoding="utf-8"?>
<!-- Generator: Adobe Illustrator 22.1.0, SVG Export Plug-In . SVG Version: 6.00 Build 0)  -->
<svg version="1.1" id="Слой_1" xmlns="http://www.w3.org/2000/svg" xmlns:xlink="http://www.w3.org/1999/xlink" x="0px" y="0px"
	 viewBox="0 0 1920 2438.2" style="enable-background:new 0 0 1920 2438.2;" xml:space="preserve">
<style type="text/css">
	.st0{fill:#2F7EEF;}
	.st1{fill:#3884F1;}
	.st2{fill:#3B89F9;}
</style>
<path class="st0" d="M1920,384.6l-36.9-125c-36.6-124.2-148.8-210.9-278.3-215L197.9,0.1c-43.6-1.4-83.1,25.7-97.5,66.9L0,353
	v2071.4l1920-252.7V384.6z"/>
<path class="st1" d="M1920,1010l-169.8-614.3c-35-126.6-148.3-215.8-279.7-219.9L260.9,137.4c-44.4-1.4-84.3,26.6-98.2,68.8L0,702.2
	v1736l1920-252.7V1010z"/>
<path class="st2" d="M1920,1835.3L1571.7,575.4c-35-126.6-148.3-215.8-279.7-219.9l-947.1-30c-44.4-1.4-84.3,26.6-98.2,68.8
	L0,1146.7v1093.1l1920-252.7V1835.3z"/>
</svg>
