<svg xmlns="http://www.w3.org/2000/svg" viewBox="0 0 1920 2438.2"><path d="M1920 384.6l-36.9-125c-36.6-124.2-148.8-210.9-278.3-215L197.9.1c-43.6-1.4-83.1 25.7-97.5 66.9L0 353v2071.4l1920-252.7V384.6z" fill="#2f7eef"/><path d="M1920 1010l-169.8-614.3c-35-126.6-148.3-215.8-279.7-219.9L260.9 137.4c-44.4-1.4-84.3 26.6-98.2 68.8L0 702.2v1736l1920-252.7V1010z" fill="#3884f1"/><path d="M1920 1835.3L1571.7 575.4c-35-126.6-148.3-215.8-279.7-219.9l-947.1-30c-44.4-1.4-84.3 26.6-98.2 68.8L0 1146.7v1093.1l1920-252.7v-151.8z" fill="#3b89f9"/></svg>